<ttFont>
<head>
    <!-- Most of this table will be recalculated by the compiler -->
    <tableVersion value="1.0"/>
    <fontRevision value="1.002"/>
    <checkSumAdjustment value="0x323e57b5"/>
    <magicNumber value="0x5f0f3cf5"/>
    <flags value="00000000 00001111"/>
    <unitsPerEm value="1000"/>
    <created value="Sat Jan  4 16:14:24 2020"/>
    <modified value="Thu Feb  4 00:57:40 2021"/>
    <xMin value="-125"/>
    <yMin value="-246"/>
    <xMax value="1372"/>
    <yMax value="1121"/>
    <macStyle value="00000000 00000000"/>
    <lowestRecPPEM value="6"/>
    <fontDirectionHint value="2"/>
    <indexToLocFormat value="1"/>
    <glyphDataFormat value="0"/>
  </head>
    <TTGlyph name=".notdef" xMin="40" yMin="0" xMax="544" yMax="700">
      <contour>
        <pt x="40" y="35" on="1"/>
        <pt x="40" y="665" on="1"/>
        <pt x="40" y="682" on="0"/>
        <pt x="58" y="700" on="0"/>
        <pt x="75" y="700" on="1"/>
        <pt x="509" y="700" on="1"/>
        <pt x="526" y="700" on="0"/>
        <pt x="544" y="682" on="0"/>
        <pt x="544" y="665" on="1"/>
        <pt x="544" y="35" on="1"/>
        <pt x="544" y="18" on="0"/>
        <pt x="526" y="0" on="0"/>
        <pt x="509" y="0" on="1"/>
        <pt x="75" y="0" on="1"/>
        <pt x="58" y="0" on="0"/>
        <pt x="40" y="18" on="0"/>
      </contour>
      <contour>
        <pt x="509" y="670" on="1"/>
        <pt x="95" y="670" on="1"/>
        <pt x="92" y="670" on="0"/>
        <pt x="90" y="666" on="0"/>
        <pt x="92" y="664" on="1"/>
        <pt x="508" y="65" on="1"/>
        <pt x="510" y="62" on="0"/>
        <pt x="514" y="63" on="0"/>
        <pt x="514" y="67" on="1"/>
        <pt x="514" y="665" on="1"/>
        <pt x="514" y="667" on="0"/>
        <pt x="511" y="670" on="0"/>
      </contour>
      <contour>
        <pt x="70" y="633" on="1"/>
        <pt x="70" y="35" on="1"/>
        <pt x="70" y="33" on="0"/>
        <pt x="73" y="30" on="0"/>
        <pt x="75" y="30" on="1"/>
        <pt x="488" y="30" on="1"/>
        <pt x="491" y="30" on="0"/>
        <pt x="493" y="34" on="0"/>
        <pt x="491" y="36" on="1"/>
        <pt x="76" y="635" on="1"/>
        <pt x="74" y="638" on="0"/>
        <pt x="70" y="637" on="0"/>
      </contour>
    </TTGlyph>
    <TTGlyph name="A" xMin="25" yMin="0" xMax="648" yMax="700">
      <contour>
        <pt x="326" y="650" on="1"/>
        <pt x="346" y="650" on="1"/>
        <pt x="329" y="601" on="0"/>
        <pt x="294" y="495" on="0"/>
        <pt x="276" y="448" on="1"/>
        <pt x="106" y="0" on="1"/>
        <pt x="25" y="0" on="1"/>
        <pt x="294" y="700" on="1"/>
        <pt x="382" y="700" on="1"/>
        <pt x="648" y="0" on="1"/>
        <pt x="563" y="0" on="1"/>
        <pt x="392" y="453" on="1"/>
        <pt x="376" y="499" on="0"/>
        <pt x="341" y="601" on="0"/>
      </contour>
      <contour>
        <pt x="338" y="192" on="1"/>
        <pt x="140" y="192" on="1"/>
        <pt x="169" y="270" on="1"/>
        <pt x="338" y="270" on="1"/>
      </contour>
      <contour>
        <pt x="532" y="192" on="1"/>
        <pt x="338" y="192" on="1"/>
        <pt x="338" y="270" on="1"/>
        <pt x="500" y="270" on="1"/>
      </contour>
    </TTGlyph>
    <TTGlyph name="AE" xMin="2" yMin="0" xMax="883" yMax="700">
      <contour>
        <pt x="170" y="172" on="1"/>
        <pt x="215" y="243" on="1"/>
        <pt x="489" y="243" on="1"/>
        <pt x="465" y="217" on="1"/>
        <pt x="465" y="589" on="1"/>
        <pt x="480" y="570" on="1"/>
        <pt x="87" y="0" on="1"/>
        <pt x="2" y="0" on="1"/>
        <pt x="490" y="700" on="1"/>
        <pt x="883" y="700" on="1"/>
        <pt x="883" y="628" on="1"/>
        <pt x="521" y="628" on="1"/>
        <pt x="540" y="648" on="1"/>
        <pt x="540" y="376" on="1"/>
        <pt x="522" y="394" on="1"/>
        <pt x="832" y="394" on="1"/>
        <pt x="832" y="322" on="1"/>
        <pt x="520" y="322" on="1"/>
        <pt x="540" y="339" on="1"/>
        <pt x="540" y="46" on="1"/>
        <pt x="521" y="72" on="1"/>
        <pt x="881" y="72" on="1"/>
        <pt x="881" y="0" on="1"/>
        <pt x="465" y="0" on="1"/>
        <pt x="465" y="188" on="1"/>
        <pt x="492" y="172" on="1"/>
      </contour>
    </TTGlyph>
    <TTGlyph name="AEacute" xMin="2" yMin="0" xMax="883" yMax="919">
      <contour>
        <pt x="170" y="172" on="1"/>
        <pt x="215" y="243" on="1"/>
        <pt x="489" y="243" on="1"/>
        <pt x="465" y="217" on="1"/>
        <pt x="465" y="589" on="1"/>
        <pt x="480" y="570" on="1"/>
        <pt x="87" y="0" on="1"/>
        <pt x="2" y="0" on="1"/>
        <pt x="490" y="700" on="1"/>
        <pt x="883" y="700" on="1"/>
        <pt x="883" y="628" on="1"/>
        <pt x="521" y="628" on="1"/>
        <pt x="540" y="648" on="1"/>
        <pt x="540" y="376" on="1"/>
        <pt x="522" y="394" on="1"/>
        <pt x="832" y="394" on="1"/>
        <pt x="832" y="322" on="1"/>
        <pt x="520" y="322" on="1"/>
        <pt x="540" y="339" on="1"/>
        <pt x="540" y="46" on="1"/>
        <pt x="521" y="72" on="1"/>
        <pt x="881" y="72" on="1"/>
        <pt x="881" y="0" on="1"/>
        <pt x="465" y="0" on="1"/>
        <pt x="465" y="188" on="1"/>
        <pt x="492" y="172" on="1"/>
      </contour>
      <contour>
        <pt x="785" y="854" on="1"/>
        <pt x="618" y="760" on="1"/>
        <pt x="591" y="801" on="1"/>
        <pt x="734" y="919" on="1"/>
      </contour>
    </TTGlyph>
    <TTGlyph name="Aacute" xMin="25" yMin="0" xMax="648" yMax="919">
      <contour>
        <pt x="326" y="650" on="1"/>
        <pt x="346" y="650" on="1"/>
        <pt x="329" y="601" on="0"/>
        <pt x="294" y="495" on="0"/>
        <pt x="276" y="448" on="1"/>
        <pt x="106" y="0" on="1"/>
        <pt x="25" y="0" on="1"/>
        <pt x="294" y="700" on="1"/>
        <pt x="382" y="700" on="1"/>
        <pt x="648" y="0" on="1"/>
        <pt x="563" y="0" on="1"/>
        <pt x="392" y="453" on="1"/>
        <pt x="376" y="499" on="0"/>
        <pt x="341" y="601" on="0"/>
      </contour>
      <contour>
        <pt x="338" y="192" on="1"/>
        <pt x="140" y="192" on="1"/>
        <pt x="169" y="270" on="1"/>
        <pt x="338" y="270" on="1"/>
      </contour>
      <contour>
        <pt x="532" y="192" on="1"/>
        <pt x="338" y="192" on="1"/>
        <pt x="338" y="270" on="1"/>
        <pt x="500" y="270" on="1"/>
      </contour>
      <contour>
        <pt x="473" y="854" on="1"/>
        <pt x="306" y="760" on="1"/>
        <pt x="278" y="801" on="1"/>
        <pt x="421" y="919" on="1"/>
      </contour>
    </TTGlyph>
    <TTGlyph name="Abreve" xMin="25" yMin="0" xMax="648" yMax="912">
      <contour>
        <pt x="326" y="650" on="1"/>
        <pt x="346" y="650" on="1"/>
        <pt x="329" y="601" on="0"/>
        <pt x="294" y="495" on="0"/>
        <pt x="276" y="448" on="1"/>
        <pt x="106" y="0" on="1"/>
        <pt x="25" y="0" on="1"/>
        <pt x="294" y="700" on="1"/>
        <pt x="382" y="700" on="1"/>
        <pt x="648" y="0" on="1"/>
        <pt x="563" y="0" on="1"/>
        <pt x="392" y="453" on="1"/>
        <pt x="376" y="499" on="0"/>
        <pt x="341" y="601" on="0"/>
      </contour>
      <contour>
        <pt x="338" y="192" on="1"/>
        <pt x="140" y="192" on="1"/>
        <pt x="169" y="270" on="1"/>
        <pt x="338" y="270" on="1"/>
      </contour>
      <contour>
        <pt x="532" y="192" on="1"/>
        <pt x="338" y="192" on="1"/>
        <pt x="338" y="270" on="1"/>
        <pt x="500" y="270" on="1"/>
      </contour>
      <contour>
        <pt x="336" y="760" on="1"/>
        <pt x="279" y="760" on="0"/>
        <pt x="197" y="838" on="0"/>
        <pt x="184" y="904" on="1"/>
        <pt x="243" y="912" on="1"/>
        <pt x="254" y="870" on="0"/>
        <pt x="306" y="822" on="0"/>
        <pt x="336" y="822" on="1"/>
        <pt x="367" y="822" on="0"/>
        <pt x="418" y="870" on="0"/>
        <pt x="430" y="912" on="1"/>
        <pt x="488" y="904" on="1"/>
        <pt x="475" y="838" on="0"/>
        <pt x="394" y="760" on="0"/>
      </contour>
    </TTGlyph>
    <TTGlyph name="Acircumflex" xMin="25" yMin="0" xMax="648" yMax="895">
      <contour>
        <pt x="326" y="650" on="1"/>
        <pt x="346" y="650" on="1"/>
        <pt x="329" y="601" on="0"/>
        <pt x="294" y="495" on="0"/>
        <pt x="276" y="448" on="1"/>
        <pt x="106" y="0" on="1"/>
        <pt x="25" y="0" on="1"/>
        <pt x="294" y="700" on="1"/>
        <pt x="382" y="700" on="1"/>
        <pt x="648" y="0" on="1"/>
        <pt x="563" y="0" on="1"/>
        <pt x="392" y="453" on="1"/>
        <pt x="376" y="499" on="0"/>
        <pt x="341" y="601" on="0"/>
      </contour>
      <contour>
        <pt x="338" y="192" on="1"/>
        <pt x="140" y="192" on="1"/>
        <pt x="169" y="270" on="1"/>
        <pt x="338" y="270" on="1"/>
      </contour>
      <contour>
        <pt x="532" y="192" on="1"/>
        <pt x="338" y="192" on="1"/>
        <pt x="338" y="270" on="1"/>
        <pt x="500" y="270" on="1"/>
      </contour>
      <contour>
        <pt x="458" y="759" on="1"/>
        <pt x="323" y="844" on="1"/>
        <pt x="352" y="844" on="1"/>
        <pt x="217" y="759" on="1"/>
        <pt x="185" y="789" on="1"/>
        <pt x="304" y="895" on="1"/>
        <pt x="371" y="895" on="1"/>
        <pt x="490" y="789" on="1"/>
      </contour>
    </TTGlyph>
    <TTGlyph name="Adieresis" xMin="25" yMin="0" xMax="648" yMax="870">
      <contour>
        <pt x="326" y="650" on="1"/>
        <pt x="346" y="650" on="1"/>
        <pt x="329" y="601" on="0"/>
        <pt x="294" y="495" on="0"/>
        <pt x="276" y="448" on="1"/>
        <pt x="106" y="0" on="1"/>
        <pt x="25" y="0" on="1"/>
        <pt x="294" y="700" on="1"/>
        <pt x="382" y="700" on="1"/>
        <pt x="648" y="0" on="1"/>
        <pt x="563" y="0" on="1"/>
        <pt x="392" y="453" on="1"/>
        <pt x="376" y="499" on="0"/>
        <pt x="341" y="601" on="0"/>
      </contour>
      <contour>
        <pt x="338" y="192" on="1"/>
        <pt x="140" y="192" on="1"/>
        <pt x="169" y="270" on="1"/>
        <pt x="338" y="270" on="1"/>
      </contour>
      <contour>
        <pt x="532" y="192" on="1"/>
        <pt x="338" y="192" on="1"/>
        <pt x="338" y="270" on="1"/>
        <pt x="500" y="270" on="1"/>
      </contour>
      <contour>
        <pt x="295" y="814" on="1"/>
        <pt x="295" y="790" on="0"/>
        <pt x="264" y="760" on="0"/>
        <pt x="237" y="760" on="1"/>
        <pt x="210" y="760" on="0"/>
        <pt x="180" y="788" on="0"/>
        <pt x="180" y="814" on="1"/>
        <pt x="180" y="839" on="0"/>
        <pt x="210" y="870" on="0"/>
        <pt x="237" y="870" on="1"/>
        <pt x="265" y="870" on="0"/>
        <pt x="295" y="840" on="0"/>
      </contour>
      <contour>
        <pt x="498" y="814" on="1"/>
        <pt x="498" y="790" on="0"/>
        <pt x="467" y="760" on="0"/>
        <pt x="440" y="760" on="1"/>
        <pt x="413" y="760" on="0"/>
        <pt x="383" y="788" on="0"/>
        <pt x="383" y="814" on="1"/>
        <pt x="383" y="839" on="0"/>
        <pt x="413" y="870" on="0"/>
        <pt x="440" y="870" on="1"/>
        <pt x="468" y="870" on="0"/>
        <pt x="498" y="840" on="0"/>
      </contour>
    </TTGlyph>
    <TTGlyph name="Agrave" xMin="25" yMin="0" xMax="648" yMax="921">
      <contour>
        <pt x="326" y="650" on="1"/>
        <pt x="346" y="650" on="1"/>
        <pt x="329" y="601" on="0"/>
        <pt x="294" y="495" on="0"/>
        <pt x="276" y="448" on="1"/>
        <pt x="106" y="0" on="1"/>
        <pt x="25" y="0" on="1"/>
        <pt x="294" y="700" on="1"/>
        <pt x="382" y="700" on="1"/>
        <pt x="648" y="0" on="1"/>
        <pt x="563" y="0" on="1"/>
        <pt x="392" y="453" on="1"/>
        <pt x="376" y="499" on="0"/>
        <pt x="341" y="601" on="0"/>
      </contour>
      <contour>
        <pt x="338" y="192" on="1"/>
        <pt x="140" y="192" on="1"/>
        <pt x="169" y="270" on="1"/>
        <pt x="338" y="270" on="1"/>
      </contour>
      <contour>
        <pt x="532" y="192" on="1"/>
        <pt x="338" y="192" on="1"/>
        <pt x="338" y="270" on="1"/>
        <pt x="500" y="270" on="1"/>
      </contour>
      <contour>
        <pt x="401" y="803" on="1"/>
        <pt x="374" y="762" on="1"/>
        <pt x="207" y="856" on="1"/>
        <pt x="258" y="921" on="1"/>
      </contour>
    </TTGlyph>
    <TTGlyph name="Amacron" xMin="25" yMin="0" xMax="648" yMax="834">
      <contour>
        <pt x="326" y="650" on="1"/>
        <pt x="346" y="650" on="1"/>
        <pt x="329" y="601" on="0"/>
        <pt x="294" y="495" on="0"/>
        <pt x="276" y="448" on="1"/>
        <pt x="106" y="0" on="1"/>
        <pt x="25" y="0" on="1"/>
        <pt x="294" y="700" on="1"/>
        <pt x="382" y="700" on="1"/>
        <pt x="648" y="0" on="1"/>
        <pt x="563" y="0" on="1"/>
        <pt x="392" y="453" on="1"/>
        <pt x="376" y="499" on="0"/>
        <pt x="341" y="601" on="0"/>
      </contour>
      <contour>
        <pt x="338" y="192" on="1"/>
        <pt x="140" y="192" on="1"/>
        <pt x="169" y="270" on="1"/>
        <pt x="338" y="270" on="1"/>
      </contour>
      <contour>
        <pt x="532" y="192" on="1"/>
        <pt x="338" y="192" on="1"/>
        <pt x="338" y="270" on="1"/>
        <pt x="500" y="270" on="1"/>
      </contour>
      <contour>
        <pt x="492" y="773" on="1"/>
        <pt x="185" y="773" on="1"/>
        <pt x="185" y="834" on="1"/>
        <pt x="492" y="834" on="1"/>
      </contour>
    </TTGlyph>
    <TTGlyph name="Aogonek" xMin="25" yMin="-221" xMax="666" yMax="700">
      <contour>
        <pt x="596" y="13" on="1"/>
        <pt x="562" y="2" on="1"/>
        <pt x="396" y="450" on="1"/>
        <pt x="385" y="478" on="0"/>
        <pt x="368" y="526" on="0"/>
        <pt x="355" y="566" on="1"/>
        <pt x="346" y="592" on="0"/>
        <pt x="334" y="630" on="0"/>
        <pt x="326" y="650" on="1"/>
        <pt x="342" y="652" on="1"/>
        <pt x="335" y="630" on="0"/>
        <pt x="321" y="590" on="0"/>
        <pt x="312" y="560" on="1"/>
        <pt x="298" y="522" on="0"/>
        <pt x="282" y="475" on="0"/>
        <pt x="272" y="448" on="1"/>
        <pt x="106" y="0" on="1"/>
        <pt x="25" y="0" on="1"/>
        <pt x="290" y="700" on="1"/>
        <pt x="384" y="700" on="1"/>
        <pt x="641" y="18" on="1"/>
        <pt x="636" y="0" on="1"/>
        <pt x="577" y="-24" on="0"/>
        <pt x="504" y="-80" on="0"/>
        <pt x="504" y="-110" on="1"/>
        <pt x="504" y="-131" on="0"/>
        <pt x="538" y="-161" on="0"/>
        <pt x="562" y="-161" on="1"/>
        <pt x="580" y="-161" on="0"/>
        <pt x="615" y="-145" on="0"/>
        <pt x="630" y="-132" on="1"/>
        <pt x="666" y="-174" on="1"/>
        <pt x="640" y="-197" on="0"/>
        <pt x="584" y="-221" on="0"/>
        <pt x="552" y="-221" on="1"/>
        <pt x="502" y="-221" on="0"/>
        <pt x="434" y="-162" on="0"/>
        <pt x="434" y="-118" on="1"/>
        <pt x="434" y="-66" on="0"/>
        <pt x="530" y="20" on="0"/>
        <pt x="596" y="41" on="1"/>
      </contour>
      <contour>
        <pt x="338" y="192" on="1"/>
        <pt x="154" y="192" on="1"/>
        <pt x="185" y="270" on="1"/>
        <pt x="338" y="270" on="1"/>
      </contour>
      <contour>
        <pt x="517" y="192" on="1"/>
        <pt x="338" y="192" on="1"/>
        <pt x="338" y="270" on="1"/>
        <pt x="499" y="270" on="1"/>
      </contour>
    </TTGlyph>
    <TTGlyph name="Aring" xMin="25" yMin="0" xMax="648" yMax="862">
      <contour>
        <pt x="326" y="650" on="1"/>
        <pt x="346" y="650" on="1"/>
        <pt x="329" y="601" on="0"/>
        <pt x="294" y="495" on="0"/>
        <pt x="276" y="448" on="1"/>
        <pt x="106" y="0" on="1"/>
        <pt x="25" y="0" on="1"/>
        <pt x="294" y="700" on="1"/>
        <pt x="382" y="700" on="1"/>
        <pt x="648" y="0" on="1"/>
        <pt x="563" y="0" on="1"/>
        <pt x="392" y="453" on="1"/>
        <pt x="376" y="499" on="0"/>
        <pt x="341" y="601" on="0"/>
      </contour>
      <contour>
        <pt x="338" y="192" on="1"/>
        <pt x="140" y="192" on="1"/>
        <pt x="169" y="270" on="1"/>
        <pt x="338" y="270" on="1"/>
      </contour>
      <contour>
        <pt x="532" y="192" on="1"/>
        <pt x="338" y="192" on="1"/>
        <pt x="338" y="270" on="1"/>
        <pt x="500" y="270" on="1"/>
      </contour>
      <contour>
        <pt x="446" y="756" on="1"/>
        <pt x="446" y="714" on="0"/>
        <pt x="380" y="651" on="0"/>
        <pt x="336" y="651" on="1"/>
        <pt x="293" y="651" on="0"/>
        <pt x="227" y="714" on="0"/>
        <pt x="227" y="756" on="1"/>
        <pt x="227" y="799" on="0"/>
        <pt x="292" y="862" on="0"/>
        <pt x="336" y="862" on="1"/>
        <pt x="380" y="862" on="0"/>
        <pt x="446" y="799" on="0"/>
      </contour>
      <contour>
        <pt x="277" y="756" on="1"/>
        <pt x="277" y="733" on="0"/>
        <pt x="312" y="700" on="0"/>
        <pt x="336" y="700" on="1"/>
        <pt x="361" y="700" on="0"/>
        <pt x="396" y="733" on="0"/>
        <pt x="396" y="756" on="1"/>
        <pt x="396" y="782" on="0"/>
        <pt x="361" y="813" on="0"/>
        <pt x="336" y="813" on="1"/>
        <pt x="310" y="813" on="0"/>
        <pt x="277" y="780" on="0"/>
      </contour>
    </TTGlyph>
    <TTGlyph name="Aringacute" xMin="25" yMin="0" xMax="648" yMax="1066">
      <contour>
        <pt x="326" y="650" on="1"/>
        <pt x="346" y="650" on="1"/>
        <pt x="329" y="601" on="0"/>
        <pt x="294" y="495" on="0"/>
        <pt x="276" y="448" on="1"/>
        <pt x="106" y="0" on="1"/>
        <pt x="25" y="0" on="1"/>
        <pt x="294" y="700" on="1"/>
        <pt x="382" y="700" on="1"/>
        <pt x="648" y="0" on="1"/>
        <pt x="563" y="0" on="1"/>
        <pt x="392" y="453" on="1"/>
        <pt x="376" y="499" on="0"/>
        <pt x="341" y="601" on="0"/>
      </contour>
      <contour>
        <pt x="338" y="192" on="1"/>
        <pt x="140" y="192" on="1"/>
        <pt x="169" y="270" on="1"/>
        <pt x="338" y="270" on="1"/>
      </contour>
      <contour>
        <pt x="532" y="192" on="1"/>
        <pt x="338" y="192" on="1"/>
        <pt x="338" y="270" on="1"/>
        <pt x="500" y="270" on="1"/>
      </contour>
      <contour>
        <pt x="446" y="756" on="1"/>
        <pt x="446" y="714" on="0"/>
        <pt x="380" y="651" on="0"/>
        <pt x="336" y="651" on="1"/>
        <pt x="293" y="651" on="0"/>
        <pt x="227" y="714" on="0"/>
        <pt x="227" y="756" on="1"/>
        <pt x="227" y="799" on="0"/>
        <pt x="292" y="862" on="0"/>
        <pt x="336" y="862" on="1"/>
        <pt x="380" y="862" on="0"/>
        <pt x="446" y="799" on="0"/>
      </contour>
      <contour>
        <pt x="277" y="756" on="1"/>
        <pt x="277" y="733" on="0"/>
        <pt x="312" y="700" on="0"/>
        <pt x="336" y="700" on="1"/>
        <pt x="361" y="700" on="0"/>
        <pt x="396" y="733" on="0"/>
        <pt x="396" y="756" on="1"/>
        <pt x="396" y="782" on="0"/>
        <pt x="361" y="813" on="0"/>
        <pt x="336" y="813" on="1"/>
        <pt x="310" y="813" on="0"/>
        <pt x="277" y="780" on="0"/>
      </contour>
      <contour>
        <pt x="466" y="1001" on="1"/>
        <pt x="299" y="908" on="1"/>
        <pt x="272" y="948" on="1"/>
        <pt x="414" y="1066" on="1"/>
      </contour>
    </TTGlyph>
    <TTGlyph name="Atilde" xMin="25" yMin="0" xMax="648" yMax="894">
      <contour>
        <pt x="326" y="650" on="1"/>
        <pt x="346" y="650" on="1"/>
        <pt x="329" y="601" on="0"/>
        <pt x="294" y="495" on="0"/>
        <pt x="276" y="448" on="1"/>
        <pt x="106" y="0" on="1"/>
        <pt x="25" y="0" on="1"/>
        <pt x="294" y="700" on="1"/>
        <pt x="382" y="700" on="1"/>
        <pt x="648" y="0" on="1"/>
        <pt x="563" y="0" on="1"/>
        <pt x="392" y="453" on="1"/>
        <pt x="376" y="499" on="0"/>
        <pt x="341" y="601" on="0"/>
      </contour>
      <contour>
        <pt x="338" y="192" on="1"/>
        <pt x="140" y="192" on="1"/>
        <pt x="169" y="270" on="1"/>
        <pt x="338" y="270" on="1"/>
      </contour>
      <contour>
        <pt x="532" y="192" on="1"/>
        <pt x="338" y="192" on="1"/>
        <pt x="338" y="270" on="1"/>
        <pt x="500" y="270" on="1"/>
      </contour>
      <contour>
        <pt x="240" y="794" on="1"/>
        <pt x="178" y="794" on="1"/>
        <pt x="178" y="840" on="0"/>
        <pt x="230" y="894" on="0"/>
        <pt x="271" y="894" on="1"/>
        <pt x="289" y="894" on="0"/>
        <pt x="327" y="882" on="0"/>
        <pt x="355" y="870" on="1"/>
        <pt x="373" y="861" on="0"/>
        <pt x="397" y="852" on="0"/>
        <pt x="406" y="852" on="1"/>
        <pt x="420" y="852" on="0"/>
        <pt x="438" y="874" on="0"/>
        <pt x="438" y="894" on="1"/>
        <pt x="498" y="894" on="1"/>
        <pt x="498" y="849" on="0"/>
        <pt x="450" y="792" on="0"/>
        <pt x="413" y="792" on="1"/>
        <pt x="394" y="792" on="0"/>
        <pt x="353" y="806" on="0"/>
        <pt x="323" y="818" on="1"/>
        <pt x="305" y="826" on="0"/>
        <pt x="281" y="834" on="0"/>
        <pt x="272" y="834" on="1"/>
        <pt x="258" y="834" on="0"/>
        <pt x="240" y="813" on="0"/>
      </contour>
    </TTGlyph>
    <TTGlyph name="B" xMin="103" yMin="0" xMax="622" yMax="700">
      <contour>
        <pt x="103" y="700" on="1"/>
        <pt x="387" y="700" on="1"/>
        <pt x="479" y="700" on="0"/>
        <pt x="585" y="606" on="0"/>
        <pt x="585" y="524" on="1"/>
        <pt x="585" y="451" on="0"/>
        <pt x="482" y="358" on="0"/>
        <pt x="397" y="357" on="1"/>
        <pt x="398" y="393" on="1"/>
        <pt x="495" y="393" on="0"/>
        <pt x="622" y="290" on="0"/>
        <pt x="622" y="206" on="1"/>
        <pt x="622" y="111" on="0"/>
        <pt x="500" y="0" on="0"/>
        <pt x="397" y="0" on="1"/>
        <pt x="103" y="0" on="1"/>
      </contour>
      <contour>
        <pt x="504" y="511" on="1"/>
        <pt x="504" y="562" on="0"/>
        <pt x="436" y="623" on="0"/>
        <pt x="374" y="623" on="1"/>
        <pt x="173" y="623" on="1"/>
        <pt x="182" y="651" on="1"/>
        <pt x="182" y="384" on="1"/>
        <pt x="174" y="400" on="1"/>
        <pt x="381" y="400" on="1"/>
        <pt x="434" y="401" on="0"/>
        <pt x="504" y="463" on="0"/>
      </contour>
      <contour>
        <pt x="540" y="203" on="1"/>
        <pt x="540" y="258" on="0"/>
        <pt x="454" y="322" on="0"/>
        <pt x="386" y="322" on="1"/>
        <pt x="178" y="322" on="1"/>
        <pt x="182" y="339" on="1"/>
        <pt x="182" y="54" on="1"/>
        <pt x="177" y="77" on="1"/>
        <pt x="391" y="77" on="1"/>
        <pt x="458" y="77" on="0"/>
        <pt x="540" y="146" on="0"/>
      </contour>
    </TTGlyph>
    <TTGlyph name="C" xMin="49" yMin="-10" xMax="644" yMax="706">
      <contour>
        <pt x="590" y="152" on="1"/>
        <pt x="631" y="86" on="1"/>
        <pt x="596" y="44" on="0"/>
        <pt x="462" y="-10" on="0"/>
        <pt x="392" y="-10" on="1"/>
        <pt x="242" y="-10" on="0"/>
        <pt x="49" y="192" on="0"/>
        <pt x="49" y="350" on="1"/>
        <pt x="49" y="502" on="0"/>
        <pt x="246" y="706" on="0"/>
        <pt x="392" y="706" on="1"/>
        <pt x="465" y="706" on="0"/>
        <pt x="606" y="638" on="0"/>
        <pt x="644" y="585" on="1"/>
        <pt x="590" y="528" on="1"/>
        <pt x="552" y="574" on="0"/>
        <pt x="446" y="626" on="0"/>
        <pt x="392" y="626" on="1"/>
        <pt x="280" y="626" on="0"/>
        <pt x="130" y="470" on="0"/>
        <pt x="130" y="350" on="1"/>
        <pt x="130" y="225" on="0"/>
        <pt x="282" y="70" on="0"/>
        <pt x="402" y="70" on="1"/>
        <pt x="456" y="70" on="0"/>
        <pt x="560" y="115" on="0"/>
      </contour>
    </TTGlyph>
    <TTGlyph name="Cacute" xMin="49" yMin="-10" xMax="644" yMax="919">
      <contour>
        <pt x="590" y="152" on="1"/>
        <pt x="631" y="86" on="1"/>
        <pt x="596" y="44" on="0"/>
        <pt x="462" y="-10" on="0"/>
        <pt x="392" y="-10" on="1"/>
        <pt x="242" y="-10" on="0"/>
        <pt x="49" y="192" on="0"/>
        <pt x="49" y="350" on="1"/>
        <pt x="49" y="502" on="0"/>
        <pt x="246" y="706" on="0"/>
        <pt x="392" y="706" on="1"/>
        <pt x="465" y="706" on="0"/>
        <pt x="606" y="638" on="0"/>
        <pt x="644" y="585" on="1"/>
        <pt x="590" y="528" on="1"/>
        <pt x="552" y="574" on="0"/>
        <pt x="446" y="626" on="0"/>
        <pt x="392" y="626" on="1"/>
        <pt x="280" y="626" on="0"/>
        <pt x="130" y="470" on="0"/>
        <pt x="130" y="350" on="1"/>
        <pt x="130" y="225" on="0"/>
        <pt x="282" y="70" on="0"/>
        <pt x="402" y="70" on="1"/>
        <pt x="456" y="70" on="0"/>
        <pt x="560" y="115" on="0"/>
      </contour>
      <contour>
        <pt x="498" y="854" on="1"/>
        <pt x="331" y="760" on="1"/>
        <pt x="304" y="801" on="1"/>
        <pt x="447" y="919" on="1"/>
      </contour>
    </TTGlyph>
    <TTGlyph name="Ccaron" xMin="49" yMin="-10" xMax="644" yMax="899">
      <contour>
        <pt x="590" y="152" on="1"/>
        <pt x="631" y="86" on="1"/>
        <pt x="596" y="44" on="0"/>
        <pt x="462" y="-10" on="0"/>
        <pt x="392" y="-10" on="1"/>
        <pt x="242" y="-10" on="0"/>
        <pt x="49" y="192" on="0"/>
        <pt x="49" y="350" on="1"/>
        <pt x="49" y="502" on="0"/>
        <pt x="246" y="706" on="0"/>
        <pt x="392" y="706" on="1"/>
        <pt x="465" y="706" on="0"/>
        <pt x="606" y="638" on="0"/>
        <pt x="644" y="585" on="1"/>
        <pt x="590" y="528" on="1"/>
        <pt x="552" y="574" on="0"/>
        <pt x="446" y="626" on="0"/>
        <pt x="392" y="626" on="1"/>
        <pt x="280" y="626" on="0"/>
        <pt x="130" y="470" on="0"/>
        <pt x="130" y="350" on="1"/>
        <pt x="130" y="225" on="0"/>
        <pt x="282" y="70" on="0"/>
        <pt x="402" y="70" on="1"/>
        <pt x="456" y="70" on="0"/>
        <pt x="560" y="115" on="0"/>
      </contour>
      <contour>
        <pt x="487" y="899" on="1"/>
        <pt x="356" y="814" on="1"/>
        <pt x="386" y="814" on="1"/>
        <pt x="255" y="899" on="1"/>
        <pt x="222" y="870" on="1"/>
        <pt x="334" y="763" on="1"/>
        <pt x="408" y="763" on="1"/>
        <pt x="520" y="870" on="1"/>
      </contour>
    </TTGlyph>
    <TTGlyph name="Ccedilla" xMin="49" yMin="-234" xMax="644" yMax="706">
      <contour>
        <pt x="590" y="152" on="1"/>
        <pt x="631" y="86" on="1"/>
        <pt x="596" y="44" on="0"/>
        <pt x="462" y="-10" on="0"/>
        <pt x="392" y="-10" on="1"/>
        <pt x="242" y="-10" on="0"/>
        <pt x="49" y="192" on="0"/>
        <pt x="49" y="350" on="1"/>
        <pt x="49" y="502" on="0"/>
        <pt x="246" y="706" on="0"/>
        <pt x="392" y="706" on="1"/>
        <pt x="465" y="706" on="0"/>
        <pt x="606" y="638" on="0"/>
        <pt x="644" y="585" on="1"/>
        <pt x="590" y="528" on="1"/>
        <pt x="552" y="574" on="0"/>
        <pt x="446" y="626" on="0"/>
        <pt x="392" y="626" on="1"/>
        <pt x="280" y="626" on="0"/>
        <pt x="130" y="470" on="0"/>
        <pt x="130" y="350" on="1"/>
        <pt x="130" y="225" on="0"/>
        <pt x="282" y="70" on="0"/>
        <pt x="402" y="70" on="1"/>
        <pt x="456" y="70" on="0"/>
        <pt x="560" y="115" on="0"/>
      </contour>
      <contour>
        <pt x="349" y="-92" on="1"/>
        <pt x="300" y="-86" on="1"/>
        <pt x="366" y="18" on="1"/>
        <pt x="418" y="18" on="1"/>
      </contour>
      <contour>
        <pt x="471" y="-134" on="1"/>
        <pt x="471" y="-157" on="0"/>
        <pt x="436" y="-202" on="0"/>
        <pt x="407" y="-216" on="1"/>
        <pt x="383" y="-226" on="0"/>
        <pt x="329" y="-235" on="0"/>
        <pt x="296" y="-234" on="1"/>
        <pt x="289" y="-192" on="1"/>
        <pt x="330" y="-190" on="0"/>
        <pt x="404" y="-160" on="0"/>
        <pt x="404" y="-136" on="1"/>
        <pt x="404" y="-120" on="0"/>
        <pt x="356" y="-96" on="0"/>
        <pt x="313" y="-96" on="1"/>
        <pt x="300" y="-88" on="1"/>
        <pt x="300" y="-86" on="1"/>
        <pt x="349" y="-46" on="1"/>
        <pt x="410" y="-54" on="0"/>
        <pt x="471" y="-98" on="0"/>
      </contour>
    </TTGlyph>
    <TTGlyph name="Ccircumflex" xMin="49" yMin="-10" xMax="644" yMax="895">
      <contour>
        <pt x="590" y="152" on="1"/>
        <pt x="631" y="86" on="1"/>
        <pt x="596" y="44" on="0"/>
        <pt x="462" y="-10" on="0"/>
        <pt x="392" y="-10" on="1"/>
        <pt x="242" y="-10" on="0"/>
        <pt x="49" y="192" on="0"/>
        <pt x="49" y="350" on="1"/>
        <pt x="49" y="502" on="0"/>
        <pt x="246" y="706" on="0"/>
        <pt x="392" y="706" on="1"/>
        <pt x="465" y="706" on="0"/>
        <pt x="606" y="638" on="0"/>
        <pt x="644" y="585" on="1"/>
        <pt x="590" y="528" on="1"/>
        <pt x="552" y="574" on="0"/>
        <pt x="446" y="626" on="0"/>
        <pt x="392" y="626" on="1"/>
        <pt x="280" y="626" on="0"/>
        <pt x="130" y="470" on="0"/>
        <pt x="130" y="350" on="1"/>
        <pt x="130" y="225" on="0"/>
        <pt x="282" y="70" on="0"/>
        <pt x="402" y="70" on="1"/>
        <pt x="456" y="70" on="0"/>
        <pt x="560" y="115" on="0"/>
      </contour>
      <contour>
        <pt x="493" y="759" on="1"/>
        <pt x="358" y="844" on="1"/>
        <pt x="388" y="844" on="1"/>
        <pt x="253" y="759" on="1"/>
        <pt x="220" y="789" on="1"/>
        <pt x="339" y="895" on="1"/>
        <pt x="407" y="895" on="1"/>
        <pt x="526" y="789" on="1"/>
      </contour>
    </TTGlyph>
    <TTGlyph name="Cdotaccent" xMin="49" yMin="-10" xMax="644" yMax="874">
      <contour>
        <pt x="590" y="152" on="1"/>
        <pt x="631" y="86" on="1"/>
        <pt x="596" y="44" on="0"/>
        <pt x="462" y="-10" on="0"/>
        <pt x="392" y="-10" on="1"/>
        <pt x="242" y="-10" on="0"/>
        <pt x="49" y="192" on="0"/>
        <pt x="49" y="350" on="1"/>
        <pt x="49" y="502" on="0"/>
        <pt x="246" y="706" on="0"/>
        <pt x="392" y="706" on="1"/>
        <pt x="465" y="706" on="0"/>
        <pt x="606" y="638" on="0"/>
        <pt x="644" y="585" on="1"/>
        <pt x="590" y="528" on="1"/>
        <pt x="552" y="574" on="0"/>
        <pt x="446" y="626" on="0"/>
        <pt x="392" y="626" on="1"/>
        <pt x="280" y="626" on="0"/>
        <pt x="130" y="470" on="0"/>
        <pt x="130" y="350" on="1"/>
        <pt x="130" y="225" on="0"/>
        <pt x="282" y="70" on="0"/>
        <pt x="402" y="70" on="1"/>
        <pt x="456" y="70" on="0"/>
        <pt x="560" y="115" on="0"/>
      </contour>
      <contour>
        <pt x="431" y="820" on="1"/>
        <pt x="431" y="795" on="0"/>
        <pt x="401" y="764" on="0"/>
        <pt x="374" y="764" on="1"/>
        <pt x="346" y="764" on="0"/>
        <pt x="316" y="794" on="0"/>
        <pt x="316" y="820" on="1"/>
        <pt x="316" y="844" on="0"/>
        <pt x="347" y="874" on="0"/>
        <pt x="374" y="874" on="1"/>
        <pt x="401" y="874" on="0"/>
        <pt x="431" y="846" on="0"/>
      </contour>
    </TTGlyph>
    <TTGlyph name="D" xMin="103" yMin="0" xMax="694" yMax="700">
      <contour>
        <pt x="103" y="700" on="1"/>
        <pt x="368" y="700" on="1"/>
        <pt x="510" y="700" on="0"/>
        <pt x="694" y="504" on="0"/>
        <pt x="694" y="350" on="1"/>
        <pt x="694" y="195" on="0"/>
        <pt x="510" y="0" on="0"/>
        <pt x="368" y="0" on="1"/>
        <pt x="103" y="0" on="1"/>
      </contour>
      <contour>
        <pt x="174" y="77" on="1"/>
        <pt x="362" y="77" on="1"/>
        <pt x="472" y="77" on="0"/>
        <pt x="613" y="227" on="0"/>
        <pt x="613" y="350" on="1"/>
        <pt x="613" y="472" on="0"/>
        <pt x="472" y="623" on="0"/>
        <pt x="362" y="623" on="1"/>
        <pt x="170" y="623" on="1"/>
        <pt x="182" y="635" on="1"/>
        <pt x="182" y="63" on="1"/>
      </contour>
    </TTGlyph>
    <TTGlyph name="Dcaron" xMin="103" yMin="0" xMax="694" yMax="899">
      <contour>
        <pt x="103" y="700" on="1"/>
        <pt x="368" y="700" on="1"/>
        <pt x="510" y="700" on="0"/>
        <pt x="694" y="504" on="0"/>
        <pt x="694" y="350" on="1"/>
        <pt x="694" y="195" on="0"/>
        <pt x="510" y="0" on="0"/>
        <pt x="368" y="0" on="1"/>
        <pt x="103" y="0" on="1"/>
      </contour>
      <contour>
        <pt x="174" y="77" on="1"/>
        <pt x="362" y="77" on="1"/>
        <pt x="472" y="77" on="0"/>
        <pt x="613" y="227" on="0"/>
        <pt x="613" y="350" on="1"/>
        <pt x="613" y="472" on="0"/>
        <pt x="472" y="623" on="0"/>
        <pt x="362" y="623" on="1"/>
        <pt x="170" y="623" on="1"/>
        <pt x="182" y="635" on="1"/>
        <pt x="182" y="63" on="1"/>
      </contour>
      <contour>
        <pt x="454" y="899" on="1"/>
        <pt x="323" y="814" on="1"/>
        <pt x="353" y="814" on="1"/>
        <pt x="222" y="899" on="1"/>
        <pt x="189" y="870" on="1"/>
        <pt x="301" y="763" on="1"/>
        <pt x="375" y="763" on="1"/>
        <pt x="487" y="870" on="1"/>
      </contour>
    </TTGlyph>
    <TTGlyph name="Dcroat" xMin="16" yMin="0" xMax="694" yMax="700">
      <contour>
        <pt x="103" y="700" on="1"/>
        <pt x="368" y="700" on="1"/>
        <pt x="510" y="700" on="0"/>
        <pt x="694" y="504" on="0"/>
        <pt x="694" y="350" on="1"/>
        <pt x="694" y="195" on="0"/>
        <pt x="510" y="0" on="0"/>
        <pt x="368" y="0" on="1"/>
        <pt x="103" y="0" on="1"/>
      </contour>
      <contour>
        <pt x="174" y="77" on="1"/>
        <pt x="362" y="77" on="1"/>
        <pt x="472" y="77" on="0"/>
        <pt x="613" y="227" on="0"/>
        <pt x="613" y="350" on="1"/>
        <pt x="613" y="472" on="0"/>
        <pt x="472" y="623" on="0"/>
        <pt x="362" y="623" on="1"/>
        <pt x="170" y="623" on="1"/>
        <pt x="182" y="635" on="1"/>
        <pt x="182" y="63" on="1"/>
      </contour>
      <contour>
        <pt x="284" y="319" on="1"/>
        <pt x="16" y="319" on="1"/>
        <pt x="16" y="386" on="1"/>
        <pt x="284" y="386" on="1"/>
      </contour>
    </TTGlyph>
    <TTGlyph name="E" xMin="103" yMin="0" xMax="527" yMax="700">
      <contour>
        <pt x="182" y="0" on="1"/>
        <pt x="103" y="0" on="1"/>
        <pt x="103" y="700" on="1"/>
        <pt x="182" y="700" on="1"/>
      </contour>
      <contour>
        <pt x="525" y="0" on="1"/>
        <pt x="140" y="0" on="1"/>
        <pt x="140" y="77" on="1"/>
        <pt x="525" y="77" on="1"/>
      </contour>
      <contour>
        <pt x="471" y="322" on="1"/>
        <pt x="140" y="322" on="1"/>
        <pt x="140" y="398" on="1"/>
        <pt x="471" y="398" on="1"/>
      </contour>
      <contour>
        <pt x="527" y="623" on="1"/>
        <pt x="140" y="623" on="1"/>
        <pt x="140" y="700" on="1"/>
        <pt x="527" y="700" on="1"/>
      </contour>
    </TTGlyph>
    <TTGlyph name="Eacute" xMin="103" yMin="0" xMax="527" yMax="919">
      <contour>
        <pt x="182" y="0" on="1"/>
        <pt x="103" y="0" on="1"/>
        <pt x="103" y="700" on="1"/>
        <pt x="182" y="700" on="1"/>
      </contour>
      <contour>
        <pt x="525" y="0" on="1"/>
        <pt x="140" y="0" on="1"/>
        <pt x="140" y="77" on="1"/>
        <pt x="525" y="77" on="1"/>
      </contour>
      <contour>
        <pt x="471" y="322" on="1"/>
        <pt x="140" y="322" on="1"/>
        <pt x="140" y="398" on="1"/>
        <pt x="471" y="398" on="1"/>
      </contour>
      <contour>
        <pt x="527" y="623" on="1"/>
        <pt x="140" y="623" on="1"/>
        <pt x="140" y="700" on="1"/>
        <pt x="527" y="700" on="1"/>
      </contour>
      <contour>
        <pt x="442" y="854" on="1"/>
        <pt x="275" y="760" on="1"/>
        <pt x="248" y="801" on="1"/>
        <pt x="391" y="919" on="1"/>
      </contour>
    </TTGlyph>
    <TTGlyph name="Ebreve" xMin="103" yMin="0" xMax="527" yMax="912">
      <contour>
        <pt x="182" y="0" on="1"/>
        <pt x="103" y="0" on="1"/>
        <pt x="103" y="700" on="1"/>
        <pt x="182" y="700" on="1"/>
      </contour>
      <contour>
        <pt x="525" y="0" on="1"/>
        <pt x="140" y="0" on="1"/>
        <pt x="140" y="77" on="1"/>
        <pt x="525" y="77" on="1"/>
      </contour>
      <contour>
        <pt x="471" y="322" on="1"/>
        <pt x="140" y="322" on="1"/>
        <pt x="140" y="398" on="1"/>
        <pt x="471" y="398" on="1"/>
      </contour>
      <contour>
        <pt x="527" y="623" on="1"/>
        <pt x="140" y="623" on="1"/>
        <pt x="140" y="700" on="1"/>
        <pt x="527" y="700" on="1"/>
      </contour>
      <contour>
        <pt x="314" y="760" on="1"/>
        <pt x="257" y="760" on="0"/>
        <pt x="176" y="838" on="0"/>
        <pt x="162" y="904" on="1"/>
        <pt x="221" y="912" on="1"/>
        <pt x="232" y="870" on="0"/>
        <pt x="284" y="822" on="0"/>
        <pt x="314" y="822" on="1"/>
        <pt x="345" y="822" on="0"/>
        <pt x="396" y="870" on="0"/>
        <pt x="408" y="912" on="1"/>
        <pt x="466" y="904" on="1"/>
        <pt x="454" y="838" on="0"/>
        <pt x="372" y="760" on="0"/>
      </contour>
    </TTGlyph>
    <TTGlyph name="Ecaron" xMin="103" yMin="0" xMax="527" yMax="899">
      <contour>
        <pt x="182" y="0" on="1"/>
        <pt x="103" y="0" on="1"/>
        <pt x="103" y="700" on="1"/>
        <pt x="182" y="700" on="1"/>
      </contour>
      <contour>
        <pt x="525" y="0" on="1"/>
        <pt x="140" y="0" on="1"/>
        <pt x="140" y="77" on="1"/>
        <pt x="525" y="77" on="1"/>
      </contour>
      <contour>
        <pt x="471" y="322" on="1"/>
        <pt x="140" y="322" on="1"/>
        <pt x="140" y="398" on="1"/>
        <pt x="471" y="398" on="1"/>
      </contour>
      <contour>
        <pt x="527" y="623" on="1"/>
        <pt x="140" y="623" on="1"/>
        <pt x="140" y="700" on="1"/>
        <pt x="527" y="700" on="1"/>
      </contour>
      <contour>
        <pt x="430" y="899" on="1"/>
        <pt x="299" y="814" on="1"/>
        <pt x="329" y="814" on="1"/>
        <pt x="198" y="899" on="1"/>
        <pt x="165" y="870" on="1"/>
        <pt x="277" y="763" on="1"/>
        <pt x="351" y="763" on="1"/>
        <pt x="463" y="870" on="1"/>
      </contour>
    </TTGlyph>
    <TTGlyph name="Ecircumflex" xMin="103" yMin="0" xMax="527" yMax="895">
      <contour>
        <pt x="182" y="0" on="1"/>
        <pt x="103" y="0" on="1"/>
        <pt x="103" y="700" on="1"/>
        <pt x="182" y="700" on="1"/>
      </contour>
      <contour>
        <pt x="525" y="0" on="1"/>
        <pt x="140" y="0" on="1"/>
        <pt x="140" y="77" on="1"/>
        <pt x="525" y="77" on="1"/>
      </contour>
      <contour>
        <pt x="471" y="322" on="1"/>
        <pt x="140" y="322" on="1"/>
        <pt x="140" y="398" on="1"/>
        <pt x="471" y="398" on="1"/>
      </contour>
      <contour>
        <pt x="527" y="623" on="1"/>
        <pt x="140" y="623" on="1"/>
        <pt x="140" y="700" on="1"/>
        <pt x="527" y="700" on="1"/>
      </contour>
      <contour>
        <pt x="436" y="759" on="1"/>
        <pt x="301" y="844" on="1"/>
        <pt x="330" y="844" on="1"/>
        <pt x="196" y="759" on="1"/>
        <pt x="163" y="789" on="1"/>
        <pt x="282" y="895" on="1"/>
        <pt x="350" y="895" on="1"/>
        <pt x="468" y="789" on="1"/>
      </contour>
    </TTGlyph>
    <TTGlyph name="Edieresis" xMin="103" yMin="0" xMax="527" yMax="870">
      <contour>
        <pt x="182" y="0" on="1"/>
        <pt x="103" y="0" on="1"/>
        <pt x="103" y="700" on="1"/>
        <pt x="182" y="700" on="1"/>
      </contour>
      <contour>
        <pt x="525" y="0" on="1"/>
        <pt x="140" y="0" on="1"/>
        <pt x="140" y="77" on="1"/>
        <pt x="525" y="77" on="1"/>
      </contour>
      <contour>
        <pt x="471" y="322" on="1"/>
        <pt x="140" y="322" on="1"/>
        <pt x="140" y="398" on="1"/>
        <pt x="471" y="398" on="1"/>
      </contour>
      <contour>
        <pt x="527" y="623" on="1"/>
        <pt x="140" y="623" on="1"/>
        <pt x="140" y="700" on="1"/>
        <pt x="527" y="700" on="1"/>
      </contour>
      <contour>
        <pt x="273" y="814" on="1"/>
        <pt x="273" y="790" on="0"/>
        <pt x="242" y="760" on="0"/>
        <pt x="216" y="760" on="1"/>
        <pt x="188" y="760" on="0"/>
        <pt x="158" y="788" on="0"/>
        <pt x="158" y="814" on="1"/>
        <pt x="158" y="839" on="0"/>
        <pt x="188" y="870" on="0"/>
        <pt x="216" y="870" on="1"/>
        <pt x="243" y="870" on="0"/>
        <pt x="273" y="840" on="0"/>
      </contour>
      <contour>
        <pt x="476" y="814" on="1"/>
        <pt x="476" y="790" on="0"/>
        <pt x="446" y="760" on="0"/>
        <pt x="418" y="760" on="1"/>
        <pt x="391" y="760" on="0"/>
        <pt x="361" y="788" on="0"/>
        <pt x="361" y="814" on="1"/>
        <pt x="361" y="839" on="0"/>
        <pt x="392" y="870" on="0"/>
        <pt x="418" y="870" on="1"/>
        <pt x="446" y="870" on="0"/>
        <pt x="476" y="840" on="0"/>
      </contour>
    </TTGlyph>
    <TTGlyph name="Edotaccent" xMin="103" yMin="0" xMax="527" yMax="874">
      <contour>
        <pt x="182" y="0" on="1"/>
        <pt x="103" y="0" on="1"/>
        <pt x="103" y="700" on="1"/>
        <pt x="182" y="700" on="1"/>
      </contour>
      <contour>
        <pt x="525" y="0" on="1"/>
        <pt x="140" y="0" on="1"/>
        <pt x="140" y="77" on="1"/>
        <pt x="525" y="77" on="1"/>
      </contour>
      <contour>
        <pt x="471" y="322" on="1"/>
        <pt x="140" y="322" on="1"/>
        <pt x="140" y="398" on="1"/>
        <pt x="471" y="398" on="1"/>
      </contour>
      <contour>
        <pt x="527" y="623" on="1"/>
        <pt x="140" y="623" on="1"/>
        <pt x="140" y="700" on="1"/>
        <pt x="527" y="700" on="1"/>
      </contour>
      <contour>
        <pt x="374" y="820" on="1"/>
        <pt x="374" y="795" on="0"/>
        <pt x="344" y="764" on="0"/>
        <pt x="316" y="764" on="1"/>
        <pt x="289" y="764" on="0"/>
        <pt x="259" y="794" on="0"/>
        <pt x="259" y="820" on="1"/>
        <pt x="259" y="844" on="0"/>
        <pt x="290" y="874" on="0"/>
        <pt x="316" y="874" on="1"/>
        <pt x="344" y="874" on="0"/>
        <pt x="374" y="846" on="0"/>
      </contour>
    </TTGlyph>
    <TTGlyph name="Egrave" xMin="103" yMin="0" xMax="527" yMax="921">
      <contour>
        <pt x="182" y="0" on="1"/>
        <pt x="103" y="0" on="1"/>
        <pt x="103" y="700" on="1"/>
        <pt x="182" y="700" on="1"/>
      </contour>
      <contour>
        <pt x="525" y="0" on="1"/>
        <pt x="140" y="0" on="1"/>
        <pt x="140" y="77" on="1"/>
        <pt x="525" y="77" on="1"/>
      </contour>
      <contour>
        <pt x="471" y="322" on="1"/>
        <pt x="140" y="322" on="1"/>
        <pt x="140" y="398" on="1"/>
        <pt x="471" y="398" on="1"/>
      </contour>
      <contour>
        <pt x="527" y="623" on="1"/>
        <pt x="140" y="623" on="1"/>
        <pt x="140" y="700" on="1"/>
        <pt x="527" y="700" on="1"/>
      </contour>
      <contour>
        <pt x="385" y="803" on="1"/>
        <pt x="357" y="762" on="1"/>
        <pt x="190" y="856" on="1"/>
        <pt x="242" y="921" on="1"/>
      </contour>
    </TTGlyph>
    <TTGlyph name="Emacron" xMin="103" yMin="0" xMax="527" yMax="834">
      <contour>
        <pt x="182" y="0" on="1"/>
        <pt x="103" y="0" on="1"/>
        <pt x="103" y="700" on="1"/>
        <pt x="182" y="700" on="1"/>
      </contour>
      <contour>
        <pt x="525" y="0" on="1"/>
        <pt x="140" y="0" on="1"/>
        <pt x="140" y="77" on="1"/>
        <pt x="525" y="77" on="1"/>
      </contour>
      <contour>
        <pt x="471" y="322" on="1"/>
        <pt x="140" y="322" on="1"/>
        <pt x="140" y="398" on="1"/>
        <pt x="471" y="398" on="1"/>
      </contour>
      <contour>
        <pt x="527" y="623" on="1"/>
        <pt x="140" y="623" on="1"/>
        <pt x="140" y="700" on="1"/>
        <pt x="527" y="700" on="1"/>
      </contour>
      <contour>
        <pt x="465" y="773" on="1"/>
        <pt x="158" y="773" on="1"/>
        <pt x="158" y="834" on="1"/>
        <pt x="465" y="834" on="1"/>
      </contour>
    </TTGlyph>
    <TTGlyph name="Eng" xMin="103" yMin="-196" xMax="684" yMax="700">
      <contour>
        <pt x="605" y="54" on="1"/>
        <pt x="618" y="-10" on="1"/>
        <pt x="154" y="598" on="1"/>
        <pt x="168" y="608" on="1"/>
        <pt x="170" y="570" on="0"/>
        <pt x="176" y="467" on="0"/>
        <pt x="178" y="434" on="1"/>
        <pt x="180" y="395" on="0"/>
        <pt x="182" y="336" on="0"/>
        <pt x="182" y="318" on="1"/>
        <pt x="182" y="0" on="1"/>
        <pt x="103" y="0" on="1"/>
        <pt x="103" y="700" on="1"/>
        <pt x="174" y="700" on="1"/>
        <pt x="634" y="92" on="1"/>
        <pt x="617" y="85" on="1"/>
        <pt x="610" y="160" on="0"/>
        <pt x="606" y="342" on="0"/>
        <pt x="605" y="444" on="1"/>
        <pt x="605" y="700" on="1"/>
        <pt x="684" y="700" on="1"/>
        <pt x="684" y="30" on="1"/>
        <pt x="684" y="-33" on="1"/>
        <pt x="684" y="-105" on="0"/>
        <pt x="594" y="-196" on="0"/>
        <pt x="520" y="-196" on="1"/>
        <pt x="490" y="-135" on="1"/>
        <pt x="550" y="-135" on="0"/>
        <pt x="605" y="-74" on="0"/>
        <pt x="605" y="-14" on="1"/>
      </contour>
    </TTGlyph>
    <TTGlyph name="Eogonek" xMin="103" yMin="-210" xMax="556" yMax="700">
      <contour>
        <pt x="182" y="0" on="1"/>
        <pt x="103" y="0" on="1"/>
        <pt x="103" y="700" on="1"/>
        <pt x="182" y="700" on="1"/>
      </contour>
      <contour>
        <pt x="525" y="0" on="1"/>
        <pt x="140" y="0" on="1"/>
        <pt x="140" y="77" on="1"/>
        <pt x="525" y="77" on="1"/>
      </contour>
      <contour>
        <pt x="471" y="322" on="1"/>
        <pt x="140" y="322" on="1"/>
        <pt x="140" y="398" on="1"/>
        <pt x="471" y="398" on="1"/>
      </contour>
      <contour>
        <pt x="527" y="623" on="1"/>
        <pt x="140" y="623" on="1"/>
        <pt x="140" y="700" on="1"/>
        <pt x="527" y="700" on="1"/>
      </contour>
      <contour>
        <pt x="450" y="-210" on="1"/>
        <pt x="404" y="-210" on="0"/>
        <pt x="338" y="-151" on="0"/>
        <pt x="338" y="-109" on="1"/>
        <pt x="338" y="-59" on="0"/>
        <pt x="424" y="15" on="0"/>
        <pt x="489" y="38" on="1"/>
        <pt x="525" y="30" on="1"/>
        <pt x="525" y="0" on="1"/>
        <pt x="477" y="-16" on="0"/>
        <pt x="407" y="-72" on="0"/>
        <pt x="407" y="-103" on="1"/>
        <pt x="407" y="-124" on="0"/>
        <pt x="436" y="-150" on="0"/>
        <pt x="458" y="-150" on="1"/>
        <pt x="475" y="-150" on="0"/>
        <pt x="502" y="-135" on="0"/>
        <pt x="512" y="-122" on="1"/>
        <pt x="556" y="-154" on="1"/>
        <pt x="542" y="-179" on="0"/>
        <pt x="484" y="-210" on="0"/>
      </contour>
    </TTGlyph>
    <TTGlyph name="Eth" xMin="16" yMin="0" xMax="694" yMax="700">
      <contour>
        <pt x="103" y="700" on="1"/>
        <pt x="368" y="700" on="1"/>
        <pt x="510" y="700" on="0"/>
        <pt x="694" y="504" on="0"/>
        <pt x="694" y="350" on="1"/>
        <pt x="694" y="195" on="0"/>
        <pt x="510" y="0" on="0"/>
        <pt x="368" y="0" on="1"/>
        <pt x="103" y="0" on="1"/>
      </contour>
      <contour>
        <pt x="174" y="77" on="1"/>
        <pt x="362" y="77" on="1"/>
        <pt x="472" y="77" on="0"/>
        <pt x="613" y="227" on="0"/>
        <pt x="613" y="350" on="1"/>
        <pt x="613" y="472" on="0"/>
        <pt x="472" y="623" on="0"/>
        <pt x="362" y="623" on="1"/>
        <pt x="170" y="623" on="1"/>
        <pt x="182" y="635" on="1"/>
        <pt x="182" y="63" on="1"/>
      </contour>
      <contour>
        <pt x="284" y="319" on="1"/>
        <pt x="16" y="319" on="1"/>
        <pt x="16" y="386" on="1"/>
        <pt x="284" y="386" on="1"/>
      </contour>
    </TTGlyph>
    <TTGlyph name="Euro" xMin="15" yMin="-10" xMax="592" yMax="706">
      <contour>
        <pt x="417" y="232" on="1"/>
        <pt x="15" y="233" on="1"/>
        <pt x="15" y="304" on="1"/>
        <pt x="417" y="303" on="1"/>
      </contour>
      <contour>
        <pt x="417" y="378" on="1"/>
        <pt x="15" y="378" on="1"/>
        <pt x="15" y="449" on="1"/>
        <pt x="417" y="448" on="1"/>
      </contour>
      <contour>
        <pt x="426" y="-10" on="1"/>
        <pt x="280" y="-10" on="0"/>
        <pt x="92" y="190" on="0"/>
        <pt x="92" y="348" on="1"/>
        <pt x="92" y="503" on="0"/>
        <pt x="283" y="706" on="0"/>
        <pt x="429" y="706" on="1"/>
        <pt x="473" y="706" on="0"/>
        <pt x="555" y="682" on="0"/>
        <pt x="590" y="659" on="1"/>
        <pt x="552" y="596" on="1"/>
        <pt x="525" y="613" on="0"/>
        <pt x="462" y="632" on="0"/>
        <pt x="429" y="632" on="1"/>
        <pt x="314" y="632" on="0"/>
        <pt x="166" y="472" on="0"/>
        <pt x="166" y="348" on="1"/>
        <pt x="166" y="222" on="0"/>
        <pt x="313" y="63" on="0"/>
        <pt x="428" y="63" on="1"/>
        <pt x="463" y="63" on="0"/>
        <pt x="528" y="84" on="0"/>
        <pt x="555" y="102" on="1"/>
        <pt x="592" y="39" on="1"/>
        <pt x="555" y="15" on="0"/>
        <pt x="469" y="-10" on="0"/>
      </contour>
    </TTGlyph>
    <TTGlyph name="F" xMin="103" yMin="0" xMax="544" yMax="700">
      <contour>
        <pt x="103" y="0" on="1"/>
        <pt x="103" y="700" on="1"/>
        <pt x="182" y="700" on="1"/>
        <pt x="182" y="0" on="1"/>
      </contour>
      <contour>
        <pt x="496" y="312" on="1"/>
        <pt x="142" y="312" on="1"/>
        <pt x="142" y="389" on="1"/>
        <pt x="496" y="389" on="1"/>
      </contour>
      <contour>
        <pt x="544" y="623" on="1"/>
        <pt x="142" y="623" on="1"/>
        <pt x="142" y="700" on="1"/>
        <pt x="544" y="700" on="1"/>
      </contour>
    </TTGlyph>
    <TTGlyph name="G" xMin="49" yMin="-10" xMax="724" yMax="706">
      <contour>
        <pt x="49" y="348" on="1"/>
        <pt x="49" y="502" on="0"/>
        <pt x="256" y="706" on="0"/>
        <pt x="408" y="706" on="1"/>
        <pt x="487" y="706" on="0"/>
        <pt x="634" y="639" on="0"/>
        <pt x="672" y="587" on="1"/>
        <pt x="620" y="533" on="1"/>
        <pt x="578" y="577" on="0"/>
        <pt x="464" y="628" on="0"/>
        <pt x="408" y="628" on="1"/>
        <pt x="290" y="628" on="0"/>
        <pt x="130" y="469" on="0"/>
        <pt x="130" y="348" on="1"/>
        <pt x="130" y="229" on="0"/>
        <pt x="296" y="68" on="0"/>
        <pt x="416" y="68" on="1"/>
        <pt x="511" y="68" on="0"/>
        <pt x="640" y="174" on="0"/>
        <pt x="640" y="253" on="1"/>
        <pt x="640" y="287" on="1"/>
        <pt x="657" y="267" on="1"/>
        <pt x="412" y="267" on="1"/>
        <pt x="412" y="346" on="1"/>
        <pt x="720" y="346" on="1"/>
        <pt x="722" y="333" on="0"/>
        <pt x="724" y="300" on="0"/>
        <pt x="724" y="286" on="1"/>
        <pt x="724" y="156" on="0"/>
        <pt x="544" y="-10" on="0"/>
        <pt x="413" y="-10" on="1"/>
        <pt x="258" y="-10" on="0"/>
        <pt x="49" y="194" on="0"/>
      </contour>
    </TTGlyph>
    <TTGlyph name="Gbreve" xMin="49" yMin="-10" xMax="724" yMax="912">
      <contour>
        <pt x="49" y="348" on="1"/>
        <pt x="49" y="502" on="0"/>
        <pt x="256" y="706" on="0"/>
        <pt x="408" y="706" on="1"/>
        <pt x="487" y="706" on="0"/>
        <pt x="634" y="639" on="0"/>
        <pt x="672" y="587" on="1"/>
        <pt x="620" y="533" on="1"/>
        <pt x="578" y="577" on="0"/>
        <pt x="464" y="628" on="0"/>
        <pt x="408" y="628" on="1"/>
        <pt x="290" y="628" on="0"/>
        <pt x="130" y="469" on="0"/>
        <pt x="130" y="348" on="1"/>
        <pt x="130" y="229" on="0"/>
        <pt x="296" y="68" on="0"/>
        <pt x="416" y="68" on="1"/>
        <pt x="511" y="68" on="0"/>
        <pt x="640" y="174" on="0"/>
        <pt x="640" y="253" on="1"/>
        <pt x="640" y="287" on="1"/>
        <pt x="657" y="267" on="1"/>
        <pt x="412" y="267" on="1"/>
        <pt x="412" y="346" on="1"/>
        <pt x="720" y="346" on="1"/>
        <pt x="722" y="333" on="0"/>
        <pt x="724" y="300" on="0"/>
        <pt x="724" y="286" on="1"/>
        <pt x="724" y="156" on="0"/>
        <pt x="544" y="-10" on="0"/>
        <pt x="413" y="-10" on="1"/>
        <pt x="258" y="-10" on="0"/>
        <pt x="49" y="194" on="0"/>
      </contour>
      <contour>
        <pt x="402" y="760" on="1"/>
        <pt x="344" y="760" on="0"/>
        <pt x="263" y="838" on="0"/>
        <pt x="250" y="904" on="1"/>
        <pt x="308" y="912" on="1"/>
        <pt x="320" y="870" on="0"/>
        <pt x="371" y="822" on="0"/>
        <pt x="402" y="822" on="1"/>
        <pt x="432" y="822" on="0"/>
        <pt x="484" y="870" on="0"/>
        <pt x="495" y="912" on="1"/>
        <pt x="554" y="904" on="1"/>
        <pt x="541" y="838" on="0"/>
        <pt x="459" y="760" on="0"/>
      </contour>
    </TTGlyph>
    <TTGlyph name="Gcaron" xMin="49" yMin="-10" xMax="724" yMax="899">
      <contour>
        <pt x="49" y="348" on="1"/>
        <pt x="49" y="502" on="0"/>
        <pt x="256" y="706" on="0"/>
        <pt x="408" y="706" on="1"/>
        <pt x="487" y="706" on="0"/>
        <pt x="634" y="639" on="0"/>
        <pt x="672" y="587" on="1"/>
        <pt x="620" y="533" on="1"/>
        <pt x="578" y="577" on="0"/>
        <pt x="464" y="628" on="0"/>
        <pt x="408" y="628" on="1"/>
        <pt x="290" y="628" on="0"/>
        <pt x="130" y="469" on="0"/>
        <pt x="130" y="348" on="1"/>
        <pt x="130" y="229" on="0"/>
        <pt x="296" y="68" on="0"/>
        <pt x="416" y="68" on="1"/>
        <pt x="511" y="68" on="0"/>
        <pt x="640" y="174" on="0"/>
        <pt x="640" y="253" on="1"/>
        <pt x="640" y="287" on="1"/>
        <pt x="657" y="267" on="1"/>
        <pt x="412" y="267" on="1"/>
        <pt x="412" y="346" on="1"/>
        <pt x="720" y="346" on="1"/>
        <pt x="722" y="333" on="0"/>
        <pt x="724" y="300" on="0"/>
        <pt x="724" y="286" on="1"/>
        <pt x="724" y="156" on="0"/>
        <pt x="544" y="-10" on="0"/>
        <pt x="413" y="-10" on="1"/>
        <pt x="258" y="-10" on="0"/>
        <pt x="49" y="194" on="0"/>
      </contour>
      <contour>
        <pt x="517" y="899" on="1"/>
        <pt x="386" y="814" on="1"/>
        <pt x="416" y="814" on="1"/>
        <pt x="285" y="899" on="1"/>
        <pt x="252" y="870" on="1"/>
        <pt x="364" y="763" on="1"/>
        <pt x="438" y="763" on="1"/>
        <pt x="550" y="870" on="1"/>
      </contour>
    </TTGlyph>
    <TTGlyph name="Gcircumflex" xMin="49" yMin="-10" xMax="724" yMax="895">
      <contour>
        <pt x="49" y="348" on="1"/>
        <pt x="49" y="502" on="0"/>
        <pt x="256" y="706" on="0"/>
        <pt x="408" y="706" on="1"/>
        <pt x="487" y="706" on="0"/>
        <pt x="634" y="639" on="0"/>
        <pt x="672" y="587" on="1"/>
        <pt x="620" y="533" on="1"/>
        <pt x="578" y="577" on="0"/>
        <pt x="464" y="628" on="0"/>
        <pt x="408" y="628" on="1"/>
        <pt x="290" y="628" on="0"/>
        <pt x="130" y="469" on="0"/>
        <pt x="130" y="348" on="1"/>
        <pt x="130" y="229" on="0"/>
        <pt x="296" y="68" on="0"/>
        <pt x="416" y="68" on="1"/>
        <pt x="511" y="68" on="0"/>
        <pt x="640" y="174" on="0"/>
        <pt x="640" y="253" on="1"/>
        <pt x="640" y="287" on="1"/>
        <pt x="657" y="267" on="1"/>
        <pt x="412" y="267" on="1"/>
        <pt x="412" y="346" on="1"/>
        <pt x="720" y="346" on="1"/>
        <pt x="722" y="333" on="0"/>
        <pt x="724" y="300" on="0"/>
        <pt x="724" y="286" on="1"/>
        <pt x="724" y="156" on="0"/>
        <pt x="544" y="-10" on="0"/>
        <pt x="413" y="-10" on="1"/>
        <pt x="258" y="-10" on="0"/>
        <pt x="49" y="194" on="0"/>
      </contour>
      <contour>
        <pt x="523" y="759" on="1"/>
        <pt x="388" y="844" on="1"/>
        <pt x="418" y="844" on="1"/>
        <pt x="283" y="759" on="1"/>
        <pt x="250" y="789" on="1"/>
        <pt x="369" y="895" on="1"/>
        <pt x="437" y="895" on="1"/>
        <pt x="556" y="789" on="1"/>
      </contour>
    </TTGlyph>
    <TTGlyph name="Gdotaccent" xMin="49" yMin="-10" xMax="724" yMax="874">
      <contour>
        <pt x="49" y="348" on="1"/>
        <pt x="49" y="502" on="0"/>
        <pt x="256" y="706" on="0"/>
        <pt x="408" y="706" on="1"/>
        <pt x="487" y="706" on="0"/>
        <pt x="634" y="639" on="0"/>
        <pt x="672" y="587" on="1"/>
        <pt x="620" y="533" on="1"/>
        <pt x="578" y="577" on="0"/>
        <pt x="464" y="628" on="0"/>
        <pt x="408" y="628" on="1"/>
        <pt x="290" y="628" on="0"/>
        <pt x="130" y="469" on="0"/>
        <pt x="130" y="348" on="1"/>
        <pt x="130" y="229" on="0"/>
        <pt x="296" y="68" on="0"/>
        <pt x="416" y="68" on="1"/>
        <pt x="511" y="68" on="0"/>
        <pt x="640" y="174" on="0"/>
        <pt x="640" y="253" on="1"/>
        <pt x="640" y="287" on="1"/>
        <pt x="657" y="267" on="1"/>
        <pt x="412" y="267" on="1"/>
        <pt x="412" y="346" on="1"/>
        <pt x="720" y="346" on="1"/>
        <pt x="722" y="333" on="0"/>
        <pt x="724" y="300" on="0"/>
        <pt x="724" y="286" on="1"/>
        <pt x="724" y="156" on="0"/>
        <pt x="544" y="-10" on="0"/>
        <pt x="413" y="-10" on="1"/>
        <pt x="258" y="-10" on="0"/>
        <pt x="49" y="194" on="0"/>
      </contour>
      <contour>
        <pt x="452" y="820" on="1"/>
        <pt x="452" y="795" on="0"/>
        <pt x="421" y="764" on="0"/>
        <pt x="394" y="764" on="1"/>
        <pt x="366" y="764" on="0"/>
        <pt x="336" y="794" on="0"/>
        <pt x="336" y="820" on="1"/>
        <pt x="336" y="844" on="0"/>
        <pt x="367" y="874" on="0"/>
        <pt x="394" y="874" on="1"/>
        <pt x="422" y="874" on="0"/>
        <pt x="452" y="846" on="0"/>
      </contour>
    </TTGlyph>
    <TTGlyph name="H" xMin="103" yMin="0" xMax="650" yMax="700">
      <contour>
        <pt x="103" y="700" on="1"/>
        <pt x="182" y="700" on="1"/>
        <pt x="182" y="0" on="1"/>
        <pt x="103" y="0" on="1"/>
      </contour>
      <contour>
        <pt x="570" y="700" on="1"/>
        <pt x="650" y="700" on="1"/>
        <pt x="650" y="0" on="1"/>
        <pt x="570" y="0" on="1"/>
      </contour>
      <contour>
        <pt x="141" y="310" on="1"/>
        <pt x="141" y="388" on="1"/>
        <pt x="604" y="388" on="1"/>
        <pt x="604" y="310" on="1"/>
      </contour>
    </TTGlyph>
    <TTGlyph name="Hbar" xMin="42" yMin="0" xMax="758" yMax="700">
      <contour>
        <pt x="136" y="502" on="1"/>
        <pt x="42" y="502" on="1"/>
        <pt x="42" y="577" on="1"/>
        <pt x="140" y="577" on="1"/>
        <pt x="219" y="572" on="1"/>
        <pt x="558" y="572" on="1"/>
        <pt x="642" y="577" on="1"/>
        <pt x="758" y="577" on="1"/>
        <pt x="758" y="502" on="1"/>
        <pt x="646" y="502" on="1"/>
        <pt x="570" y="507" on="1"/>
        <pt x="209" y="507" on="1"/>
      </contour>
      <contour>
        <pt x="127" y="700" on="1"/>
        <pt x="206" y="700" on="1"/>
        <pt x="206" y="0" on="1"/>
        <pt x="127" y="0" on="1"/>
      </contour>
      <contour>
        <pt x="594" y="700" on="1"/>
        <pt x="674" y="700" on="1"/>
        <pt x="674" y="0" on="1"/>
        <pt x="594" y="0" on="1"/>
      </contour>
      <contour>
        <pt x="165" y="310" on="1"/>
        <pt x="165" y="388" on="1"/>
        <pt x="628" y="388" on="1"/>
        <pt x="628" y="310" on="1"/>
      </contour>
    </TTGlyph>
    <TTGlyph name="Hcircumflex" xMin="103" yMin="0" xMax="650" yMax="895">
      <contour>
        <pt x="103" y="700" on="1"/>
        <pt x="182" y="700" on="1"/>
        <pt x="182" y="0" on="1"/>
        <pt x="103" y="0" on="1"/>
      </contour>
      <contour>
        <pt x="570" y="700" on="1"/>
        <pt x="650" y="700" on="1"/>
        <pt x="650" y="0" on="1"/>
        <pt x="570" y="0" on="1"/>
      </contour>
      <contour>
        <pt x="141" y="310" on="1"/>
        <pt x="141" y="388" on="1"/>
        <pt x="604" y="388" on="1"/>
        <pt x="604" y="310" on="1"/>
      </contour>
      <contour>
        <pt x="492" y="759" on="1"/>
        <pt x="357" y="844" on="1"/>
        <pt x="386" y="844" on="1"/>
        <pt x="251" y="759" on="1"/>
        <pt x="219" y="789" on="1"/>
        <pt x="338" y="895" on="1"/>
        <pt x="405" y="895" on="1"/>
        <pt x="524" y="789" on="1"/>
      </contour>
    </TTGlyph>
    <TTGlyph name="I" xMin="70" yMin="0" xMax="375" yMax="700">
      <contour>
        <pt x="262" y="700" on="1"/>
        <pt x="262" y="0" on="1"/>
        <pt x="183" y="0" on="1"/>
        <pt x="183" y="700" on="1"/>
        <pt x="210" y="700" on="0"/>
        <pt x="235" y="700" on="0"/>
      </contour>
      <contour>
        <pt x="375" y="700" on="1"/>
        <pt x="375" y="625" on="1"/>
        <pt x="70" y="625" on="1"/>
        <pt x="70" y="700" on="1"/>
      </contour>
      <contour>
        <pt x="375" y="75" on="1"/>
        <pt x="375" y="0" on="1"/>
        <pt x="70" y="0" on="1"/>
        <pt x="70" y="75" on="1"/>
      </contour>
    </TTGlyph>
    <TTGlyph name="I.ss01" xMin="114" yMin="0" xMax="194" yMax="700">
      <contour>
        <pt x="194" y="700" on="1"/>
        <pt x="194" y="0" on="1"/>
        <pt x="114" y="0" on="1"/>
        <pt x="114" y="700" on="1"/>
        <pt x="134" y="700" on="0"/>
        <pt x="174" y="700" on="0"/>
      </contour>
    </TTGlyph>
    <TTGlyph name="IJ" xMin="70" yMin="-10" xMax="1030" yMax="700">
      <contour>
        <pt x="262" y="700" on="1"/>
        <pt x="262" y="0" on="1"/>
        <pt x="183" y="0" on="1"/>
        <pt x="183" y="700" on="1"/>
        <pt x="210" y="700" on="0"/>
        <pt x="235" y="700" on="0"/>
      </contour>
      <contour>
        <pt x="375" y="700" on="1"/>
        <pt x="375" y="625" on="1"/>
        <pt x="70" y="625" on="1"/>
        <pt x="70" y="700" on="1"/>
      </contour>
      <contour>
        <pt x="375" y="75" on="1"/>
        <pt x="375" y="0" on="1"/>
        <pt x="70" y="0" on="1"/>
        <pt x="70" y="75" on="1"/>
      </contour>
      <contour>
        <pt x="708" y="-10" on="1"/>
        <pt x="641" y="-10" on="0"/>
        <pt x="534" y="58" on="0"/>
        <pt x="504" y="117" on="1"/>
        <pt x="556" y="172" on="1"/>
        <pt x="594" y="112" on="0"/>
        <pt x="666" y="68" on="0"/>
        <pt x="708" y="68" on="1"/>
        <pt x="770" y="68" on="0"/>
        <pt x="846" y="153" on="0"/>
        <pt x="846" y="220" on="1"/>
        <pt x="846" y="700" on="1"/>
        <pt x="928" y="700" on="1"/>
        <pt x="928" y="213" on="1"/>
        <pt x="928" y="117" on="0"/>
        <pt x="804" y="-10" on="0"/>
      </contour>
      <contour>
        <pt x="1030" y="700" on="1"/>
        <pt x="1030" y="625" on="1"/>
        <pt x="719" y="625" on="1"/>
        <pt x="719" y="700" on="1"/>
      </contour>
    </TTGlyph>
    <TTGlyph name="IJ.ss01" xMin="114" yMin="-10" xMax="778" yMax="700">
      <contour>
        <pt x="194" y="700" on="1"/>
        <pt x="194" y="0" on="1"/>
        <pt x="114" y="0" on="1"/>
        <pt x="114" y="700" on="1"/>
        <pt x="134" y="700" on="0"/>
        <pt x="174" y="700" on="0"/>
      </contour>
      <contour>
        <pt x="558" y="-10" on="1"/>
        <pt x="492" y="-10" on="0"/>
        <pt x="386" y="58" on="0"/>
        <pt x="355" y="117" on="1"/>
        <pt x="407" y="172" on="1"/>
        <pt x="444" y="112" on="0"/>
        <pt x="517" y="68" on="0"/>
        <pt x="559" y="68" on="1"/>
        <pt x="620" y="68" on="0"/>
        <pt x="698" y="153" on="0"/>
        <pt x="698" y="220" on="1"/>
        <pt x="698" y="700" on="1"/>
        <pt x="778" y="700" on="1"/>
        <pt x="778" y="213" on="1"/>
        <pt x="778" y="117" on="0"/>
        <pt x="656" y="-10" on="0"/>
      </contour>
    </TTGlyph>
    <TTGlyph name="IJacute" xMin="70" yMin="-10" xMax="1030" yMax="902">
      <contour>
        <pt x="262" y="700" on="1"/>
        <pt x="262" y="0" on="1"/>
        <pt x="183" y="0" on="1"/>
        <pt x="183" y="700" on="1"/>
        <pt x="210" y="700" on="0"/>
        <pt x="235" y="700" on="0"/>
      </contour>
      <contour>
        <pt x="375" y="700" on="1"/>
        <pt x="375" y="625" on="1"/>
        <pt x="70" y="625" on="1"/>
        <pt x="70" y="700" on="1"/>
      </contour>
      <contour>
        <pt x="375" y="75" on="1"/>
        <pt x="375" y="0" on="1"/>
        <pt x="70" y="0" on="1"/>
        <pt x="70" y="75" on="1"/>
      </contour>
      <contour>
        <pt x="708" y="-10" on="1"/>
        <pt x="641" y="-10" on="0"/>
        <pt x="534" y="58" on="0"/>
        <pt x="504" y="117" on="1"/>
        <pt x="556" y="172" on="1"/>
        <pt x="594" y="112" on="0"/>
        <pt x="666" y="68" on="0"/>
        <pt x="708" y="68" on="1"/>
        <pt x="770" y="68" on="0"/>
        <pt x="846" y="153" on="0"/>
        <pt x="846" y="220" on="1"/>
        <pt x="846" y="700" on="1"/>
        <pt x="928" y="700" on="1"/>
        <pt x="928" y="213" on="1"/>
        <pt x="928" y="117" on="0"/>
        <pt x="804" y="-10" on="0"/>
      </contour>
      <contour>
        <pt x="1030" y="700" on="1"/>
        <pt x="1030" y="625" on="1"/>
        <pt x="719" y="625" on="1"/>
        <pt x="719" y="700" on="1"/>
      </contour>
      <contour>
        <pt x="660" y="837" on="1"/>
        <pt x="493" y="744" on="1"/>
        <pt x="466" y="784" on="1"/>
        <pt x="608" y="902" on="1"/>
      </contour>
      <contour>
        <pt x="694" y="837" on="1"/>
        <pt x="526" y="744" on="1"/>
        <pt x="499" y="784" on="1"/>
        <pt x="642" y="902" on="1"/>
      </contour>
    </TTGlyph>
    <TTGlyph name="IJacute.ss01" xMin="112" yMin="-10" xMax="884" yMax="903">
      <contour>
        <pt x="194" y="700" on="1"/>
        <pt x="194" y="0" on="1"/>
        <pt x="114" y="0" on="1"/>
        <pt x="114" y="700" on="1"/>
        <pt x="134" y="700" on="0"/>
        <pt x="174" y="700" on="0"/>
      </contour>
      <contour>
        <pt x="558" y="-10" on="1"/>
        <pt x="492" y="-10" on="0"/>
        <pt x="386" y="58" on="0"/>
        <pt x="355" y="117" on="1"/>
        <pt x="407" y="172" on="1"/>
        <pt x="444" y="112" on="0"/>
        <pt x="517" y="68" on="0"/>
        <pt x="559" y="68" on="1"/>
        <pt x="620" y="68" on="0"/>
        <pt x="698" y="153" on="0"/>
        <pt x="698" y="220" on="1"/>
        <pt x="698" y="700" on="1"/>
        <pt x="778" y="700" on="1"/>
        <pt x="778" y="213" on="1"/>
        <pt x="778" y="117" on="0"/>
        <pt x="656" y="-10" on="0"/>
      </contour>
      <contour>
        <pt x="306" y="838" on="1"/>
        <pt x="140" y="744" on="1"/>
        <pt x="112" y="785" on="1"/>
        <pt x="255" y="903" on="1"/>
      </contour>
      <contour>
        <pt x="884" y="838" on="1"/>
        <pt x="718" y="744" on="1"/>
        <pt x="690" y="785" on="1"/>
        <pt x="833" y="903" on="1"/>
      </contour>
    </TTGlyph>
    <TTGlyph name="Iacute" xMin="70" yMin="0" xMax="375" yMax="919">
      <contour>
        <pt x="262" y="700" on="1"/>
        <pt x="262" y="0" on="1"/>
        <pt x="183" y="0" on="1"/>
        <pt x="183" y="700" on="1"/>
        <pt x="210" y="700" on="0"/>
        <pt x="235" y="700" on="0"/>
      </contour>
      <contour>
        <pt x="375" y="700" on="1"/>
        <pt x="375" y="625" on="1"/>
        <pt x="70" y="625" on="1"/>
        <pt x="70" y="700" on="1"/>
      </contour>
      <contour>
        <pt x="375" y="75" on="1"/>
        <pt x="375" y="0" on="1"/>
        <pt x="70" y="0" on="1"/>
        <pt x="70" y="75" on="1"/>
      </contour>
      <contour>
        <pt x="348" y="854" on="1"/>
        <pt x="181" y="760" on="1"/>
        <pt x="154" y="801" on="1"/>
        <pt x="297" y="919" on="1"/>
      </contour>
    </TTGlyph>
    <TTGlyph name="Iacute.ss01" xMin="90" yMin="0" xMax="284" yMax="919">
      <contour>
        <pt x="194" y="700" on="1"/>
        <pt x="194" y="0" on="1"/>
        <pt x="114" y="0" on="1"/>
        <pt x="114" y="700" on="1"/>
        <pt x="134" y="700" on="0"/>
        <pt x="174" y="700" on="0"/>
      </contour>
      <contour>
        <pt x="284" y="854" on="1"/>
        <pt x="117" y="760" on="1"/>
        <pt x="90" y="801" on="1"/>
        <pt x="233" y="919" on="1"/>
      </contour>
    </TTGlyph>
    <TTGlyph name="Iacute_J.loclNLD" xMin="70" yMin="-10" xMax="940" yMax="926">
      <contour>
        <pt x="262" y="700" on="1"/>
        <pt x="262" y="0" on="1"/>
        <pt x="183" y="0" on="1"/>
        <pt x="183" y="700" on="1"/>
        <pt x="210" y="700" on="0"/>
        <pt x="235" y="700" on="0"/>
      </contour>
      <contour>
        <pt x="375" y="700" on="1"/>
        <pt x="375" y="625" on="1"/>
        <pt x="70" y="625" on="1"/>
        <pt x="70" y="700" on="1"/>
      </contour>
      <contour>
        <pt x="375" y="75" on="1"/>
        <pt x="375" y="0" on="1"/>
        <pt x="70" y="0" on="1"/>
        <pt x="70" y="75" on="1"/>
      </contour>
      <contour>
        <pt x="348" y="854" on="1"/>
        <pt x="181" y="760" on="1"/>
        <pt x="154" y="801" on="1"/>
        <pt x="297" y="919" on="1"/>
      </contour>
      <contour>
        <pt x="618" y="-10" on="1"/>
        <pt x="551" y="-10" on="0"/>
        <pt x="444" y="58" on="0"/>
        <pt x="414" y="117" on="1"/>
        <pt x="466" y="172" on="1"/>
        <pt x="504" y="112" on="0"/>
        <pt x="576" y="68" on="0"/>
        <pt x="618" y="68" on="1"/>
        <pt x="680" y="68" on="0"/>
        <pt x="756" y="153" on="0"/>
        <pt x="756" y="220" on="1"/>
        <pt x="756" y="700" on="1"/>
        <pt x="838" y="700" on="1"/>
        <pt x="838" y="213" on="1"/>
        <pt x="838" y="117" on="0"/>
        <pt x="714" y="-10" on="0"/>
      </contour>
      <contour>
        <pt x="940" y="700" on="1"/>
        <pt x="940" y="625" on="1"/>
        <pt x="629" y="625" on="1"/>
        <pt x="629" y="700" on="1"/>
      </contour>
      <contour>
        <pt x="912" y="861" on="1"/>
        <pt x="744" y="768" on="1"/>
        <pt x="717" y="808" on="1"/>
        <pt x="860" y="926" on="1"/>
      </contour>
    </TTGlyph>
    <TTGlyph name="Ibreve" xMin="68" yMin="0" xMax="375" yMax="912">
      <contour>
        <pt x="262" y="700" on="1"/>
        <pt x="262" y="0" on="1"/>
        <pt x="183" y="0" on="1"/>
        <pt x="183" y="700" on="1"/>
        <pt x="210" y="700" on="0"/>
        <pt x="235" y="700" on="0"/>
      </contour>
      <contour>
        <pt x="375" y="700" on="1"/>
        <pt x="375" y="625" on="1"/>
        <pt x="70" y="625" on="1"/>
        <pt x="70" y="700" on="1"/>
      </contour>
      <contour>
        <pt x="375" y="75" on="1"/>
        <pt x="375" y="0" on="1"/>
        <pt x="70" y="0" on="1"/>
        <pt x="70" y="75" on="1"/>
      </contour>
      <contour>
        <pt x="220" y="760" on="1"/>
        <pt x="163" y="760" on="0"/>
        <pt x="82" y="838" on="0"/>
        <pt x="68" y="904" on="1"/>
        <pt x="127" y="912" on="1"/>
        <pt x="138" y="870" on="0"/>
        <pt x="190" y="822" on="0"/>
        <pt x="220" y="822" on="1"/>
        <pt x="251" y="822" on="0"/>
        <pt x="302" y="870" on="0"/>
        <pt x="314" y="912" on="1"/>
        <pt x="372" y="904" on="1"/>
        <pt x="360" y="838" on="0"/>
        <pt x="278" y="760" on="0"/>
      </contour>
    </TTGlyph>
    <TTGlyph name="Ibreve.ss01" xMin="0" yMin="0" xMax="304" yMax="912">
      <contour>
        <pt x="194" y="700" on="1"/>
        <pt x="194" y="0" on="1"/>
        <pt x="114" y="0" on="1"/>
        <pt x="114" y="700" on="1"/>
        <pt x="134" y="700" on="0"/>
        <pt x="174" y="700" on="0"/>
      </contour>
      <contour>
        <pt x="152" y="760" on="1"/>
        <pt x="94" y="760" on="0"/>
        <pt x="13" y="838" on="0"/>
        <pt x="0" y="904" on="1"/>
        <pt x="58" y="912" on="1"/>
        <pt x="70" y="870" on="0"/>
        <pt x="122" y="822" on="0"/>
        <pt x="152" y="822" on="1"/>
        <pt x="182" y="822" on="0"/>
        <pt x="234" y="870" on="0"/>
        <pt x="246" y="912" on="1"/>
        <pt x="304" y="904" on="1"/>
        <pt x="291" y="838" on="0"/>
        <pt x="210" y="760" on="0"/>
      </contour>
    </TTGlyph>
    <TTGlyph name="Icircumflex" xMin="69" yMin="0" xMax="375" yMax="895">
      <contour>
        <pt x="262" y="700" on="1"/>
        <pt x="262" y="0" on="1"/>
        <pt x="183" y="0" on="1"/>
        <pt x="183" y="700" on="1"/>
        <pt x="210" y="700" on="0"/>
        <pt x="235" y="700" on="0"/>
      </contour>
      <contour>
        <pt x="375" y="700" on="1"/>
        <pt x="375" y="625" on="1"/>
        <pt x="70" y="625" on="1"/>
        <pt x="70" y="700" on="1"/>
      </contour>
      <contour>
        <pt x="375" y="75" on="1"/>
        <pt x="375" y="0" on="1"/>
        <pt x="70" y="0" on="1"/>
        <pt x="70" y="75" on="1"/>
      </contour>
      <contour>
        <pt x="342" y="759" on="1"/>
        <pt x="207" y="844" on="1"/>
        <pt x="236" y="844" on="1"/>
        <pt x="102" y="759" on="1"/>
        <pt x="69" y="789" on="1"/>
        <pt x="188" y="895" on="1"/>
        <pt x="256" y="895" on="1"/>
        <pt x="374" y="789" on="1"/>
      </contour>
    </TTGlyph>
    <TTGlyph name="Icircumflex.ss01" xMin="0" yMin="0" xMax="306" yMax="895">
      <contour>
        <pt x="194" y="700" on="1"/>
        <pt x="194" y="0" on="1"/>
        <pt x="114" y="0" on="1"/>
        <pt x="114" y="700" on="1"/>
        <pt x="134" y="700" on="0"/>
        <pt x="174" y="700" on="0"/>
      </contour>
      <contour>
        <pt x="274" y="759" on="1"/>
        <pt x="138" y="844" on="1"/>
        <pt x="168" y="844" on="1"/>
        <pt x="33" y="759" on="1"/>
        <pt x="0" y="789" on="1"/>
        <pt x="120" y="895" on="1"/>
        <pt x="187" y="895" on="1"/>
        <pt x="306" y="789" on="1"/>
      </contour>
    </TTGlyph>
    <TTGlyph name="Idieresis" xMin="64" yMin="0" xMax="382" yMax="870">
      <contour>
        <pt x="262" y="700" on="1"/>
        <pt x="262" y="0" on="1"/>
        <pt x="183" y="0" on="1"/>
        <pt x="183" y="700" on="1"/>
        <pt x="210" y="700" on="0"/>
        <pt x="235" y="700" on="0"/>
      </contour>
      <contour>
        <pt x="375" y="700" on="1"/>
        <pt x="375" y="625" on="1"/>
        <pt x="70" y="625" on="1"/>
        <pt x="70" y="700" on="1"/>
      </contour>
      <contour>
        <pt x="375" y="75" on="1"/>
        <pt x="375" y="0" on="1"/>
        <pt x="70" y="0" on="1"/>
        <pt x="70" y="75" on="1"/>
      </contour>
      <contour>
        <pt x="179" y="814" on="1"/>
        <pt x="179" y="790" on="0"/>
        <pt x="148" y="760" on="0"/>
        <pt x="122" y="760" on="1"/>
        <pt x="94" y="760" on="0"/>
        <pt x="64" y="788" on="0"/>
        <pt x="64" y="814" on="1"/>
        <pt x="64" y="839" on="0"/>
        <pt x="94" y="870" on="0"/>
        <pt x="122" y="870" on="1"/>
        <pt x="149" y="870" on="0"/>
        <pt x="179" y="840" on="0"/>
      </contour>
      <contour>
        <pt x="382" y="814" on="1"/>
        <pt x="382" y="790" on="0"/>
        <pt x="352" y="760" on="0"/>
        <pt x="324" y="760" on="1"/>
        <pt x="297" y="760" on="0"/>
        <pt x="267" y="788" on="0"/>
        <pt x="267" y="814" on="1"/>
        <pt x="267" y="839" on="0"/>
        <pt x="298" y="870" on="0"/>
        <pt x="324" y="870" on="1"/>
        <pt x="352" y="870" on="0"/>
        <pt x="382" y="840" on="0"/>
      </contour>
    </TTGlyph>
    <TTGlyph name="Idieresis.ss01" xMin="-4" yMin="0" xMax="314" yMax="870">
      <contour>
        <pt x="194" y="700" on="1"/>
        <pt x="194" y="0" on="1"/>
        <pt x="114" y="0" on="1"/>
        <pt x="114" y="700" on="1"/>
        <pt x="134" y="700" on="0"/>
        <pt x="174" y="700" on="0"/>
      </contour>
      <contour>
        <pt x="110" y="814" on="1"/>
        <pt x="110" y="790" on="0"/>
        <pt x="80" y="760" on="0"/>
        <pt x="53" y="760" on="1"/>
        <pt x="26" y="760" on="0"/>
        <pt x="-4" y="788" on="0"/>
        <pt x="-4" y="814" on="1"/>
        <pt x="-4" y="839" on="0"/>
        <pt x="26" y="870" on="0"/>
        <pt x="53" y="870" on="1"/>
        <pt x="80" y="870" on="0"/>
        <pt x="110" y="840" on="0"/>
      </contour>
      <contour>
        <pt x="314" y="814" on="1"/>
        <pt x="314" y="790" on="0"/>
        <pt x="283" y="760" on="0"/>
        <pt x="256" y="760" on="1"/>
        <pt x="228" y="760" on="0"/>
        <pt x="198" y="788" on="0"/>
        <pt x="198" y="814" on="1"/>
        <pt x="198" y="839" on="0"/>
        <pt x="229" y="870" on="0"/>
        <pt x="256" y="870" on="1"/>
        <pt x="284" y="870" on="0"/>
        <pt x="314" y="840" on="0"/>
      </contour>
    </TTGlyph>
    <TTGlyph name="Idotaccent" xMin="70" yMin="0" xMax="375" yMax="874">
      <contour>
        <pt x="262" y="700" on="1"/>
        <pt x="262" y="0" on="1"/>
        <pt x="183" y="0" on="1"/>
        <pt x="183" y="700" on="1"/>
        <pt x="210" y="700" on="0"/>
        <pt x="235" y="700" on="0"/>
      </contour>
      <contour>
        <pt x="375" y="700" on="1"/>
        <pt x="375" y="625" on="1"/>
        <pt x="70" y="625" on="1"/>
        <pt x="70" y="700" on="1"/>
      </contour>
      <contour>
        <pt x="375" y="75" on="1"/>
        <pt x="375" y="0" on="1"/>
        <pt x="70" y="0" on="1"/>
        <pt x="70" y="75" on="1"/>
      </contour>
      <contour>
        <pt x="280" y="820" on="1"/>
        <pt x="280" y="795" on="0"/>
        <pt x="250" y="764" on="0"/>
        <pt x="222" y="764" on="1"/>
        <pt x="195" y="764" on="0"/>
        <pt x="165" y="794" on="0"/>
        <pt x="165" y="820" on="1"/>
        <pt x="165" y="844" on="0"/>
        <pt x="196" y="874" on="0"/>
        <pt x="222" y="874" on="1"/>
        <pt x="250" y="874" on="0"/>
        <pt x="280" y="846" on="0"/>
      </contour>
    </TTGlyph>
    <TTGlyph name="Idotaccent.ss01" xMin="96" yMin="0" xMax="212" yMax="874">
      <contour>
        <pt x="194" y="700" on="1"/>
        <pt x="194" y="0" on="1"/>
        <pt x="114" y="0" on="1"/>
        <pt x="114" y="700" on="1"/>
        <pt x="134" y="700" on="0"/>
        <pt x="174" y="700" on="0"/>
      </contour>
      <contour>
        <pt x="212" y="820" on="1"/>
        <pt x="212" y="795" on="0"/>
        <pt x="181" y="764" on="0"/>
        <pt x="154" y="764" on="1"/>
        <pt x="126" y="764" on="0"/>
        <pt x="96" y="794" on="0"/>
        <pt x="96" y="820" on="1"/>
        <pt x="96" y="844" on="0"/>
        <pt x="127" y="874" on="0"/>
        <pt x="154" y="874" on="1"/>
        <pt x="182" y="874" on="0"/>
        <pt x="212" y="846" on="0"/>
      </contour>
    </TTGlyph>
    <TTGlyph name="Igrave" xMin="70" yMin="0" xMax="375" yMax="921">
      <contour>
        <pt x="262" y="700" on="1"/>
        <pt x="262" y="0" on="1"/>
        <pt x="183" y="0" on="1"/>
        <pt x="183" y="700" on="1"/>
        <pt x="210" y="700" on="0"/>
        <pt x="235" y="700" on="0"/>
      </contour>
      <contour>
        <pt x="375" y="700" on="1"/>
        <pt x="375" y="625" on="1"/>
        <pt x="70" y="625" on="1"/>
        <pt x="70" y="700" on="1"/>
      </contour>
      <contour>
        <pt x="375" y="75" on="1"/>
        <pt x="375" y="0" on="1"/>
        <pt x="70" y="0" on="1"/>
        <pt x="70" y="75" on="1"/>
      </contour>
      <contour>
        <pt x="294" y="803" on="1"/>
        <pt x="267" y="762" on="1"/>
        <pt x="100" y="856" on="1"/>
        <pt x="151" y="921" on="1"/>
      </contour>
    </TTGlyph>
    <TTGlyph name="Igrave.ss01" xMin="38" yMin="0" xMax="233" yMax="921">
      <contour>
        <pt x="194" y="700" on="1"/>
        <pt x="194" y="0" on="1"/>
        <pt x="114" y="0" on="1"/>
        <pt x="114" y="700" on="1"/>
        <pt x="134" y="700" on="0"/>
        <pt x="174" y="700" on="0"/>
      </contour>
      <contour>
        <pt x="233" y="803" on="1"/>
        <pt x="205" y="762" on="1"/>
        <pt x="38" y="856" on="1"/>
        <pt x="90" y="921" on="1"/>
      </contour>
    </TTGlyph>
    <TTGlyph name="Imacron" xMin="69" yMin="0" xMax="376" yMax="834">
      <contour>
        <pt x="262" y="700" on="1"/>
        <pt x="262" y="0" on="1"/>
        <pt x="183" y="0" on="1"/>
        <pt x="183" y="700" on="1"/>
        <pt x="210" y="700" on="0"/>
        <pt x="235" y="700" on="0"/>
      </contour>
      <contour>
        <pt x="375" y="700" on="1"/>
        <pt x="375" y="625" on="1"/>
        <pt x="70" y="625" on="1"/>
        <pt x="70" y="700" on="1"/>
      </contour>
      <contour>
        <pt x="375" y="75" on="1"/>
        <pt x="375" y="0" on="1"/>
        <pt x="70" y="0" on="1"/>
        <pt x="70" y="75" on="1"/>
      </contour>
      <contour>
        <pt x="376" y="773" on="1"/>
        <pt x="69" y="773" on="1"/>
        <pt x="69" y="834" on="1"/>
        <pt x="376" y="834" on="1"/>
      </contour>
    </TTGlyph>
    <TTGlyph name="Imacron.ss01" xMin="0" yMin="0" xMax="308" yMax="847">
      <contour>
        <pt x="194" y="700" on="1"/>
        <pt x="194" y="0" on="1"/>
        <pt x="114" y="0" on="1"/>
        <pt x="114" y="700" on="1"/>
        <pt x="134" y="700" on="0"/>
        <pt x="174" y="700" on="0"/>
      </contour>
      <contour>
        <pt x="308" y="786" on="1"/>
        <pt x="0" y="786" on="1"/>
        <pt x="0" y="847" on="1"/>
        <pt x="308" y="847" on="1"/>
      </contour>
    </TTGlyph>
    <TTGlyph name="Iogonek" xMin="70" yMin="-210" xMax="396" yMax="700">
      <contour>
        <pt x="262" y="700" on="1"/>
        <pt x="262" y="0" on="1"/>
        <pt x="183" y="0" on="1"/>
        <pt x="183" y="700" on="1"/>
        <pt x="210" y="700" on="0"/>
        <pt x="235" y="700" on="0"/>
      </contour>
      <contour>
        <pt x="375" y="700" on="1"/>
        <pt x="375" y="625" on="1"/>
        <pt x="70" y="625" on="1"/>
        <pt x="70" y="700" on="1"/>
      </contour>
      <contour>
        <pt x="375" y="75" on="1"/>
        <pt x="375" y="0" on="1"/>
        <pt x="70" y="0" on="1"/>
        <pt x="70" y="75" on="1"/>
      </contour>
      <contour>
        <pt x="289" y="-210" on="1"/>
        <pt x="244" y="-210" on="0"/>
        <pt x="177" y="-151" on="0"/>
        <pt x="177" y="-109" on="1"/>
        <pt x="177" y="-59" on="0"/>
        <pt x="264" y="15" on="0"/>
        <pt x="328" y="38" on="1"/>
        <pt x="364" y="30" on="1"/>
        <pt x="364" y="0" on="1"/>
        <pt x="316" y="-16" on="0"/>
        <pt x="246" y="-72" on="0"/>
        <pt x="246" y="-103" on="1"/>
        <pt x="246" y="-124" on="0"/>
        <pt x="276" y="-150" on="0"/>
        <pt x="298" y="-150" on="1"/>
        <pt x="314" y="-150" on="0"/>
        <pt x="341" y="-135" on="0"/>
        <pt x="351" y="-122" on="1"/>
        <pt x="396" y="-154" on="1"/>
        <pt x="381" y="-179" on="0"/>
        <pt x="324" y="-210" on="0"/>
      </contour>
    </TTGlyph>
    <TTGlyph name="Iogonek.ss01" xMin="26" yMin="-220" xMax="237" yMax="700">
      <contour>
        <pt x="194" y="700" on="1"/>
        <pt x="194" y="0" on="1"/>
        <pt x="114" y="0" on="1"/>
        <pt x="114" y="700" on="1"/>
        <pt x="134" y="700" on="0"/>
        <pt x="174" y="700" on="0"/>
      </contour>
      <contour>
        <pt x="131" y="-220" on="1"/>
        <pt x="88" y="-220" on="0"/>
        <pt x="26" y="-162" on="0"/>
        <pt x="26" y="-120" on="1"/>
        <pt x="26" y="-72" on="0"/>
        <pt x="89" y="7" on="0"/>
        <pt x="155" y="37" on="1"/>
        <pt x="184" y="28" on="1"/>
        <pt x="194" y="0" on="1"/>
        <pt x="146" y="-20" on="0"/>
        <pt x="94" y="-81" on="0"/>
        <pt x="94" y="-112" on="1"/>
        <pt x="94" y="-132" on="0"/>
        <pt x="119" y="-160" on="0"/>
        <pt x="142" y="-160" on="1"/>
        <pt x="156" y="-160" on="0"/>
        <pt x="180" y="-146" on="0"/>
        <pt x="192" y="-130" on="1"/>
        <pt x="237" y="-162" on="1"/>
        <pt x="222" y="-187" on="0"/>
        <pt x="167" y="-220" on="0"/>
      </contour>
    </TTGlyph>
    <TTGlyph name="Itilde" xMin="63" yMin="0" xMax="383" yMax="894">
      <contour>
        <pt x="262" y="700" on="1"/>
        <pt x="262" y="0" on="1"/>
        <pt x="183" y="0" on="1"/>
        <pt x="183" y="700" on="1"/>
        <pt x="210" y="700" on="0"/>
        <pt x="235" y="700" on="0"/>
      </contour>
      <contour>
        <pt x="375" y="700" on="1"/>
        <pt x="375" y="625" on="1"/>
        <pt x="70" y="625" on="1"/>
        <pt x="70" y="700" on="1"/>
      </contour>
      <contour>
        <pt x="375" y="75" on="1"/>
        <pt x="375" y="0" on="1"/>
        <pt x="70" y="0" on="1"/>
        <pt x="70" y="75" on="1"/>
      </contour>
      <contour>
        <pt x="124" y="794" on="1"/>
        <pt x="63" y="794" on="1"/>
        <pt x="63" y="840" on="0"/>
        <pt x="114" y="894" on="0"/>
        <pt x="155" y="894" on="1"/>
        <pt x="174" y="894" on="0"/>
        <pt x="211" y="882" on="0"/>
        <pt x="239" y="870" on="1"/>
        <pt x="258" y="861" on="0"/>
        <pt x="281" y="852" on="0"/>
        <pt x="291" y="852" on="1"/>
        <pt x="305" y="852" on="0"/>
        <pt x="322" y="874" on="0"/>
        <pt x="322" y="894" on="1"/>
        <pt x="383" y="894" on="1"/>
        <pt x="383" y="849" on="0"/>
        <pt x="334" y="792" on="0"/>
        <pt x="297" y="792" on="1"/>
        <pt x="278" y="792" on="0"/>
        <pt x="238" y="806" on="0"/>
        <pt x="207" y="818" on="1"/>
        <pt x="189" y="826" on="0"/>
        <pt x="165" y="834" on="0"/>
        <pt x="156" y="834" on="1"/>
        <pt x="143" y="834" on="0"/>
        <pt x="124" y="813" on="0"/>
      </contour>
    </TTGlyph>
    <TTGlyph name="Itilde.ss01" xMin="-6" yMin="0" xMax="314" yMax="894">
      <contour>
        <pt x="194" y="700" on="1"/>
        <pt x="194" y="0" on="1"/>
        <pt x="114" y="0" on="1"/>
        <pt x="114" y="700" on="1"/>
        <pt x="134" y="700" on="0"/>
        <pt x="174" y="700" on="0"/>
      </contour>
      <contour>
        <pt x="56" y="794" on="1"/>
        <pt x="-6" y="794" on="1"/>
        <pt x="-6" y="840" on="0"/>
        <pt x="46" y="894" on="0"/>
        <pt x="87" y="894" on="1"/>
        <pt x="105" y="894" on="0"/>
        <pt x="143" y="882" on="0"/>
        <pt x="171" y="870" on="1"/>
        <pt x="189" y="861" on="0"/>
        <pt x="213" y="852" on="0"/>
        <pt x="222" y="852" on="1"/>
        <pt x="236" y="852" on="0"/>
        <pt x="254" y="874" on="0"/>
        <pt x="253" y="894" on="1"/>
        <pt x="314" y="894" on="1"/>
        <pt x="314" y="849" on="0"/>
        <pt x="266" y="792" on="0"/>
        <pt x="229" y="792" on="1"/>
        <pt x="209" y="792" on="0"/>
        <pt x="169" y="806" on="0"/>
        <pt x="139" y="818" on="1"/>
        <pt x="120" y="826" on="0"/>
        <pt x="97" y="834" on="0"/>
        <pt x="88" y="834" on="1"/>
        <pt x="74" y="834" on="0"/>
        <pt x="56" y="813" on="0"/>
      </contour>
    </TTGlyph>
    <TTGlyph name="J" xMin="59" yMin="-10" xMax="586" yMax="700">
      <contour>
        <pt x="262" y="-10" on="1"/>
        <pt x="196" y="-10" on="0"/>
        <pt x="90" y="58" on="0"/>
        <pt x="59" y="117" on="1"/>
        <pt x="111" y="172" on="1"/>
        <pt x="148" y="112" on="0"/>
        <pt x="221" y="68" on="0"/>
        <pt x="263" y="68" on="1"/>
        <pt x="324" y="68" on="0"/>
        <pt x="402" y="153" on="0"/>
        <pt x="402" y="220" on="1"/>
        <pt x="402" y="700" on="1"/>
        <pt x="482" y="700" on="1"/>
        <pt x="482" y="213" on="1"/>
        <pt x="482" y="117" on="0"/>
        <pt x="360" y="-10" on="0"/>
      </contour>
      <contour>
        <pt x="586" y="700" on="1"/>
        <pt x="586" y="625" on="1"/>
        <pt x="274" y="625" on="1"/>
        <pt x="274" y="700" on="1"/>
      </contour>
    </TTGlyph>
    <TTGlyph name="J.ss01" xMin="47" yMin="-10" xMax="470" yMax="700">
      <contour>
        <pt x="250" y="-10" on="1"/>
        <pt x="184" y="-10" on="0"/>
        <pt x="78" y="58" on="0"/>
        <pt x="47" y="117" on="1"/>
        <pt x="99" y="172" on="1"/>
        <pt x="136" y="112" on="0"/>
        <pt x="209" y="68" on="0"/>
        <pt x="251" y="68" on="1"/>
        <pt x="312" y="68" on="0"/>
        <pt x="390" y="153" on="0"/>
        <pt x="390" y="220" on="1"/>
        <pt x="390" y="700" on="1"/>
        <pt x="470" y="700" on="1"/>
        <pt x="470" y="213" on="1"/>
        <pt x="470" y="117" on="0"/>
        <pt x="348" y="-10" on="0"/>
      </contour>
    </TTGlyph>
    <TTGlyph name="Jacute.loclNLD" xMin="59" yMin="-10" xMax="586" yMax="926">
      <contour>
        <pt x="262" y="-10" on="1"/>
        <pt x="196" y="-10" on="0"/>
        <pt x="90" y="58" on="0"/>
        <pt x="59" y="117" on="1"/>
        <pt x="111" y="172" on="1"/>
        <pt x="148" y="112" on="0"/>
        <pt x="221" y="68" on="0"/>
        <pt x="263" y="68" on="1"/>
        <pt x="324" y="68" on="0"/>
        <pt x="402" y="153" on="0"/>
        <pt x="402" y="220" on="1"/>
        <pt x="402" y="700" on="1"/>
        <pt x="482" y="700" on="1"/>
        <pt x="482" y="213" on="1"/>
        <pt x="482" y="117" on="0"/>
        <pt x="360" y="-10" on="0"/>
      </contour>
      <contour>
        <pt x="586" y="700" on="1"/>
        <pt x="586" y="625" on="1"/>
        <pt x="274" y="625" on="1"/>
        <pt x="274" y="700" on="1"/>
      </contour>
      <contour>
        <pt x="556" y="861" on="1"/>
        <pt x="390" y="768" on="1"/>
        <pt x="362" y="808" on="1"/>
        <pt x="505" y="926" on="1"/>
      </contour>
    </TTGlyph>
    <TTGlyph name="Jcircumflex" xMin="59" yMin="-10" xMax="589" yMax="895">
      <contour>
        <pt x="262" y="-10" on="1"/>
        <pt x="196" y="-10" on="0"/>
        <pt x="90" y="58" on="0"/>
        <pt x="59" y="117" on="1"/>
        <pt x="111" y="172" on="1"/>
        <pt x="148" y="112" on="0"/>
        <pt x="221" y="68" on="0"/>
        <pt x="263" y="68" on="1"/>
        <pt x="324" y="68" on="0"/>
        <pt x="402" y="153" on="0"/>
        <pt x="402" y="220" on="1"/>
        <pt x="402" y="700" on="1"/>
        <pt x="482" y="700" on="1"/>
        <pt x="482" y="213" on="1"/>
        <pt x="482" y="117" on="0"/>
        <pt x="360" y="-10" on="0"/>
      </contour>
      <contour>
        <pt x="586" y="700" on="1"/>
        <pt x="586" y="625" on="1"/>
        <pt x="274" y="625" on="1"/>
        <pt x="274" y="700" on="1"/>
      </contour>
      <contour>
        <pt x="556" y="759" on="1"/>
        <pt x="422" y="844" on="1"/>
        <pt x="451" y="844" on="1"/>
        <pt x="316" y="759" on="1"/>
        <pt x="284" y="789" on="1"/>
        <pt x="402" y="895" on="1"/>
        <pt x="470" y="895" on="1"/>
        <pt x="589" y="789" on="1"/>
      </contour>
    </TTGlyph>
    <TTGlyph name="Jcircumflex.ss01" xMin="47" yMin="-10" xMax="578" yMax="897">
      <contour>
        <pt x="250" y="-10" on="1"/>
        <pt x="184" y="-10" on="0"/>
        <pt x="78" y="58" on="0"/>
        <pt x="47" y="117" on="1"/>
        <pt x="99" y="172" on="1"/>
        <pt x="136" y="112" on="0"/>
        <pt x="209" y="68" on="0"/>
        <pt x="251" y="68" on="1"/>
        <pt x="312" y="68" on="0"/>
        <pt x="390" y="153" on="0"/>
        <pt x="390" y="220" on="1"/>
        <pt x="390" y="700" on="1"/>
        <pt x="470" y="700" on="1"/>
        <pt x="470" y="213" on="1"/>
        <pt x="470" y="117" on="0"/>
        <pt x="348" y="-10" on="0"/>
      </contour>
      <contour>
        <pt x="546" y="761" on="1"/>
        <pt x="411" y="846" on="1"/>
        <pt x="440" y="846" on="1"/>
        <pt x="306" y="761" on="1"/>
        <pt x="273" y="791" on="1"/>
        <pt x="392" y="897" on="1"/>
        <pt x="460" y="897" on="1"/>
        <pt x="578" y="791" on="1"/>
      </contour>
    </TTGlyph>
    <TTGlyph name="K" xMin="103" yMin="0" xMax="670" yMax="700">
      <contour>
        <pt x="103" y="0" on="1"/>
        <pt x="103" y="700" on="1"/>
        <pt x="182" y="700" on="1"/>
        <pt x="182" y="0" on="1"/>
      </contour>
      <contour>
        <pt x="162" y="214" on="1"/>
        <pt x="160" y="308" on="1"/>
        <pt x="555" y="700" on="1"/>
        <pt x="661" y="700" on="1"/>
      </contour>
      <contour>
        <pt x="572" y="0" on="1"/>
        <pt x="291" y="373" on="1"/>
        <pt x="349" y="424" on="1"/>
        <pt x="670" y="0" on="1"/>
      </contour>
    </TTGlyph>
    <TTGlyph name="L" xMin="103" yMin="0" xMax="518" yMax="700">
      <contour>
        <pt x="155" y="77" on="1"/>
        <pt x="518" y="77" on="1"/>
        <pt x="518" y="0" on="1"/>
        <pt x="103" y="0" on="1"/>
        <pt x="103" y="700" on="1"/>
        <pt x="182" y="700" on="1"/>
        <pt x="182" y="53" on="1"/>
      </contour>
    </TTGlyph>
    <TTGlyph name="Lacute" xMin="79" yMin="0" xMax="518" yMax="919">
      <contour>
        <pt x="155" y="77" on="1"/>
        <pt x="518" y="77" on="1"/>
        <pt x="518" y="0" on="1"/>
        <pt x="103" y="0" on="1"/>
        <pt x="103" y="700" on="1"/>
        <pt x="182" y="700" on="1"/>
        <pt x="182" y="53" on="1"/>
      </contour>
      <contour>
        <pt x="273" y="854" on="1"/>
        <pt x="106" y="760" on="1"/>
        <pt x="79" y="801" on="1"/>
        <pt x="222" y="919" on="1"/>
      </contour>
    </TTGlyph>
    <TTGlyph name="Lcaron" xMin="103" yMin="0" xMax="522" yMax="716">
      <contour>
        <pt x="155" y="77" on="1"/>
        <pt x="518" y="77" on="1"/>
        <pt x="518" y="0" on="1"/>
        <pt x="103" y="0" on="1"/>
        <pt x="103" y="700" on="1"/>
        <pt x="182" y="700" on="1"/>
        <pt x="182" y="53" on="1"/>
      </contour>
      <contour>
        <pt x="446" y="716" on="1"/>
        <pt x="480" y="716" on="0"/>
        <pt x="522" y="663" on="0"/>
        <pt x="522" y="619" on="1"/>
        <pt x="522" y="566" on="0"/>
        <pt x="461" y="482" on="0"/>
        <pt x="406" y="455" on="1"/>
        <pt x="378" y="491" on="1"/>
        <pt x="410" y="510" on="0"/>
        <pt x="446" y="554" on="0"/>
        <pt x="446" y="574" on="1"/>
        <pt x="446" y="586" on="0"/>
        <pt x="438" y="605" on="0"/>
        <pt x="422" y="620" on="1"/>
        <pt x="407" y="634" on="0"/>
        <pt x="395" y="657" on="0"/>
        <pt x="395" y="670" on="1"/>
        <pt x="395" y="691" on="0"/>
        <pt x="423" y="716" on="0"/>
      </contour>
    </TTGlyph>
    <TTGlyph name="Ldot" xMin="103" yMin="0" xMax="518" yMax="700">
      <contour>
        <pt x="155" y="77" on="1"/>
        <pt x="518" y="77" on="1"/>
        <pt x="518" y="0" on="1"/>
        <pt x="103" y="0" on="1"/>
        <pt x="103" y="700" on="1"/>
        <pt x="182" y="700" on="1"/>
        <pt x="182" y="53" on="1"/>
      </contour>
      <contour>
        <pt x="457" y="360" on="1"/>
        <pt x="457" y="332" on="0"/>
        <pt x="426" y="297" on="0"/>
        <pt x="400" y="297" on="1"/>
        <pt x="374" y="297" on="0"/>
        <pt x="344" y="330" on="0"/>
        <pt x="344" y="360" on="1"/>
        <pt x="344" y="387" on="0"/>
        <pt x="375" y="422" on="0"/>
        <pt x="400" y="422" on="1"/>
        <pt x="428" y="422" on="0"/>
        <pt x="457" y="390" on="0"/>
      </contour>
    </TTGlyph>
    <TTGlyph name="Lslash" xMin="24" yMin="0" xMax="537" yMax="700">
      <contour>
        <pt x="174" y="77" on="1"/>
        <pt x="537" y="77" on="1"/>
        <pt x="537" y="0" on="1"/>
        <pt x="122" y="0" on="1"/>
        <pt x="122" y="700" on="1"/>
        <pt x="202" y="700" on="1"/>
        <pt x="202" y="53" on="1"/>
      </contour>
      <contour>
        <pt x="46" y="274" on="1"/>
        <pt x="24" y="330" on="1"/>
        <pt x="306" y="458" on="1"/>
        <pt x="330" y="398" on="1"/>
      </contour>
    </TTGlyph>
    <TTGlyph name="M" xMin="103" yMin="0" xMax="755" yMax="700">
      <contour>
        <pt x="103" y="700" on="1"/>
        <pt x="180" y="700" on="1"/>
        <pt x="448" y="264" on="1"/>
        <pt x="412" y="264" on="1"/>
        <pt x="684" y="700" on="1"/>
        <pt x="755" y="700" on="1"/>
        <pt x="755" y="0" on="1"/>
        <pt x="676" y="0" on="1"/>
        <pt x="676" y="319" on="1"/>
        <pt x="676" y="409" on="0"/>
        <pt x="682" y="553" on="0"/>
        <pt x="690" y="624" on="1"/>
        <pt x="705" y="596" on="1"/>
        <pt x="454" y="203" on="1"/>
        <pt x="400" y="203" on="1"/>
        <pt x="157" y="591" on="1"/>
        <pt x="168" y="624" on="1"/>
        <pt x="176" y="557" on="0"/>
        <pt x="182" y="416" on="0"/>
        <pt x="182" y="319" on="1"/>
        <pt x="182" y="0" on="1"/>
        <pt x="103" y="0" on="1"/>
      </contour>
    </TTGlyph>
    <TTGlyph name="N" xMin="103" yMin="0" xMax="684" yMax="700">
      <contour>
        <pt x="605" y="444" on="1"/>
        <pt x="605" y="700" on="1"/>
        <pt x="684" y="700" on="1"/>
        <pt x="684" y="0" on="1"/>
        <pt x="610" y="0" on="1"/>
        <pt x="156" y="596" on="1"/>
        <pt x="168" y="618" on="1"/>
        <pt x="172" y="561" on="0"/>
        <pt x="182" y="351" on="0"/>
        <pt x="182" y="318" on="1"/>
        <pt x="182" y="0" on="1"/>
        <pt x="103" y="0" on="1"/>
        <pt x="103" y="700" on="1"/>
        <pt x="174" y="700" on="1"/>
        <pt x="632" y="95" on="1"/>
        <pt x="618" y="78" on="1"/>
        <pt x="610" y="130" on="0"/>
        <pt x="606" y="330" on="0"/>
      </contour>
    </TTGlyph>
    <TTGlyph name="Nacute" xMin="103" yMin="0" xMax="684" yMax="919">
      <contour>
        <pt x="605" y="444" on="1"/>
        <pt x="605" y="700" on="1"/>
        <pt x="684" y="700" on="1"/>
        <pt x="684" y="0" on="1"/>
        <pt x="610" y="0" on="1"/>
        <pt x="156" y="596" on="1"/>
        <pt x="168" y="618" on="1"/>
        <pt x="172" y="561" on="0"/>
        <pt x="182" y="351" on="0"/>
        <pt x="182" y="318" on="1"/>
        <pt x="182" y="0" on="1"/>
        <pt x="103" y="0" on="1"/>
        <pt x="103" y="700" on="1"/>
        <pt x="174" y="700" on="1"/>
        <pt x="632" y="95" on="1"/>
        <pt x="618" y="78" on="1"/>
        <pt x="610" y="130" on="0"/>
        <pt x="606" y="330" on="0"/>
      </contour>
      <contour>
        <pt x="548" y="854" on="1"/>
        <pt x="381" y="760" on="1"/>
        <pt x="354" y="801" on="1"/>
        <pt x="497" y="919" on="1"/>
      </contour>
    </TTGlyph>
    <TTGlyph name="Ncaron" xMin="103" yMin="0" xMax="684" yMax="899">
      <contour>
        <pt x="605" y="444" on="1"/>
        <pt x="605" y="700" on="1"/>
        <pt x="684" y="700" on="1"/>
        <pt x="684" y="0" on="1"/>
        <pt x="610" y="0" on="1"/>
        <pt x="156" y="596" on="1"/>
        <pt x="168" y="618" on="1"/>
        <pt x="172" y="561" on="0"/>
        <pt x="182" y="351" on="0"/>
        <pt x="182" y="318" on="1"/>
        <pt x="182" y="0" on="1"/>
        <pt x="103" y="0" on="1"/>
        <pt x="103" y="700" on="1"/>
        <pt x="174" y="700" on="1"/>
        <pt x="632" y="95" on="1"/>
        <pt x="618" y="78" on="1"/>
        <pt x="610" y="130" on="0"/>
        <pt x="606" y="330" on="0"/>
      </contour>
      <contour>
        <pt x="506" y="899" on="1"/>
        <pt x="375" y="814" on="1"/>
        <pt x="405" y="814" on="1"/>
        <pt x="274" y="899" on="1"/>
        <pt x="241" y="870" on="1"/>
        <pt x="353" y="763" on="1"/>
        <pt x="427" y="763" on="1"/>
        <pt x="539" y="870" on="1"/>
      </contour>
    </TTGlyph>
    <TTGlyph name="Ntilde" xMin="103" yMin="0" xMax="684" yMax="894">
      <contour>
        <pt x="605" y="444" on="1"/>
        <pt x="605" y="700" on="1"/>
        <pt x="684" y="700" on="1"/>
        <pt x="684" y="0" on="1"/>
        <pt x="610" y="0" on="1"/>
        <pt x="156" y="596" on="1"/>
        <pt x="168" y="618" on="1"/>
        <pt x="172" y="561" on="0"/>
        <pt x="182" y="351" on="0"/>
        <pt x="182" y="318" on="1"/>
        <pt x="182" y="0" on="1"/>
        <pt x="103" y="0" on="1"/>
        <pt x="103" y="700" on="1"/>
        <pt x="174" y="700" on="1"/>
        <pt x="632" y="95" on="1"/>
        <pt x="618" y="78" on="1"/>
        <pt x="610" y="130" on="0"/>
        <pt x="606" y="330" on="0"/>
      </contour>
      <contour>
        <pt x="294" y="794" on="1"/>
        <pt x="232" y="794" on="1"/>
        <pt x="232" y="840" on="0"/>
        <pt x="284" y="894" on="0"/>
        <pt x="325" y="894" on="1"/>
        <pt x="343" y="894" on="0"/>
        <pt x="381" y="882" on="0"/>
        <pt x="409" y="870" on="1"/>
        <pt x="427" y="861" on="0"/>
        <pt x="451" y="852" on="0"/>
        <pt x="460" y="852" on="1"/>
        <pt x="474" y="852" on="0"/>
        <pt x="492" y="874" on="0"/>
        <pt x="492" y="894" on="1"/>
        <pt x="552" y="894" on="1"/>
        <pt x="552" y="849" on="0"/>
        <pt x="504" y="792" on="0"/>
        <pt x="467" y="792" on="1"/>
        <pt x="448" y="792" on="0"/>
        <pt x="407" y="806" on="0"/>
        <pt x="377" y="818" on="1"/>
        <pt x="359" y="826" on="0"/>
        <pt x="335" y="834" on="0"/>
        <pt x="326" y="834" on="1"/>
        <pt x="312" y="834" on="0"/>
        <pt x="294" y="813" on="0"/>
      </contour>
    </TTGlyph>
    <TTGlyph name="O" xMin="49" yMin="-10" xMax="736" yMax="708">
      <contour>
        <pt x="392" y="708" on="1"/>
        <pt x="541" y="708" on="0"/>
        <pt x="736" y="504" on="0"/>
        <pt x="736" y="348" on="1"/>
        <pt x="736" y="194" on="0"/>
        <pt x="541" y="-10" on="0"/>
        <pt x="392" y="-10" on="1"/>
        <pt x="243" y="-10" on="0"/>
        <pt x="49" y="193" on="0"/>
        <pt x="49" y="348" on="1"/>
        <pt x="49" y="504" on="0"/>
        <pt x="243" y="708" on="0"/>
      </contour>
      <contour>
        <pt x="392" y="68" on="1"/>
        <pt x="506" y="68" on="0"/>
        <pt x="654" y="226" on="0"/>
        <pt x="654" y="348" on="1"/>
        <pt x="654" y="470" on="0"/>
        <pt x="506" y="630" on="0"/>
        <pt x="392" y="630" on="1"/>
        <pt x="278" y="630" on="0"/>
        <pt x="130" y="471" on="0"/>
        <pt x="130" y="348" on="1"/>
        <pt x="130" y="226" on="0"/>
        <pt x="278" y="68" on="0"/>
      </contour>
    </TTGlyph>
    <TTGlyph name="OE" xMin="49" yMin="0" xMax="946" yMax="700">
      <contour>
        <pt x="49" y="350" on="1"/>
        <pt x="49" y="504" on="0"/>
        <pt x="239" y="700" on="0"/>
        <pt x="386" y="700" on="1"/>
        <pt x="946" y="700" on="1"/>
        <pt x="946" y="623" on="1"/>
        <pt x="581" y="623" on="1"/>
        <pt x="600" y="647" on="1"/>
        <pt x="600" y="379" on="1"/>
        <pt x="581" y="398" on="1"/>
        <pt x="890" y="398" on="1"/>
        <pt x="890" y="322" on="1"/>
        <pt x="582" y="322" on="1"/>
        <pt x="600" y="341" on="1"/>
        <pt x="600" y="58" on="1"/>
        <pt x="582" y="77" on="1"/>
        <pt x="944" y="77" on="1"/>
        <pt x="944" y="0" on="1"/>
        <pt x="376" y="0" on="1"/>
        <pt x="233" y="0" on="0"/>
        <pt x="49" y="195" on="0"/>
      </contour>
      <contour>
        <pt x="557" y="77" on="1"/>
        <pt x="522" y="38" on="1"/>
        <pt x="522" y="660" on="1"/>
        <pt x="557" y="623" on="1"/>
        <pt x="390" y="623" on="1"/>
        <pt x="276" y="623" on="0"/>
        <pt x="130" y="472" on="0"/>
        <pt x="130" y="350" on="1"/>
        <pt x="130" y="227" on="0"/>
        <pt x="270" y="77" on="0"/>
        <pt x="380" y="77" on="1"/>
      </contour>
    </TTGlyph>
    <TTGlyph name="Oacute" xMin="49" yMin="-10" xMax="736" yMax="919">
      <contour>
        <pt x="392" y="708" on="1"/>
        <pt x="541" y="708" on="0"/>
        <pt x="736" y="504" on="0"/>
        <pt x="736" y="348" on="1"/>
        <pt x="736" y="194" on="0"/>
        <pt x="541" y="-10" on="0"/>
        <pt x="392" y="-10" on="1"/>
        <pt x="243" y="-10" on="0"/>
        <pt x="49" y="193" on="0"/>
        <pt x="49" y="348" on="1"/>
        <pt x="49" y="504" on="0"/>
        <pt x="243" y="708" on="0"/>
      </contour>
      <contour>
        <pt x="392" y="68" on="1"/>
        <pt x="506" y="68" on="0"/>
        <pt x="654" y="226" on="0"/>
        <pt x="654" y="348" on="1"/>
        <pt x="654" y="470" on="0"/>
        <pt x="506" y="630" on="0"/>
        <pt x="392" y="630" on="1"/>
        <pt x="278" y="630" on="0"/>
        <pt x="130" y="471" on="0"/>
        <pt x="130" y="348" on="1"/>
        <pt x="130" y="226" on="0"/>
        <pt x="278" y="68" on="0"/>
      </contour>
      <contour>
        <pt x="522" y="854" on="1"/>
        <pt x="355" y="760" on="1"/>
        <pt x="328" y="801" on="1"/>
        <pt x="471" y="919" on="1"/>
      </contour>
    </TTGlyph>
    <TTGlyph name="Obreve" xMin="49" yMin="-10" xMax="736" yMax="912">
      <contour>
        <pt x="392" y="708" on="1"/>
        <pt x="541" y="708" on="0"/>
        <pt x="736" y="504" on="0"/>
        <pt x="736" y="348" on="1"/>
        <pt x="736" y="194" on="0"/>
        <pt x="541" y="-10" on="0"/>
        <pt x="392" y="-10" on="1"/>
        <pt x="243" y="-10" on="0"/>
        <pt x="49" y="193" on="0"/>
        <pt x="49" y="348" on="1"/>
        <pt x="49" y="504" on="0"/>
        <pt x="243" y="708" on="0"/>
      </contour>
      <contour>
        <pt x="392" y="68" on="1"/>
        <pt x="506" y="68" on="0"/>
        <pt x="654" y="226" on="0"/>
        <pt x="654" y="348" on="1"/>
        <pt x="654" y="470" on="0"/>
        <pt x="506" y="630" on="0"/>
        <pt x="392" y="630" on="1"/>
        <pt x="278" y="630" on="0"/>
        <pt x="130" y="471" on="0"/>
        <pt x="130" y="348" on="1"/>
        <pt x="130" y="226" on="0"/>
        <pt x="278" y="68" on="0"/>
      </contour>
      <contour>
        <pt x="388" y="760" on="1"/>
        <pt x="331" y="760" on="0"/>
        <pt x="250" y="838" on="0"/>
        <pt x="236" y="904" on="1"/>
        <pt x="295" y="912" on="1"/>
        <pt x="306" y="870" on="0"/>
        <pt x="358" y="822" on="0"/>
        <pt x="388" y="822" on="1"/>
        <pt x="419" y="822" on="0"/>
        <pt x="470" y="870" on="0"/>
        <pt x="482" y="912" on="1"/>
        <pt x="540" y="904" on="1"/>
        <pt x="528" y="838" on="0"/>
        <pt x="446" y="760" on="0"/>
      </contour>
    </TTGlyph>
    <TTGlyph name="Ocircumflex" xMin="49" yMin="-10" xMax="736" yMax="895">
      <contour>
        <pt x="392" y="708" on="1"/>
        <pt x="541" y="708" on="0"/>
        <pt x="736" y="504" on="0"/>
        <pt x="736" y="348" on="1"/>
        <pt x="736" y="194" on="0"/>
        <pt x="541" y="-10" on="0"/>
        <pt x="392" y="-10" on="1"/>
        <pt x="243" y="-10" on="0"/>
        <pt x="49" y="193" on="0"/>
        <pt x="49" y="348" on="1"/>
        <pt x="49" y="504" on="0"/>
        <pt x="243" y="708" on="0"/>
      </contour>
      <contour>
        <pt x="392" y="68" on="1"/>
        <pt x="506" y="68" on="0"/>
        <pt x="654" y="226" on="0"/>
        <pt x="654" y="348" on="1"/>
        <pt x="654" y="470" on="0"/>
        <pt x="506" y="630" on="0"/>
        <pt x="392" y="630" on="1"/>
        <pt x="278" y="630" on="0"/>
        <pt x="130" y="471" on="0"/>
        <pt x="130" y="348" on="1"/>
        <pt x="130" y="226" on="0"/>
        <pt x="278" y="68" on="0"/>
      </contour>
      <contour>
        <pt x="510" y="759" on="1"/>
        <pt x="375" y="844" on="1"/>
        <pt x="404" y="844" on="1"/>
        <pt x="270" y="759" on="1"/>
        <pt x="237" y="789" on="1"/>
        <pt x="356" y="895" on="1"/>
        <pt x="424" y="895" on="1"/>
        <pt x="542" y="789" on="1"/>
      </contour>
    </TTGlyph>
    <TTGlyph name="Odieresis" xMin="49" yMin="-10" xMax="736" yMax="870">
      <contour>
        <pt x="392" y="708" on="1"/>
        <pt x="541" y="708" on="0"/>
        <pt x="736" y="504" on="0"/>
        <pt x="736" y="348" on="1"/>
        <pt x="736" y="194" on="0"/>
        <pt x="541" y="-10" on="0"/>
        <pt x="392" y="-10" on="1"/>
        <pt x="243" y="-10" on="0"/>
        <pt x="49" y="193" on="0"/>
        <pt x="49" y="348" on="1"/>
        <pt x="49" y="504" on="0"/>
        <pt x="243" y="708" on="0"/>
      </contour>
      <contour>
        <pt x="392" y="68" on="1"/>
        <pt x="506" y="68" on="0"/>
        <pt x="654" y="226" on="0"/>
        <pt x="654" y="348" on="1"/>
        <pt x="654" y="470" on="0"/>
        <pt x="506" y="630" on="0"/>
        <pt x="392" y="630" on="1"/>
        <pt x="278" y="630" on="0"/>
        <pt x="130" y="471" on="0"/>
        <pt x="130" y="348" on="1"/>
        <pt x="130" y="226" on="0"/>
        <pt x="278" y="68" on="0"/>
      </contour>
      <contour>
        <pt x="347" y="814" on="1"/>
        <pt x="347" y="790" on="0"/>
        <pt x="316" y="760" on="0"/>
        <pt x="290" y="760" on="1"/>
        <pt x="262" y="760" on="0"/>
        <pt x="232" y="788" on="0"/>
        <pt x="232" y="814" on="1"/>
        <pt x="232" y="839" on="0"/>
        <pt x="262" y="870" on="0"/>
        <pt x="290" y="870" on="1"/>
        <pt x="317" y="870" on="0"/>
        <pt x="347" y="840" on="0"/>
      </contour>
      <contour>
        <pt x="550" y="814" on="1"/>
        <pt x="550" y="790" on="0"/>
        <pt x="520" y="760" on="0"/>
        <pt x="492" y="760" on="1"/>
        <pt x="465" y="760" on="0"/>
        <pt x="435" y="788" on="0"/>
        <pt x="435" y="814" on="1"/>
        <pt x="435" y="839" on="0"/>
        <pt x="466" y="870" on="0"/>
        <pt x="492" y="870" on="1"/>
        <pt x="520" y="870" on="0"/>
        <pt x="550" y="840" on="0"/>
      </contour>
    </TTGlyph>
    <TTGlyph name="Ograve" xMin="49" yMin="-10" xMax="736" yMax="921">
      <contour>
        <pt x="392" y="708" on="1"/>
        <pt x="541" y="708" on="0"/>
        <pt x="736" y="504" on="0"/>
        <pt x="736" y="348" on="1"/>
        <pt x="736" y="194" on="0"/>
        <pt x="541" y="-10" on="0"/>
        <pt x="392" y="-10" on="1"/>
        <pt x="243" y="-10" on="0"/>
        <pt x="49" y="193" on="0"/>
        <pt x="49" y="348" on="1"/>
        <pt x="49" y="504" on="0"/>
        <pt x="243" y="708" on="0"/>
      </contour>
      <contour>
        <pt x="392" y="68" on="1"/>
        <pt x="506" y="68" on="0"/>
        <pt x="654" y="226" on="0"/>
        <pt x="654" y="348" on="1"/>
        <pt x="654" y="470" on="0"/>
        <pt x="506" y="630" on="0"/>
        <pt x="392" y="630" on="1"/>
        <pt x="278" y="630" on="0"/>
        <pt x="130" y="471" on="0"/>
        <pt x="130" y="348" on="1"/>
        <pt x="130" y="226" on="0"/>
        <pt x="278" y="68" on="0"/>
      </contour>
      <contour>
        <pt x="456" y="803" on="1"/>
        <pt x="428" y="762" on="1"/>
        <pt x="261" y="856" on="1"/>
        <pt x="313" y="921" on="1"/>
      </contour>
    </TTGlyph>
    <TTGlyph name="Ohorn" xMin="49" yMin="-10" xMax="736" yMax="804">
      <contour>
        <pt x="392" y="708" on="1"/>
        <pt x="541" y="708" on="0"/>
        <pt x="736" y="504" on="0"/>
        <pt x="736" y="348" on="1"/>
        <pt x="736" y="194" on="0"/>
        <pt x="541" y="-10" on="0"/>
        <pt x="392" y="-10" on="1"/>
        <pt x="243" y="-10" on="0"/>
        <pt x="49" y="193" on="0"/>
        <pt x="49" y="348" on="1"/>
        <pt x="49" y="504" on="0"/>
        <pt x="243" y="708" on="0"/>
      </contour>
      <contour>
        <pt x="392" y="68" on="1"/>
        <pt x="506" y="68" on="0"/>
        <pt x="654" y="226" on="0"/>
        <pt x="654" y="348" on="1"/>
        <pt x="654" y="470" on="0"/>
        <pt x="506" y="630" on="0"/>
        <pt x="392" y="630" on="1"/>
        <pt x="278" y="630" on="0"/>
        <pt x="130" y="471" on="0"/>
        <pt x="130" y="348" on="1"/>
        <pt x="130" y="226" on="0"/>
        <pt x="278" y="68" on="0"/>
      </contour>
      <contour>
        <pt x="475" y="633" on="1"/>
        <pt x="475" y="692" on="1"/>
        <pt x="528" y="692" on="0"/>
        <pt x="581" y="748" on="0"/>
        <pt x="581" y="804" on="1"/>
        <pt x="651" y="804" on="1"/>
        <pt x="651" y="725" on="0"/>
        <pt x="558" y="633" on="0"/>
      </contour>
    </TTGlyph>
    <TTGlyph name="Ohungarumlaut" xMin="49" yMin="-10" xMax="736" yMax="918">
      <contour>
        <pt x="392" y="708" on="1"/>
        <pt x="541" y="708" on="0"/>
        <pt x="736" y="504" on="0"/>
        <pt x="736" y="348" on="1"/>
        <pt x="736" y="194" on="0"/>
        <pt x="541" y="-10" on="0"/>
        <pt x="392" y="-10" on="1"/>
        <pt x="243" y="-10" on="0"/>
        <pt x="49" y="193" on="0"/>
        <pt x="49" y="348" on="1"/>
        <pt x="49" y="504" on="0"/>
        <pt x="243" y="708" on="0"/>
      </contour>
      <contour>
        <pt x="392" y="68" on="1"/>
        <pt x="506" y="68" on="0"/>
        <pt x="654" y="226" on="0"/>
        <pt x="654" y="348" on="1"/>
        <pt x="654" y="470" on="0"/>
        <pt x="506" y="630" on="0"/>
        <pt x="392" y="630" on="1"/>
        <pt x="278" y="630" on="0"/>
        <pt x="130" y="471" on="0"/>
        <pt x="130" y="348" on="1"/>
        <pt x="130" y="226" on="0"/>
        <pt x="278" y="68" on="0"/>
      </contour>
      <contour>
        <pt x="446" y="854" on="1"/>
        <pt x="282" y="756" on="1"/>
        <pt x="254" y="798" on="1"/>
        <pt x="397" y="918" on="1"/>
      </contour>
      <contour>
        <pt x="620" y="854" on="1"/>
        <pt x="456" y="756" on="1"/>
        <pt x="429" y="798" on="1"/>
        <pt x="571" y="918" on="1"/>
      </contour>
    </TTGlyph>
    <TTGlyph name="Omacron" xMin="49" yMin="-10" xMax="736" yMax="834">
      <contour>
        <pt x="392" y="708" on="1"/>
        <pt x="541" y="708" on="0"/>
        <pt x="736" y="504" on="0"/>
        <pt x="736" y="348" on="1"/>
        <pt x="736" y="194" on="0"/>
        <pt x="541" y="-10" on="0"/>
        <pt x="392" y="-10" on="1"/>
        <pt x="243" y="-10" on="0"/>
        <pt x="49" y="193" on="0"/>
        <pt x="49" y="348" on="1"/>
        <pt x="49" y="504" on="0"/>
        <pt x="243" y="708" on="0"/>
      </contour>
      <contour>
        <pt x="392" y="68" on="1"/>
        <pt x="506" y="68" on="0"/>
        <pt x="654" y="226" on="0"/>
        <pt x="654" y="348" on="1"/>
        <pt x="654" y="470" on="0"/>
        <pt x="506" y="630" on="0"/>
        <pt x="392" y="630" on="1"/>
        <pt x="278" y="630" on="0"/>
        <pt x="130" y="471" on="0"/>
        <pt x="130" y="348" on="1"/>
        <pt x="130" y="226" on="0"/>
        <pt x="278" y="68" on="0"/>
      </contour>
      <contour>
        <pt x="544" y="773" on="1"/>
        <pt x="237" y="773" on="1"/>
        <pt x="237" y="834" on="1"/>
        <pt x="544" y="834" on="1"/>
      </contour>
    </TTGlyph>
    <TTGlyph name="Oslash" xMin="50" yMin="-32" xMax="736" yMax="733">
      <contour>
        <pt x="118" y="-32" on="1"/>
        <pt x="70" y="11" on="1"/>
        <pt x="660" y="733" on="1"/>
        <pt x="711" y="694" on="1"/>
      </contour>
      <contour>
        <pt x="392" y="708" on="1"/>
        <pt x="542" y="708" on="0"/>
        <pt x="736" y="504" on="0"/>
        <pt x="736" y="348" on="1"/>
        <pt x="736" y="194" on="0"/>
        <pt x="542" y="-10" on="0"/>
        <pt x="392" y="-10" on="1"/>
        <pt x="244" y="-10" on="0"/>
        <pt x="50" y="193" on="0"/>
        <pt x="50" y="348" on="1"/>
        <pt x="50" y="504" on="0"/>
        <pt x="244" y="708" on="0"/>
      </contour>
      <contour>
        <pt x="392" y="68" on="1"/>
        <pt x="506" y="68" on="0"/>
        <pt x="654" y="226" on="0"/>
        <pt x="654" y="348" on="1"/>
        <pt x="654" y="470" on="0"/>
        <pt x="506" y="630" on="0"/>
        <pt x="392" y="630" on="1"/>
        <pt x="278" y="630" on="0"/>
        <pt x="131" y="471" on="0"/>
        <pt x="131" y="348" on="1"/>
        <pt x="131" y="226" on="0"/>
        <pt x="278" y="68" on="0"/>
      </contour>
    </TTGlyph>
    <TTGlyph name="Oslashacute" xMin="50" yMin="-32" xMax="736" yMax="919">
      <contour>
        <pt x="118" y="-32" on="1"/>
        <pt x="70" y="11" on="1"/>
        <pt x="660" y="733" on="1"/>
        <pt x="711" y="694" on="1"/>
      </contour>
      <contour>
        <pt x="392" y="708" on="1"/>
        <pt x="542" y="708" on="0"/>
        <pt x="736" y="504" on="0"/>
        <pt x="736" y="348" on="1"/>
        <pt x="736" y="194" on="0"/>
        <pt x="542" y="-10" on="0"/>
        <pt x="392" y="-10" on="1"/>
        <pt x="244" y="-10" on="0"/>
        <pt x="50" y="193" on="0"/>
        <pt x="50" y="348" on="1"/>
        <pt x="50" y="504" on="0"/>
        <pt x="244" y="708" on="0"/>
      </contour>
      <contour>
        <pt x="392" y="68" on="1"/>
        <pt x="506" y="68" on="0"/>
        <pt x="654" y="226" on="0"/>
        <pt x="654" y="348" on="1"/>
        <pt x="654" y="470" on="0"/>
        <pt x="506" y="630" on="0"/>
        <pt x="392" y="630" on="1"/>
        <pt x="278" y="630" on="0"/>
        <pt x="131" y="471" on="0"/>
        <pt x="131" y="348" on="1"/>
        <pt x="131" y="226" on="0"/>
        <pt x="278" y="68" on="0"/>
      </contour>
      <contour>
        <pt x="513" y="854" on="1"/>
        <pt x="346" y="760" on="1"/>
        <pt x="319" y="801" on="1"/>
        <pt x="462" y="919" on="1"/>
      </contour>
    </TTGlyph>
    <TTGlyph name="Otilde" xMin="49" yMin="-10" xMax="736" yMax="894">
      <contour>
        <pt x="392" y="708" on="1"/>
        <pt x="541" y="708" on="0"/>
        <pt x="736" y="504" on="0"/>
        <pt x="736" y="348" on="1"/>
        <pt x="736" y="194" on="0"/>
        <pt x="541" y="-10" on="0"/>
        <pt x="392" y="-10" on="1"/>
        <pt x="243" y="-10" on="0"/>
        <pt x="49" y="193" on="0"/>
        <pt x="49" y="348" on="1"/>
        <pt x="49" y="504" on="0"/>
        <pt x="243" y="708" on="0"/>
      </contour>
      <contour>
        <pt x="392" y="68" on="1"/>
        <pt x="506" y="68" on="0"/>
        <pt x="654" y="226" on="0"/>
        <pt x="654" y="348" on="1"/>
        <pt x="654" y="470" on="0"/>
        <pt x="506" y="630" on="0"/>
        <pt x="392" y="630" on="1"/>
        <pt x="278" y="630" on="0"/>
        <pt x="130" y="471" on="0"/>
        <pt x="130" y="348" on="1"/>
        <pt x="130" y="226" on="0"/>
        <pt x="278" y="68" on="0"/>
      </contour>
      <contour>
        <pt x="292" y="794" on="1"/>
        <pt x="231" y="794" on="1"/>
        <pt x="231" y="840" on="0"/>
        <pt x="282" y="894" on="0"/>
        <pt x="323" y="894" on="1"/>
        <pt x="342" y="894" on="0"/>
        <pt x="379" y="882" on="0"/>
        <pt x="407" y="870" on="1"/>
        <pt x="426" y="861" on="0"/>
        <pt x="449" y="852" on="0"/>
        <pt x="459" y="852" on="1"/>
        <pt x="473" y="852" on="0"/>
        <pt x="490" y="874" on="0"/>
        <pt x="490" y="894" on="1"/>
        <pt x="551" y="894" on="1"/>
        <pt x="551" y="849" on="0"/>
        <pt x="502" y="792" on="0"/>
        <pt x="465" y="792" on="1"/>
        <pt x="446" y="792" on="0"/>
        <pt x="406" y="806" on="0"/>
        <pt x="375" y="818" on="1"/>
        <pt x="357" y="826" on="0"/>
        <pt x="333" y="834" on="0"/>
        <pt x="324" y="834" on="1"/>
        <pt x="311" y="834" on="0"/>
        <pt x="292" y="813" on="0"/>
      </contour>
    </TTGlyph>
    <TTGlyph name="P" xMin="103" yMin="0" xMax="575" yMax="700">
      <contour>
        <pt x="103" y="700" on="1"/>
        <pt x="380" y="700" on="1"/>
        <pt x="462" y="700" on="0"/>
        <pt x="575" y="580" on="0"/>
        <pt x="575" y="492" on="1"/>
        <pt x="575" y="400" on="0"/>
        <pt x="462" y="276" on="0"/>
        <pt x="380" y="276" on="1"/>
        <pt x="170" y="276" on="1"/>
        <pt x="182" y="294" on="1"/>
        <pt x="182" y="0" on="1"/>
        <pt x="103" y="0" on="1"/>
      </contour>
      <contour>
        <pt x="169" y="352" on="1"/>
        <pt x="384" y="352" on="1"/>
        <pt x="430" y="352" on="0"/>
        <pt x="494" y="433" on="0"/>
        <pt x="494" y="492" on="1"/>
        <pt x="494" y="548" on="0"/>
        <pt x="430" y="623" on="0"/>
        <pt x="384" y="623" on="1"/>
        <pt x="169" y="623" on="1"/>
        <pt x="182" y="641" on="1"/>
        <pt x="182" y="340" on="1"/>
      </contour>
    </TTGlyph>
    <TTGlyph name="Q" xMin="49" yMin="-103" xMax="736" yMax="708">
      <contour>
        <pt x="392" y="708" on="1"/>
        <pt x="541" y="708" on="0"/>
        <pt x="736" y="504" on="0"/>
        <pt x="736" y="348" on="1"/>
        <pt x="736" y="194" on="0"/>
        <pt x="541" y="-10" on="0"/>
        <pt x="392" y="-10" on="1"/>
        <pt x="243" y="-10" on="0"/>
        <pt x="49" y="193" on="0"/>
        <pt x="49" y="348" on="1"/>
        <pt x="49" y="504" on="0"/>
        <pt x="243" y="708" on="0"/>
      </contour>
      <contour>
        <pt x="392" y="68" on="1"/>
        <pt x="506" y="68" on="0"/>
        <pt x="654" y="226" on="0"/>
        <pt x="654" y="348" on="1"/>
        <pt x="654" y="470" on="0"/>
        <pt x="506" y="630" on="0"/>
        <pt x="392" y="630" on="1"/>
        <pt x="278" y="630" on="0"/>
        <pt x="130" y="471" on="0"/>
        <pt x="130" y="348" on="1"/>
        <pt x="130" y="226" on="0"/>
        <pt x="278" y="68" on="0"/>
      </contour>
      <contour>
        <pt x="444" y="277" on="1"/>
        <pt x="699" y="-58" on="1"/>
        <pt x="636" y="-103" on="1"/>
        <pt x="380" y="234" on="1"/>
      </contour>
    </TTGlyph>
    <TTGlyph name="R" xMin="103" yMin="0" xMax="624" yMax="700">
      <contour>
        <pt x="596" y="483" on="1"/>
        <pt x="596" y="395" on="0"/>
        <pt x="473" y="276" on="0"/>
        <pt x="383" y="276" on="1"/>
        <pt x="163" y="276" on="1"/>
        <pt x="163" y="352" on="1"/>
        <pt x="391" y="352" on="1"/>
        <pt x="445" y="352" on="0"/>
        <pt x="514" y="426" on="0"/>
        <pt x="514" y="482" on="1"/>
        <pt x="514" y="544" on="0"/>
        <pt x="432" y="623" on="0"/>
        <pt x="368" y="623" on="1"/>
        <pt x="164" y="623" on="1"/>
        <pt x="182" y="654" on="1"/>
        <pt x="182" y="0" on="1"/>
        <pt x="103" y="0" on="1"/>
        <pt x="103" y="700" on="1"/>
        <pt x="378" y="700" on="1"/>
        <pt x="470" y="700" on="0"/>
        <pt x="596" y="576" on="0"/>
      </contour>
      <contour>
        <pt x="353" y="308" on="1"/>
        <pt x="430" y="334" on="1"/>
        <pt x="624" y="0" on="1"/>
        <pt x="529" y="0" on="1"/>
      </contour>
    </TTGlyph>
    <TTGlyph name="Racute" xMin="103" yMin="0" xMax="624" yMax="919">
      <contour>
        <pt x="596" y="483" on="1"/>
        <pt x="596" y="395" on="0"/>
        <pt x="473" y="276" on="0"/>
        <pt x="383" y="276" on="1"/>
        <pt x="163" y="276" on="1"/>
        <pt x="163" y="352" on="1"/>
        <pt x="391" y="352" on="1"/>
        <pt x="445" y="352" on="0"/>
        <pt x="514" y="426" on="0"/>
        <pt x="514" y="482" on="1"/>
        <pt x="514" y="544" on="0"/>
        <pt x="432" y="623" on="0"/>
        <pt x="368" y="623" on="1"/>
        <pt x="164" y="623" on="1"/>
        <pt x="182" y="654" on="1"/>
        <pt x="182" y="0" on="1"/>
        <pt x="103" y="0" on="1"/>
        <pt x="103" y="700" on="1"/>
        <pt x="378" y="700" on="1"/>
        <pt x="470" y="700" on="0"/>
        <pt x="596" y="576" on="0"/>
      </contour>
      <contour>
        <pt x="353" y="308" on="1"/>
        <pt x="430" y="334" on="1"/>
        <pt x="624" y="0" on="1"/>
        <pt x="529" y="0" on="1"/>
      </contour>
      <contour>
        <pt x="459" y="854" on="1"/>
        <pt x="292" y="760" on="1"/>
        <pt x="265" y="801" on="1"/>
        <pt x="408" y="919" on="1"/>
      </contour>
    </TTGlyph>
    <TTGlyph name="Rcaron" xMin="103" yMin="0" xMax="624" yMax="899">
      <contour>
        <pt x="596" y="483" on="1"/>
        <pt x="596" y="395" on="0"/>
        <pt x="473" y="276" on="0"/>
        <pt x="383" y="276" on="1"/>
        <pt x="163" y="276" on="1"/>
        <pt x="163" y="352" on="1"/>
        <pt x="391" y="352" on="1"/>
        <pt x="445" y="352" on="0"/>
        <pt x="514" y="426" on="0"/>
        <pt x="514" y="482" on="1"/>
        <pt x="514" y="544" on="0"/>
        <pt x="432" y="623" on="0"/>
        <pt x="368" y="623" on="1"/>
        <pt x="164" y="623" on="1"/>
        <pt x="182" y="654" on="1"/>
        <pt x="182" y="0" on="1"/>
        <pt x="103" y="0" on="1"/>
        <pt x="103" y="700" on="1"/>
        <pt x="378" y="700" on="1"/>
        <pt x="470" y="700" on="0"/>
        <pt x="596" y="576" on="0"/>
      </contour>
      <contour>
        <pt x="353" y="308" on="1"/>
        <pt x="430" y="334" on="1"/>
        <pt x="624" y="0" on="1"/>
        <pt x="529" y="0" on="1"/>
      </contour>
      <contour>
        <pt x="446" y="899" on="1"/>
        <pt x="315" y="814" on="1"/>
        <pt x="345" y="814" on="1"/>
        <pt x="214" y="899" on="1"/>
        <pt x="181" y="870" on="1"/>
        <pt x="293" y="763" on="1"/>
        <pt x="367" y="763" on="1"/>
        <pt x="479" y="870" on="1"/>
      </contour>
    </TTGlyph>
    <TTGlyph name="S" xMin="52" yMin="-10" xMax="554" yMax="708">
      <contour>
        <pt x="52" y="124" on="1"/>
        <pt x="107" y="185" on="1"/>
        <pt x="154" y="118" on="0"/>
        <pt x="252" y="64" on="0"/>
        <pt x="314" y="64" on="1"/>
        <pt x="382" y="64" on="0"/>
        <pt x="475" y="130" on="0"/>
        <pt x="475" y="182" on="1"/>
        <pt x="475" y="239" on="0"/>
        <pt x="380" y="296" on="0"/>
        <pt x="294" y="317" on="1"/>
        <pt x="192" y="341" on="0"/>
        <pt x="86" y="432" on="0"/>
        <pt x="86" y="516" on="1"/>
        <pt x="86" y="600" on="0"/>
        <pt x="218" y="708" on="0"/>
        <pt x="316" y="708" on="1"/>
        <pt x="396" y="708" on="0"/>
        <pt x="509" y="642" on="0"/>
        <pt x="545" y="584" on="1"/>
        <pt x="488" y="528" on="1"/>
        <pt x="457" y="578" on="0"/>
        <pt x="371" y="634" on="0"/>
        <pt x="314" y="634" on="1"/>
        <pt x="249" y="634" on="0"/>
        <pt x="166" y="569" on="0"/>
        <pt x="166" y="518" on="1"/>
        <pt x="166" y="468" on="0"/>
        <pt x="242" y="412" on="0"/>
        <pt x="329" y="392" on="1"/>
        <pt x="433" y="368" on="0"/>
        <pt x="554" y="276" on="0"/>
        <pt x="554" y="197" on="1"/>
        <pt x="554" y="105" on="0"/>
        <pt x="418" y="-10" on="0"/>
        <pt x="308" y="-10" on="1"/>
        <pt x="227" y="-10" on="0"/>
        <pt x="98" y="58" on="0"/>
      </contour>
    </TTGlyph>
    <TTGlyph name="Sacute" xMin="52" yMin="-10" xMax="554" yMax="919">
      <contour>
        <pt x="52" y="124" on="1"/>
        <pt x="107" y="185" on="1"/>
        <pt x="154" y="118" on="0"/>
        <pt x="252" y="64" on="0"/>
        <pt x="314" y="64" on="1"/>
        <pt x="382" y="64" on="0"/>
        <pt x="475" y="130" on="0"/>
        <pt x="475" y="182" on="1"/>
        <pt x="475" y="239" on="0"/>
        <pt x="380" y="296" on="0"/>
        <pt x="294" y="317" on="1"/>
        <pt x="192" y="341" on="0"/>
        <pt x="86" y="432" on="0"/>
        <pt x="86" y="516" on="1"/>
        <pt x="86" y="600" on="0"/>
        <pt x="218" y="708" on="0"/>
        <pt x="316" y="708" on="1"/>
        <pt x="396" y="708" on="0"/>
        <pt x="509" y="642" on="0"/>
        <pt x="545" y="584" on="1"/>
        <pt x="488" y="528" on="1"/>
        <pt x="457" y="578" on="0"/>
        <pt x="371" y="634" on="0"/>
        <pt x="314" y="634" on="1"/>
        <pt x="249" y="634" on="0"/>
        <pt x="166" y="569" on="0"/>
        <pt x="166" y="518" on="1"/>
        <pt x="166" y="468" on="0"/>
        <pt x="242" y="412" on="0"/>
        <pt x="329" y="392" on="1"/>
        <pt x="433" y="368" on="0"/>
        <pt x="554" y="276" on="0"/>
        <pt x="554" y="197" on="1"/>
        <pt x="554" y="105" on="0"/>
        <pt x="418" y="-10" on="0"/>
        <pt x="308" y="-10" on="1"/>
        <pt x="227" y="-10" on="0"/>
        <pt x="98" y="58" on="0"/>
      </contour>
      <contour>
        <pt x="445" y="854" on="1"/>
        <pt x="278" y="760" on="1"/>
        <pt x="250" y="801" on="1"/>
        <pt x="393" y="919" on="1"/>
      </contour>
    </TTGlyph>
    <TTGlyph name="Scaron" xMin="52" yMin="-10" xMax="554" yMax="899">
      <contour>
        <pt x="52" y="124" on="1"/>
        <pt x="107" y="185" on="1"/>
        <pt x="154" y="118" on="0"/>
        <pt x="252" y="64" on="0"/>
        <pt x="314" y="64" on="1"/>
        <pt x="382" y="64" on="0"/>
        <pt x="475" y="130" on="0"/>
        <pt x="475" y="182" on="1"/>
        <pt x="475" y="239" on="0"/>
        <pt x="380" y="296" on="0"/>
        <pt x="294" y="317" on="1"/>
        <pt x="192" y="341" on="0"/>
        <pt x="86" y="432" on="0"/>
        <pt x="86" y="516" on="1"/>
        <pt x="86" y="600" on="0"/>
        <pt x="218" y="708" on="0"/>
        <pt x="316" y="708" on="1"/>
        <pt x="396" y="708" on="0"/>
        <pt x="509" y="642" on="0"/>
        <pt x="545" y="584" on="1"/>
        <pt x="488" y="528" on="1"/>
        <pt x="457" y="578" on="0"/>
        <pt x="371" y="634" on="0"/>
        <pt x="314" y="634" on="1"/>
        <pt x="249" y="634" on="0"/>
        <pt x="166" y="569" on="0"/>
        <pt x="166" y="518" on="1"/>
        <pt x="166" y="468" on="0"/>
        <pt x="242" y="412" on="0"/>
        <pt x="329" y="392" on="1"/>
        <pt x="433" y="368" on="0"/>
        <pt x="554" y="276" on="0"/>
        <pt x="554" y="197" on="1"/>
        <pt x="554" y="105" on="0"/>
        <pt x="418" y="-10" on="0"/>
        <pt x="308" y="-10" on="1"/>
        <pt x="227" y="-10" on="0"/>
        <pt x="98" y="58" on="0"/>
      </contour>
      <contour>
        <pt x="431" y="899" on="1"/>
        <pt x="300" y="814" on="1"/>
        <pt x="330" y="814" on="1"/>
        <pt x="199" y="899" on="1"/>
        <pt x="166" y="870" on="1"/>
        <pt x="278" y="763" on="1"/>
        <pt x="352" y="763" on="1"/>
        <pt x="464" y="870" on="1"/>
      </contour>
    </TTGlyph>
    <TTGlyph name="Scedilla" xMin="52" yMin="-238" xMax="554" yMax="708">
      <contour>
        <pt x="52" y="124" on="1"/>
        <pt x="107" y="185" on="1"/>
        <pt x="154" y="118" on="0"/>
        <pt x="252" y="64" on="0"/>
        <pt x="314" y="64" on="1"/>
        <pt x="382" y="64" on="0"/>
        <pt x="475" y="130" on="0"/>
        <pt x="475" y="182" on="1"/>
        <pt x="475" y="239" on="0"/>
        <pt x="380" y="296" on="0"/>
        <pt x="294" y="317" on="1"/>
        <pt x="192" y="341" on="0"/>
        <pt x="86" y="432" on="0"/>
        <pt x="86" y="516" on="1"/>
        <pt x="86" y="600" on="0"/>
        <pt x="218" y="708" on="0"/>
        <pt x="316" y="708" on="1"/>
        <pt x="396" y="708" on="0"/>
        <pt x="509" y="642" on="0"/>
        <pt x="545" y="584" on="1"/>
        <pt x="488" y="528" on="1"/>
        <pt x="457" y="578" on="0"/>
        <pt x="371" y="634" on="0"/>
        <pt x="314" y="634" on="1"/>
        <pt x="249" y="634" on="0"/>
        <pt x="166" y="569" on="0"/>
        <pt x="166" y="518" on="1"/>
        <pt x="166" y="468" on="0"/>
        <pt x="242" y="412" on="0"/>
        <pt x="329" y="392" on="1"/>
        <pt x="433" y="368" on="0"/>
        <pt x="554" y="276" on="0"/>
        <pt x="554" y="197" on="1"/>
        <pt x="554" y="105" on="0"/>
        <pt x="418" y="-10" on="0"/>
        <pt x="308" y="-10" on="1"/>
        <pt x="227" y="-10" on="0"/>
        <pt x="98" y="58" on="0"/>
      </contour>
      <contour>
        <pt x="292" y="-96" on="1"/>
        <pt x="242" y="-89" on="1"/>
        <pt x="308" y="14" on="1"/>
        <pt x="360" y="14" on="1"/>
      </contour>
      <contour>
        <pt x="414" y="-138" on="1"/>
        <pt x="414" y="-160" on="0"/>
        <pt x="379" y="-206" on="0"/>
        <pt x="350" y="-219" on="1"/>
        <pt x="326" y="-229" on="0"/>
        <pt x="272" y="-238" on="0"/>
        <pt x="238" y="-238" on="1"/>
        <pt x="232" y="-195" on="1"/>
        <pt x="272" y="-194" on="0"/>
        <pt x="347" y="-164" on="0"/>
        <pt x="347" y="-140" on="1"/>
        <pt x="347" y="-124" on="0"/>
        <pt x="299" y="-100" on="0"/>
        <pt x="256" y="-99" on="1"/>
        <pt x="242" y="-91" on="1"/>
        <pt x="242" y="-89" on="1"/>
        <pt x="292" y="-50" on="1"/>
        <pt x="352" y="-57" on="0"/>
        <pt x="414" y="-102" on="0"/>
      </contour>
    </TTGlyph>
    <TTGlyph name="Scircumflex" xMin="52" yMin="-10" xMax="554" yMax="895">
      <contour>
        <pt x="52" y="124" on="1"/>
        <pt x="107" y="185" on="1"/>
        <pt x="154" y="118" on="0"/>
        <pt x="252" y="64" on="0"/>
        <pt x="314" y="64" on="1"/>
        <pt x="382" y="64" on="0"/>
        <pt x="475" y="130" on="0"/>
        <pt x="475" y="182" on="1"/>
        <pt x="475" y="239" on="0"/>
        <pt x="380" y="296" on="0"/>
        <pt x="294" y="317" on="1"/>
        <pt x="192" y="341" on="0"/>
        <pt x="86" y="432" on="0"/>
        <pt x="86" y="516" on="1"/>
        <pt x="86" y="600" on="0"/>
        <pt x="218" y="708" on="0"/>
        <pt x="316" y="708" on="1"/>
        <pt x="396" y="708" on="0"/>
        <pt x="509" y="642" on="0"/>
        <pt x="545" y="584" on="1"/>
        <pt x="488" y="528" on="1"/>
        <pt x="457" y="578" on="0"/>
        <pt x="371" y="634" on="0"/>
        <pt x="314" y="634" on="1"/>
        <pt x="249" y="634" on="0"/>
        <pt x="166" y="569" on="0"/>
        <pt x="166" y="518" on="1"/>
        <pt x="166" y="468" on="0"/>
        <pt x="242" y="412" on="0"/>
        <pt x="329" y="392" on="1"/>
        <pt x="433" y="368" on="0"/>
        <pt x="554" y="276" on="0"/>
        <pt x="554" y="197" on="1"/>
        <pt x="554" y="105" on="0"/>
        <pt x="418" y="-10" on="0"/>
        <pt x="308" y="-10" on="1"/>
        <pt x="227" y="-10" on="0"/>
        <pt x="98" y="58" on="0"/>
      </contour>
      <contour>
        <pt x="437" y="759" on="1"/>
        <pt x="302" y="844" on="1"/>
        <pt x="331" y="844" on="1"/>
        <pt x="196" y="759" on="1"/>
        <pt x="164" y="789" on="1"/>
        <pt x="283" y="895" on="1"/>
        <pt x="350" y="895" on="1"/>
        <pt x="469" y="789" on="1"/>
      </contour>
    </TTGlyph>
    <TTGlyph name="T" xMin="30" yMin="0" xMax="516" yMax="700">
      <contour>
        <pt x="310" y="0" on="1"/>
        <pt x="230" y="0" on="1"/>
        <pt x="230" y="664" on="1"/>
        <pt x="310" y="664" on="1"/>
      </contour>
      <contour>
        <pt x="516" y="623" on="1"/>
        <pt x="30" y="623" on="1"/>
        <pt x="30" y="700" on="1"/>
        <pt x="516" y="700" on="1"/>
      </contour>
    </TTGlyph>
    <TTGlyph name="Tbar" xMin="30" yMin="0" xMax="516" yMax="700">
      <contour>
        <pt x="310" y="0" on="1"/>
        <pt x="230" y="0" on="1"/>
        <pt x="230" y="664" on="1"/>
        <pt x="310" y="664" on="1"/>
      </contour>
      <contour>
        <pt x="516" y="623" on="1"/>
        <pt x="30" y="623" on="1"/>
        <pt x="30" y="700" on="1"/>
        <pt x="516" y="700" on="1"/>
      </contour>
      <contour>
        <pt x="411" y="317" on="1"/>
        <pt x="143" y="317" on="1"/>
        <pt x="143" y="385" on="1"/>
        <pt x="411" y="385" on="1"/>
      </contour>
    </TTGlyph>
    <TTGlyph name="Tcaron" xMin="30" yMin="0" xMax="516" yMax="899">
      <contour>
        <pt x="310" y="0" on="1"/>
        <pt x="230" y="0" on="1"/>
        <pt x="230" y="664" on="1"/>
        <pt x="310" y="664" on="1"/>
      </contour>
      <contour>
        <pt x="516" y="623" on="1"/>
        <pt x="30" y="623" on="1"/>
        <pt x="30" y="700" on="1"/>
        <pt x="516" y="700" on="1"/>
      </contour>
      <contour>
        <pt x="388" y="899" on="1"/>
        <pt x="256" y="814" on="1"/>
        <pt x="286" y="814" on="1"/>
        <pt x="156" y="899" on="1"/>
        <pt x="122" y="870" on="1"/>
        <pt x="234" y="763" on="1"/>
        <pt x="308" y="763" on="1"/>
        <pt x="420" y="870" on="1"/>
      </contour>
    </TTGlyph>
    <TTGlyph name="Thorn" xMin="103" yMin="0" xMax="564" yMax="700">
      <contour>
        <pt x="103" y="700" on="1"/>
        <pt x="182" y="700" on="1"/>
        <pt x="182" y="0" on="1"/>
        <pt x="103" y="0" on="1"/>
      </contour>
      <contour>
        <pt x="167" y="151" on="1"/>
        <pt x="166" y="230" on="1"/>
        <pt x="364" y="230" on="1"/>
        <pt x="417" y="230" on="0"/>
        <pt x="482" y="306" on="0"/>
        <pt x="482" y="358" on="1"/>
        <pt x="482" y="410" on="0"/>
        <pt x="416" y="484" on="0"/>
        <pt x="364" y="484" on="1"/>
        <pt x="142" y="484" on="1"/>
        <pt x="128" y="563" on="1"/>
        <pt x="366" y="563" on="1"/>
        <pt x="449" y="563" on="0"/>
        <pt x="564" y="444" on="0"/>
        <pt x="564" y="358" on="1"/>
        <pt x="564" y="272" on="0"/>
        <pt x="449" y="151" on="0"/>
        <pt x="366" y="151" on="1"/>
      </contour>
    </TTGlyph>
    <TTGlyph name="U" xMin="98" yMin="-6" xMax="648" yMax="701">
      <contour>
        <pt x="572" y="701" on="1"/>
        <pt x="648" y="701" on="1"/>
        <pt x="648" y="269" on="1"/>
        <pt x="648" y="150" on="0"/>
        <pt x="492" y="-6" on="0"/>
        <pt x="372" y="-6" on="1"/>
        <pt x="253" y="-6" on="0"/>
        <pt x="98" y="150" on="0"/>
        <pt x="98" y="269" on="1"/>
        <pt x="98" y="701" on="1"/>
        <pt x="177" y="701" on="1"/>
        <pt x="177" y="278" on="1"/>
        <pt x="177" y="189" on="0"/>
        <pt x="290" y="71" on="0"/>
        <pt x="372" y="71" on="1"/>
        <pt x="458" y="71" on="0"/>
        <pt x="572" y="189" on="0"/>
        <pt x="572" y="278" on="1"/>
      </contour>
    </TTGlyph>
    <TTGlyph name="Uacute" xMin="98" yMin="-6" xMax="648" yMax="919">
      <contour>
        <pt x="572" y="701" on="1"/>
        <pt x="648" y="701" on="1"/>
        <pt x="648" y="269" on="1"/>
        <pt x="648" y="150" on="0"/>
        <pt x="492" y="-6" on="0"/>
        <pt x="372" y="-6" on="1"/>
        <pt x="253" y="-6" on="0"/>
        <pt x="98" y="150" on="0"/>
        <pt x="98" y="269" on="1"/>
        <pt x="98" y="701" on="1"/>
        <pt x="177" y="701" on="1"/>
        <pt x="177" y="278" on="1"/>
        <pt x="177" y="189" on="0"/>
        <pt x="290" y="71" on="0"/>
        <pt x="372" y="71" on="1"/>
        <pt x="458" y="71" on="0"/>
        <pt x="572" y="189" on="0"/>
        <pt x="572" y="278" on="1"/>
      </contour>
      <contour>
        <pt x="510" y="854" on="1"/>
        <pt x="343" y="760" on="1"/>
        <pt x="316" y="801" on="1"/>
        <pt x="459" y="919" on="1"/>
      </contour>
    </TTGlyph>
    <TTGlyph name="Ubreve" xMin="98" yMin="-6" xMax="648" yMax="912">
      <contour>
        <pt x="572" y="701" on="1"/>
        <pt x="648" y="701" on="1"/>
        <pt x="648" y="269" on="1"/>
        <pt x="648" y="150" on="0"/>
        <pt x="492" y="-6" on="0"/>
        <pt x="372" y="-6" on="1"/>
        <pt x="253" y="-6" on="0"/>
        <pt x="98" y="150" on="0"/>
        <pt x="98" y="269" on="1"/>
        <pt x="98" y="701" on="1"/>
        <pt x="177" y="701" on="1"/>
        <pt x="177" y="278" on="1"/>
        <pt x="177" y="189" on="0"/>
        <pt x="290" y="71" on="0"/>
        <pt x="372" y="71" on="1"/>
        <pt x="458" y="71" on="0"/>
        <pt x="572" y="189" on="0"/>
        <pt x="572" y="278" on="1"/>
      </contour>
      <contour>
        <pt x="372" y="760" on="1"/>
        <pt x="314" y="760" on="0"/>
        <pt x="233" y="838" on="0"/>
        <pt x="220" y="904" on="1"/>
        <pt x="278" y="912" on="1"/>
        <pt x="290" y="870" on="0"/>
        <pt x="341" y="822" on="0"/>
        <pt x="372" y="822" on="1"/>
        <pt x="402" y="822" on="0"/>
        <pt x="454" y="870" on="0"/>
        <pt x="465" y="912" on="1"/>
        <pt x="524" y="904" on="1"/>
        <pt x="511" y="838" on="0"/>
        <pt x="429" y="760" on="0"/>
      </contour>
    </TTGlyph>
    <TTGlyph name="Ucircumflex" xMin="98" yMin="-6" xMax="648" yMax="895">
      <contour>
        <pt x="572" y="701" on="1"/>
        <pt x="648" y="701" on="1"/>
        <pt x="648" y="269" on="1"/>
        <pt x="648" y="150" on="0"/>
        <pt x="492" y="-6" on="0"/>
        <pt x="372" y="-6" on="1"/>
        <pt x="253" y="-6" on="0"/>
        <pt x="98" y="150" on="0"/>
        <pt x="98" y="269" on="1"/>
        <pt x="98" y="701" on="1"/>
        <pt x="177" y="701" on="1"/>
        <pt x="177" y="278" on="1"/>
        <pt x="177" y="189" on="0"/>
        <pt x="290" y="71" on="0"/>
        <pt x="372" y="71" on="1"/>
        <pt x="458" y="71" on="0"/>
        <pt x="572" y="189" on="0"/>
        <pt x="572" y="278" on="1"/>
      </contour>
      <contour>
        <pt x="493" y="759" on="1"/>
        <pt x="358" y="844" on="1"/>
        <pt x="388" y="844" on="1"/>
        <pt x="253" y="759" on="1"/>
        <pt x="220" y="789" on="1"/>
        <pt x="339" y="895" on="1"/>
        <pt x="407" y="895" on="1"/>
        <pt x="526" y="789" on="1"/>
      </contour>
    </TTGlyph>
    <TTGlyph name="Udieresis" xMin="98" yMin="-6" xMax="648" yMax="870">
      <contour>
        <pt x="572" y="701" on="1"/>
        <pt x="648" y="701" on="1"/>
        <pt x="648" y="269" on="1"/>
        <pt x="648" y="150" on="0"/>
        <pt x="492" y="-6" on="0"/>
        <pt x="372" y="-6" on="1"/>
        <pt x="253" y="-6" on="0"/>
        <pt x="98" y="150" on="0"/>
        <pt x="98" y="269" on="1"/>
        <pt x="98" y="701" on="1"/>
        <pt x="177" y="701" on="1"/>
        <pt x="177" y="278" on="1"/>
        <pt x="177" y="189" on="0"/>
        <pt x="290" y="71" on="0"/>
        <pt x="372" y="71" on="1"/>
        <pt x="458" y="71" on="0"/>
        <pt x="572" y="189" on="0"/>
        <pt x="572" y="278" on="1"/>
      </contour>
      <contour>
        <pt x="330" y="814" on="1"/>
        <pt x="330" y="790" on="0"/>
        <pt x="300" y="760" on="0"/>
        <pt x="273" y="760" on="1"/>
        <pt x="245" y="760" on="0"/>
        <pt x="215" y="788" on="0"/>
        <pt x="215" y="814" on="1"/>
        <pt x="215" y="839" on="0"/>
        <pt x="246" y="870" on="0"/>
        <pt x="273" y="870" on="1"/>
        <pt x="300" y="870" on="0"/>
        <pt x="330" y="840" on="0"/>
      </contour>
      <contour>
        <pt x="533" y="814" on="1"/>
        <pt x="533" y="790" on="0"/>
        <pt x="503" y="760" on="0"/>
        <pt x="476" y="760" on="1"/>
        <pt x="448" y="760" on="0"/>
        <pt x="418" y="788" on="0"/>
        <pt x="418" y="814" on="1"/>
        <pt x="418" y="839" on="0"/>
        <pt x="449" y="870" on="0"/>
        <pt x="476" y="870" on="1"/>
        <pt x="503" y="870" on="0"/>
        <pt x="533" y="840" on="0"/>
      </contour>
    </TTGlyph>
    <TTGlyph name="Ugrave" xMin="98" yMin="-6" xMax="648" yMax="921">
      <contour>
        <pt x="572" y="701" on="1"/>
        <pt x="648" y="701" on="1"/>
        <pt x="648" y="269" on="1"/>
        <pt x="648" y="150" on="0"/>
        <pt x="492" y="-6" on="0"/>
        <pt x="372" y="-6" on="1"/>
        <pt x="253" y="-6" on="0"/>
        <pt x="98" y="150" on="0"/>
        <pt x="98" y="269" on="1"/>
        <pt x="98" y="701" on="1"/>
        <pt x="177" y="701" on="1"/>
        <pt x="177" y="278" on="1"/>
        <pt x="177" y="189" on="0"/>
        <pt x="290" y="71" on="0"/>
        <pt x="372" y="71" on="1"/>
        <pt x="458" y="71" on="0"/>
        <pt x="572" y="189" on="0"/>
        <pt x="572" y="278" on="1"/>
      </contour>
      <contour>
        <pt x="442" y="803" on="1"/>
        <pt x="414" y="762" on="1"/>
        <pt x="247" y="856" on="1"/>
        <pt x="299" y="921" on="1"/>
      </contour>
    </TTGlyph>
    <TTGlyph name="Uhorn" xMin="98" yMin="-7" xMax="767" yMax="812">
      <contour>
        <pt x="572" y="700" on="1"/>
        <pt x="648" y="700" on="1"/>
        <pt x="648" y="268" on="1"/>
        <pt x="648" y="148" on="0"/>
        <pt x="492" y="-7" on="0"/>
        <pt x="372" y="-7" on="1"/>
        <pt x="253" y="-7" on="0"/>
        <pt x="98" y="148" on="0"/>
        <pt x="98" y="268" on="1"/>
        <pt x="98" y="700" on="1"/>
        <pt x="177" y="700" on="1"/>
        <pt x="177" y="277" on="1"/>
        <pt x="177" y="188" on="0"/>
        <pt x="290" y="70" on="0"/>
        <pt x="372" y="70" on="1"/>
        <pt x="458" y="70" on="0"/>
        <pt x="572" y="188" on="0"/>
        <pt x="572" y="277" on="1"/>
      </contour>
      <contour>
        <pt x="591" y="641" on="1"/>
        <pt x="591" y="700" on="1"/>
        <pt x="644" y="700" on="0"/>
        <pt x="697" y="756" on="0"/>
        <pt x="697" y="812" on="1"/>
        <pt x="767" y="812" on="1"/>
        <pt x="767" y="733" on="0"/>
        <pt x="674" y="641" on="0"/>
      </contour>
    </TTGlyph>
    <TTGlyph name="Uhungarumlaut" xMin="98" yMin="-6" xMax="648" yMax="918">
      <contour>
        <pt x="572" y="701" on="1"/>
        <pt x="648" y="701" on="1"/>
        <pt x="648" y="269" on="1"/>
        <pt x="648" y="150" on="0"/>
        <pt x="492" y="-6" on="0"/>
        <pt x="372" y="-6" on="1"/>
        <pt x="253" y="-6" on="0"/>
        <pt x="98" y="150" on="0"/>
        <pt x="98" y="269" on="1"/>
        <pt x="98" y="701" on="1"/>
        <pt x="177" y="701" on="1"/>
        <pt x="177" y="278" on="1"/>
        <pt x="177" y="189" on="0"/>
        <pt x="290" y="71" on="0"/>
        <pt x="372" y="71" on="1"/>
        <pt x="458" y="71" on="0"/>
        <pt x="572" y="189" on="0"/>
        <pt x="572" y="278" on="1"/>
      </contour>
      <contour>
        <pt x="450" y="854" on="1"/>
        <pt x="286" y="756" on="1"/>
        <pt x="258" y="798" on="1"/>
        <pt x="401" y="918" on="1"/>
      </contour>
      <contour>
        <pt x="624" y="854" on="1"/>
        <pt x="460" y="756" on="1"/>
        <pt x="433" y="798" on="1"/>
        <pt x="575" y="918" on="1"/>
      </contour>
    </TTGlyph>
    <TTGlyph name="Umacron" xMin="98" yMin="-6" xMax="648" yMax="834">
      <contour>
        <pt x="572" y="701" on="1"/>
        <pt x="648" y="701" on="1"/>
        <pt x="648" y="269" on="1"/>
        <pt x="648" y="150" on="0"/>
        <pt x="492" y="-6" on="0"/>
        <pt x="372" y="-6" on="1"/>
        <pt x="253" y="-6" on="0"/>
        <pt x="98" y="150" on="0"/>
        <pt x="98" y="269" on="1"/>
        <pt x="98" y="701" on="1"/>
        <pt x="177" y="701" on="1"/>
        <pt x="177" y="278" on="1"/>
        <pt x="177" y="189" on="0"/>
        <pt x="290" y="71" on="0"/>
        <pt x="372" y="71" on="1"/>
        <pt x="458" y="71" on="0"/>
        <pt x="572" y="189" on="0"/>
        <pt x="572" y="278" on="1"/>
      </contour>
      <contour>
        <pt x="528" y="773" on="1"/>
        <pt x="220" y="773" on="1"/>
        <pt x="220" y="834" on="1"/>
        <pt x="528" y="834" on="1"/>
      </contour>
    </TTGlyph>
    <TTGlyph name="Uogonek" xMin="95" yMin="-211" xMax="646" yMax="701">
      <contour>
        <pt x="369" y="-12" on="1"/>
        <pt x="251" y="-12" on="0"/>
        <pt x="95" y="151" on="0"/>
        <pt x="95" y="269" on="1"/>
        <pt x="95" y="701" on="1"/>
        <pt x="174" y="701" on="1"/>
        <pt x="174" y="278" on="1"/>
        <pt x="174" y="187" on="0"/>
        <pt x="286" y="66" on="0"/>
        <pt x="369" y="66" on="1"/>
        <pt x="455" y="66" on="0"/>
        <pt x="570" y="186" on="0"/>
        <pt x="570" y="278" on="1"/>
        <pt x="570" y="701" on="1"/>
        <pt x="646" y="701" on="1"/>
        <pt x="646" y="269" on="1"/>
        <pt x="646" y="182" on="0"/>
        <pt x="553" y="36" on="0"/>
        <pt x="459" y="3" on="1"/>
        <pt x="427" y="-8" on="0"/>
        <pt x="370" y="-68" on="0"/>
        <pt x="370" y="-97" on="1"/>
        <pt x="370" y="-122" on="0"/>
        <pt x="402" y="-151" on="0"/>
        <pt x="427" y="-151" on="1"/>
        <pt x="444" y="-151" on="0"/>
        <pt x="470" y="-136" on="0"/>
        <pt x="480" y="-122" on="1"/>
        <pt x="524" y="-154" on="1"/>
        <pt x="510" y="-180" on="0"/>
        <pt x="453" y="-211" on="0"/>
        <pt x="418" y="-211" on="1"/>
        <pt x="372" y="-211" on="0"/>
        <pt x="306" y="-150" on="0"/>
        <pt x="306" y="-104" on="1"/>
        <pt x="306" y="-55" on="0"/>
        <pt x="383" y="18" on="0"/>
        <pt x="444" y="41" on="1"/>
        <pt x="441" y="3" on="1"/>
        <pt x="418" y="-4" on="0"/>
        <pt x="382" y="-12" on="0"/>
      </contour>
    </TTGlyph>
    <TTGlyph name="Uring" xMin="98" yMin="-6" xMax="648" yMax="970">
      <contour>
        <pt x="572" y="701" on="1"/>
        <pt x="648" y="701" on="1"/>
        <pt x="648" y="269" on="1"/>
        <pt x="648" y="150" on="0"/>
        <pt x="492" y="-6" on="0"/>
        <pt x="372" y="-6" on="1"/>
        <pt x="253" y="-6" on="0"/>
        <pt x="98" y="150" on="0"/>
        <pt x="98" y="269" on="1"/>
        <pt x="98" y="701" on="1"/>
        <pt x="177" y="701" on="1"/>
        <pt x="177" y="278" on="1"/>
        <pt x="177" y="189" on="0"/>
        <pt x="290" y="71" on="0"/>
        <pt x="372" y="71" on="1"/>
        <pt x="458" y="71" on="0"/>
        <pt x="572" y="189" on="0"/>
        <pt x="572" y="278" on="1"/>
      </contour>
      <contour>
        <pt x="483" y="864" on="1"/>
        <pt x="483" y="822" on="0"/>
        <pt x="417" y="758" on="0"/>
        <pt x="373" y="758" on="1"/>
        <pt x="330" y="758" on="0"/>
        <pt x="264" y="822" on="0"/>
        <pt x="264" y="864" on="1"/>
        <pt x="264" y="906" on="0"/>
        <pt x="329" y="970" on="0"/>
        <pt x="373" y="970" on="1"/>
        <pt x="417" y="970" on="0"/>
        <pt x="483" y="906" on="0"/>
      </contour>
      <contour>
        <pt x="314" y="864" on="1"/>
        <pt x="314" y="840" on="0"/>
        <pt x="349" y="808" on="0"/>
        <pt x="373" y="808" on="1"/>
        <pt x="398" y="808" on="0"/>
        <pt x="433" y="840" on="0"/>
        <pt x="433" y="864" on="1"/>
        <pt x="433" y="889" on="0"/>
        <pt x="398" y="920" on="0"/>
        <pt x="373" y="920" on="1"/>
        <pt x="348" y="920" on="0"/>
        <pt x="314" y="888" on="0"/>
      </contour>
    </TTGlyph>
    <TTGlyph name="Utilde" xMin="98" yMin="-6" xMax="648" yMax="894">
      <contour>
        <pt x="572" y="701" on="1"/>
        <pt x="648" y="701" on="1"/>
        <pt x="648" y="269" on="1"/>
        <pt x="648" y="150" on="0"/>
        <pt x="492" y="-6" on="0"/>
        <pt x="372" y="-6" on="1"/>
        <pt x="253" y="-6" on="0"/>
        <pt x="98" y="150" on="0"/>
        <pt x="98" y="269" on="1"/>
        <pt x="98" y="701" on="1"/>
        <pt x="177" y="701" on="1"/>
        <pt x="177" y="278" on="1"/>
        <pt x="177" y="189" on="0"/>
        <pt x="290" y="71" on="0"/>
        <pt x="372" y="71" on="1"/>
        <pt x="458" y="71" on="0"/>
        <pt x="572" y="189" on="0"/>
        <pt x="572" y="278" on="1"/>
      </contour>
      <contour>
        <pt x="276" y="794" on="1"/>
        <pt x="214" y="794" on="1"/>
        <pt x="214" y="840" on="0"/>
        <pt x="266" y="894" on="0"/>
        <pt x="306" y="894" on="1"/>
        <pt x="325" y="894" on="0"/>
        <pt x="363" y="882" on="0"/>
        <pt x="390" y="870" on="1"/>
        <pt x="409" y="861" on="0"/>
        <pt x="433" y="852" on="0"/>
        <pt x="442" y="852" on="1"/>
        <pt x="456" y="852" on="0"/>
        <pt x="474" y="874" on="0"/>
        <pt x="473" y="894" on="1"/>
        <pt x="534" y="894" on="1"/>
        <pt x="534" y="849" on="0"/>
        <pt x="486" y="792" on="0"/>
        <pt x="448" y="792" on="1"/>
        <pt x="429" y="792" on="0"/>
        <pt x="389" y="806" on="0"/>
        <pt x="358" y="818" on="1"/>
        <pt x="340" y="826" on="0"/>
        <pt x="316" y="834" on="0"/>
        <pt x="308" y="834" on="1"/>
        <pt x="294" y="834" on="0"/>
        <pt x="276" y="813" on="0"/>
      </contour>
    </TTGlyph>
    <TTGlyph name="V" xMin="24" yMin="0" xMax="656" yMax="700">
      <contour>
        <pt x="296" y="0" on="1"/>
        <pt x="24" y="700" on="1"/>
        <pt x="114" y="700" on="1"/>
        <pt x="288" y="246" on="1"/>
        <pt x="312" y="184" on="0"/>
        <pt x="340" y="105" on="0"/>
        <pt x="355" y="56" on="1"/>
        <pt x="328" y="56" on="1"/>
        <pt x="344" y="106" on="0"/>
        <pt x="372" y="188" on="0"/>
        <pt x="395" y="248" on="1"/>
        <pt x="566" y="700" on="1"/>
        <pt x="656" y="700" on="1"/>
        <pt x="378" y="0" on="1"/>
      </contour>
    </TTGlyph>
    <TTGlyph name="W" xMin="24" yMin="0" xMax="932" yMax="700">
      <contour>
        <pt x="236" y="0" on="1"/>
        <pt x="24" y="700" on="1"/>
        <pt x="110" y="700" on="1"/>
        <pt x="245" y="239" on="1"/>
        <pt x="259" y="192" on="0"/>
        <pt x="276" y="113" on="0"/>
        <pt x="284" y="74" on="1"/>
        <pt x="266" y="74" on="1"/>
        <pt x="278" y="115" on="0"/>
        <pt x="304" y="196" on="0"/>
        <pt x="322" y="242" on="1"/>
        <pt x="440" y="540" on="1"/>
        <pt x="514" y="540" on="1"/>
        <pt x="634" y="240" on="1"/>
        <pt x="652" y="196" on="0"/>
        <pt x="671" y="148" on="0"/>
        <pt x="688" y="78" on="1"/>
        <pt x="672" y="75" on="1"/>
        <pt x="686" y="146" on="0"/>
        <pt x="698" y="196" on="0"/>
        <pt x="712" y="244" on="1"/>
        <pt x="847" y="700" on="1"/>
        <pt x="932" y="700" on="1"/>
        <pt x="719" y="0" on="1"/>
        <pt x="654" y="0" on="1"/>
        <pt x="465" y="450" on="1"/>
        <pt x="482" y="447" on="1"/>
        <pt x="300" y="0" on="1"/>
      </contour>
    </TTGlyph>
    <TTGlyph name="Wacute" xMin="24" yMin="0" xMax="932" yMax="919">
      <contour>
        <pt x="236" y="0" on="1"/>
        <pt x="24" y="700" on="1"/>
        <pt x="110" y="700" on="1"/>
        <pt x="245" y="239" on="1"/>
        <pt x="259" y="192" on="0"/>
        <pt x="276" y="113" on="0"/>
        <pt x="284" y="74" on="1"/>
        <pt x="266" y="74" on="1"/>
        <pt x="278" y="115" on="0"/>
        <pt x="304" y="196" on="0"/>
        <pt x="322" y="242" on="1"/>
        <pt x="440" y="540" on="1"/>
        <pt x="514" y="540" on="1"/>
        <pt x="634" y="240" on="1"/>
        <pt x="652" y="196" on="0"/>
        <pt x="671" y="148" on="0"/>
        <pt x="688" y="78" on="1"/>
        <pt x="672" y="75" on="1"/>
        <pt x="686" y="146" on="0"/>
        <pt x="698" y="196" on="0"/>
        <pt x="712" y="244" on="1"/>
        <pt x="847" y="700" on="1"/>
        <pt x="932" y="700" on="1"/>
        <pt x="719" y="0" on="1"/>
        <pt x="654" y="0" on="1"/>
        <pt x="465" y="450" on="1"/>
        <pt x="482" y="447" on="1"/>
        <pt x="300" y="0" on="1"/>
      </contour>
      <contour>
        <pt x="597" y="854" on="1"/>
        <pt x="430" y="760" on="1"/>
        <pt x="402" y="801" on="1"/>
        <pt x="546" y="919" on="1"/>
      </contour>
    </TTGlyph>
    <TTGlyph name="Wcircumflex" xMin="24" yMin="0" xMax="932" yMax="895">
      <contour>
        <pt x="236" y="0" on="1"/>
        <pt x="24" y="700" on="1"/>
        <pt x="110" y="700" on="1"/>
        <pt x="245" y="239" on="1"/>
        <pt x="259" y="192" on="0"/>
        <pt x="276" y="113" on="0"/>
        <pt x="284" y="74" on="1"/>
        <pt x="266" y="74" on="1"/>
        <pt x="278" y="115" on="0"/>
        <pt x="304" y="196" on="0"/>
        <pt x="322" y="242" on="1"/>
        <pt x="440" y="540" on="1"/>
        <pt x="514" y="540" on="1"/>
        <pt x="634" y="240" on="1"/>
        <pt x="652" y="196" on="0"/>
        <pt x="671" y="148" on="0"/>
        <pt x="688" y="78" on="1"/>
        <pt x="672" y="75" on="1"/>
        <pt x="686" y="146" on="0"/>
        <pt x="698" y="196" on="0"/>
        <pt x="712" y="244" on="1"/>
        <pt x="847" y="700" on="1"/>
        <pt x="932" y="700" on="1"/>
        <pt x="719" y="0" on="1"/>
        <pt x="654" y="0" on="1"/>
        <pt x="465" y="450" on="1"/>
        <pt x="482" y="447" on="1"/>
        <pt x="300" y="0" on="1"/>
      </contour>
      <contour>
        <pt x="598" y="759" on="1"/>
        <pt x="463" y="844" on="1"/>
        <pt x="492" y="844" on="1"/>
        <pt x="357" y="759" on="1"/>
        <pt x="325" y="789" on="1"/>
        <pt x="444" y="895" on="1"/>
        <pt x="511" y="895" on="1"/>
        <pt x="630" y="789" on="1"/>
      </contour>
    </TTGlyph>
    <TTGlyph name="Wdieresis" xMin="24" yMin="0" xMax="932" yMax="870">
      <contour>
        <pt x="236" y="0" on="1"/>
        <pt x="24" y="700" on="1"/>
        <pt x="110" y="700" on="1"/>
        <pt x="245" y="239" on="1"/>
        <pt x="259" y="192" on="0"/>
        <pt x="276" y="113" on="0"/>
        <pt x="284" y="74" on="1"/>
        <pt x="266" y="74" on="1"/>
        <pt x="278" y="115" on="0"/>
        <pt x="304" y="196" on="0"/>
        <pt x="322" y="242" on="1"/>
        <pt x="440" y="540" on="1"/>
        <pt x="514" y="540" on="1"/>
        <pt x="634" y="240" on="1"/>
        <pt x="652" y="196" on="0"/>
        <pt x="671" y="148" on="0"/>
        <pt x="688" y="78" on="1"/>
        <pt x="672" y="75" on="1"/>
        <pt x="686" y="146" on="0"/>
        <pt x="698" y="196" on="0"/>
        <pt x="712" y="244" on="1"/>
        <pt x="847" y="700" on="1"/>
        <pt x="932" y="700" on="1"/>
        <pt x="719" y="0" on="1"/>
        <pt x="654" y="0" on="1"/>
        <pt x="465" y="450" on="1"/>
        <pt x="482" y="447" on="1"/>
        <pt x="300" y="0" on="1"/>
      </contour>
      <contour>
        <pt x="435" y="814" on="1"/>
        <pt x="435" y="790" on="0"/>
        <pt x="404" y="760" on="0"/>
        <pt x="377" y="760" on="1"/>
        <pt x="350" y="760" on="0"/>
        <pt x="320" y="788" on="0"/>
        <pt x="320" y="814" on="1"/>
        <pt x="320" y="839" on="0"/>
        <pt x="350" y="870" on="0"/>
        <pt x="377" y="870" on="1"/>
        <pt x="405" y="870" on="0"/>
        <pt x="435" y="840" on="0"/>
      </contour>
      <contour>
        <pt x="638" y="814" on="1"/>
        <pt x="638" y="790" on="0"/>
        <pt x="607" y="760" on="0"/>
        <pt x="580" y="760" on="1"/>
        <pt x="553" y="760" on="0"/>
        <pt x="523" y="788" on="0"/>
        <pt x="523" y="814" on="1"/>
        <pt x="523" y="839" on="0"/>
        <pt x="553" y="870" on="0"/>
        <pt x="580" y="870" on="1"/>
        <pt x="608" y="870" on="0"/>
        <pt x="638" y="840" on="0"/>
      </contour>
    </TTGlyph>
    <TTGlyph name="Wgrave" xMin="24" yMin="0" xMax="932" yMax="921">
      <contour>
        <pt x="236" y="0" on="1"/>
        <pt x="24" y="700" on="1"/>
        <pt x="110" y="700" on="1"/>
        <pt x="245" y="239" on="1"/>
        <pt x="259" y="192" on="0"/>
        <pt x="276" y="113" on="0"/>
        <pt x="284" y="74" on="1"/>
        <pt x="266" y="74" on="1"/>
        <pt x="278" y="115" on="0"/>
        <pt x="304" y="196" on="0"/>
        <pt x="322" y="242" on="1"/>
        <pt x="440" y="540" on="1"/>
        <pt x="514" y="540" on="1"/>
        <pt x="634" y="240" on="1"/>
        <pt x="652" y="196" on="0"/>
        <pt x="671" y="148" on="0"/>
        <pt x="688" y="78" on="1"/>
        <pt x="672" y="75" on="1"/>
        <pt x="686" y="146" on="0"/>
        <pt x="698" y="196" on="0"/>
        <pt x="712" y="244" on="1"/>
        <pt x="847" y="700" on="1"/>
        <pt x="932" y="700" on="1"/>
        <pt x="719" y="0" on="1"/>
        <pt x="654" y="0" on="1"/>
        <pt x="465" y="450" on="1"/>
        <pt x="482" y="447" on="1"/>
        <pt x="300" y="0" on="1"/>
      </contour>
      <contour>
        <pt x="557" y="803" on="1"/>
        <pt x="530" y="762" on="1"/>
        <pt x="362" y="856" on="1"/>
        <pt x="414" y="921" on="1"/>
      </contour>
    </TTGlyph>
    <TTGlyph name="X" xMin="24" yMin="0" xMax="629" yMax="700">
      <contour>
        <pt x="527" y="700" on="1"/>
        <pt x="619" y="700" on="1"/>
        <pt x="362" y="332" on="1"/>
        <pt x="314" y="388" on="1"/>
      </contour>
      <contour>
        <pt x="30" y="700" on="1"/>
        <pt x="129" y="700" on="1"/>
        <pt x="346" y="390" on="1"/>
        <pt x="629" y="0" on="1"/>
        <pt x="530" y="0" on="1"/>
        <pt x="308" y="314" on="1"/>
      </contour>
      <contour>
        <pt x="116" y="0" on="1"/>
        <pt x="24" y="0" on="1"/>
        <pt x="289" y="378" on="1"/>
        <pt x="338" y="320" on="1"/>
      </contour>
    </TTGlyph>
    <TTGlyph name="Y" xMin="18" yMin="0" xMax="628" yMax="700">
      <contour>
        <pt x="537" y="700" on="1"/>
        <pt x="628" y="700" on="1"/>
        <pt x="357" y="289" on="1"/>
        <pt x="372" y="357" on="1"/>
        <pt x="372" y="0" on="1"/>
        <pt x="294" y="0" on="1"/>
        <pt x="294" y="349" on="1"/>
        <pt x="300" y="300" on="1"/>
        <pt x="18" y="700" on="1"/>
        <pt x="114" y="700" on="1"/>
        <pt x="346" y="369" on="1"/>
        <pt x="324" y="370" on="1"/>
      </contour>
    </TTGlyph>
    <TTGlyph name="Yacute" xMin="18" yMin="0" xMax="628" yMax="919">
      <contour>
        <pt x="537" y="700" on="1"/>
        <pt x="628" y="700" on="1"/>
        <pt x="357" y="289" on="1"/>
        <pt x="372" y="357" on="1"/>
        <pt x="372" y="0" on="1"/>
        <pt x="294" y="0" on="1"/>
        <pt x="294" y="349" on="1"/>
        <pt x="300" y="300" on="1"/>
        <pt x="18" y="700" on="1"/>
        <pt x="114" y="700" on="1"/>
        <pt x="346" y="369" on="1"/>
        <pt x="324" y="370" on="1"/>
      </contour>
      <contour>
        <pt x="462" y="854" on="1"/>
        <pt x="295" y="760" on="1"/>
        <pt x="267" y="801" on="1"/>
        <pt x="410" y="919" on="1"/>
      </contour>
    </TTGlyph>
    <TTGlyph name="Ycircumflex" xMin="18" yMin="0" xMax="628" yMax="895">
      <contour>
        <pt x="537" y="700" on="1"/>
        <pt x="628" y="700" on="1"/>
        <pt x="357" y="289" on="1"/>
        <pt x="372" y="357" on="1"/>
        <pt x="372" y="0" on="1"/>
        <pt x="294" y="0" on="1"/>
        <pt x="294" y="349" on="1"/>
        <pt x="300" y="300" on="1"/>
        <pt x="18" y="700" on="1"/>
        <pt x="114" y="700" on="1"/>
        <pt x="346" y="369" on="1"/>
        <pt x="324" y="370" on="1"/>
      </contour>
      <contour>
        <pt x="443" y="759" on="1"/>
        <pt x="308" y="844" on="1"/>
        <pt x="338" y="844" on="1"/>
        <pt x="203" y="759" on="1"/>
        <pt x="170" y="789" on="1"/>
        <pt x="289" y="895" on="1"/>
        <pt x="357" y="895" on="1"/>
        <pt x="476" y="789" on="1"/>
      </contour>
    </TTGlyph>
    <TTGlyph name="Ydieresis" xMin="18" yMin="0" xMax="628" yMax="870">
      <contour>
        <pt x="537" y="700" on="1"/>
        <pt x="628" y="700" on="1"/>
        <pt x="357" y="289" on="1"/>
        <pt x="372" y="357" on="1"/>
        <pt x="372" y="0" on="1"/>
        <pt x="294" y="0" on="1"/>
        <pt x="294" y="349" on="1"/>
        <pt x="300" y="300" on="1"/>
        <pt x="18" y="700" on="1"/>
        <pt x="114" y="700" on="1"/>
        <pt x="346" y="369" on="1"/>
        <pt x="324" y="370" on="1"/>
      </contour>
      <contour>
        <pt x="280" y="814" on="1"/>
        <pt x="280" y="790" on="0"/>
        <pt x="250" y="760" on="0"/>
        <pt x="223" y="760" on="1"/>
        <pt x="195" y="760" on="0"/>
        <pt x="165" y="788" on="0"/>
        <pt x="165" y="814" on="1"/>
        <pt x="165" y="839" on="0"/>
        <pt x="196" y="870" on="0"/>
        <pt x="223" y="870" on="1"/>
        <pt x="250" y="870" on="0"/>
        <pt x="280" y="840" on="0"/>
      </contour>
      <contour>
        <pt x="483" y="814" on="1"/>
        <pt x="483" y="790" on="0"/>
        <pt x="453" y="760" on="0"/>
        <pt x="426" y="760" on="1"/>
        <pt x="398" y="760" on="0"/>
        <pt x="368" y="788" on="0"/>
        <pt x="368" y="814" on="1"/>
        <pt x="368" y="839" on="0"/>
        <pt x="399" y="870" on="0"/>
        <pt x="426" y="870" on="1"/>
        <pt x="453" y="870" on="0"/>
        <pt x="483" y="840" on="0"/>
      </contour>
    </TTGlyph>
    <TTGlyph name="Ygrave" xMin="18" yMin="0" xMax="628" yMax="921">
      <contour>
        <pt x="537" y="700" on="1"/>
        <pt x="628" y="700" on="1"/>
        <pt x="357" y="289" on="1"/>
        <pt x="372" y="357" on="1"/>
        <pt x="372" y="0" on="1"/>
        <pt x="294" y="0" on="1"/>
        <pt x="294" y="349" on="1"/>
        <pt x="300" y="300" on="1"/>
        <pt x="18" y="700" on="1"/>
        <pt x="114" y="700" on="1"/>
        <pt x="346" y="369" on="1"/>
        <pt x="324" y="370" on="1"/>
      </contour>
      <contour>
        <pt x="383" y="803" on="1"/>
        <pt x="356" y="762" on="1"/>
        <pt x="189" y="856" on="1"/>
        <pt x="240" y="921" on="1"/>
      </contour>
    </TTGlyph>
    <TTGlyph name="Z" xMin="60" yMin="0" xMax="594" yMax="700">
      <contour>
        <pt x="86" y="700" on="1"/>
        <pt x="583" y="700" on="1"/>
        <pt x="583" y="640" on="1"/>
        <pt x="153" y="56" on="1"/>
        <pt x="138" y="77" on="1"/>
        <pt x="594" y="77" on="1"/>
        <pt x="594" y="0" on="1"/>
        <pt x="60" y="0" on="1"/>
        <pt x="60" y="60" on="1"/>
        <pt x="492" y="644" on="1"/>
        <pt x="507" y="623" on="1"/>
        <pt x="86" y="623" on="1"/>
      </contour>
    </TTGlyph>
    <TTGlyph name="Zacute" xMin="60" yMin="0" xMax="594" yMax="919">
      <contour>
        <pt x="86" y="700" on="1"/>
        <pt x="583" y="700" on="1"/>
        <pt x="583" y="640" on="1"/>
        <pt x="153" y="56" on="1"/>
        <pt x="138" y="77" on="1"/>
        <pt x="594" y="77" on="1"/>
        <pt x="594" y="0" on="1"/>
        <pt x="60" y="0" on="1"/>
        <pt x="60" y="60" on="1"/>
        <pt x="492" y="644" on="1"/>
        <pt x="507" y="623" on="1"/>
        <pt x="86" y="623" on="1"/>
      </contour>
      <contour>
        <pt x="463" y="854" on="1"/>
        <pt x="296" y="760" on="1"/>
        <pt x="268" y="801" on="1"/>
        <pt x="411" y="919" on="1"/>
      </contour>
    </TTGlyph>
    <TTGlyph name="Zcaron" xMin="60" yMin="0" xMax="594" yMax="899">
      <contour>
        <pt x="86" y="700" on="1"/>
        <pt x="583" y="700" on="1"/>
        <pt x="583" y="640" on="1"/>
        <pt x="153" y="56" on="1"/>
        <pt x="138" y="77" on="1"/>
        <pt x="594" y="77" on="1"/>
        <pt x="594" y="0" on="1"/>
        <pt x="60" y="0" on="1"/>
        <pt x="60" y="60" on="1"/>
        <pt x="492" y="644" on="1"/>
        <pt x="507" y="623" on="1"/>
        <pt x="86" y="623" on="1"/>
      </contour>
      <contour>
        <pt x="440" y="899" on="1"/>
        <pt x="309" y="814" on="1"/>
        <pt x="339" y="814" on="1"/>
        <pt x="208" y="899" on="1"/>
        <pt x="175" y="870" on="1"/>
        <pt x="287" y="763" on="1"/>
        <pt x="361" y="763" on="1"/>
        <pt x="473" y="870" on="1"/>
      </contour>
    </TTGlyph>
    <TTGlyph name="Zdotaccent" xMin="60" yMin="0" xMax="594" yMax="874">
      <contour>
        <pt x="86" y="700" on="1"/>
        <pt x="583" y="700" on="1"/>
        <pt x="583" y="640" on="1"/>
        <pt x="153" y="56" on="1"/>
        <pt x="138" y="77" on="1"/>
        <pt x="594" y="77" on="1"/>
        <pt x="594" y="0" on="1"/>
        <pt x="60" y="0" on="1"/>
        <pt x="60" y="60" on="1"/>
        <pt x="492" y="644" on="1"/>
        <pt x="507" y="623" on="1"/>
        <pt x="86" y="623" on="1"/>
      </contour>
      <contour>
        <pt x="384" y="820" on="1"/>
        <pt x="384" y="795" on="0"/>
        <pt x="354" y="764" on="0"/>
        <pt x="326" y="764" on="1"/>
        <pt x="299" y="764" on="0"/>
        <pt x="269" y="794" on="0"/>
        <pt x="269" y="820" on="1"/>
        <pt x="269" y="844" on="0"/>
        <pt x="300" y="874" on="0"/>
        <pt x="326" y="874" on="1"/>
        <pt x="354" y="874" on="0"/>
        <pt x="384" y="846" on="0"/>
      </contour>
    </TTGlyph>
    <TTGlyph name="_connection" xMin="-30" yMin="0" xMax="90" yMax="102">
      <contour>
        <pt x="-30" y="0" on="1"/>
        <pt x="-30" y="102" on="1"/>
        <pt x="90" y="102" on="1"/>
        <pt x="90" y="0" on="1"/>
      </contour>
    </TTGlyph>
    <TTGlyph name="_connection.round" xMin="-79" yMin="0" xMax="120" yMax="149">
      <contour>
        <pt x="-79" y="102" on="1"/>
        <pt x="-31" y="149" on="1"/>
        <pt x="-5" y="124" on="0"/>
        <pt x="65" y="102" on="0"/>
        <pt x="120" y="102" on="1"/>
        <pt x="120" y="0" on="1"/>
        <pt x="54" y="0" on="0"/>
        <pt x="-49" y="52" on="0"/>
      </contour>
    </TTGlyph>
    <TTGlyph name="_guide" xMin="72" yMin="0" xMax="1213" yMax="536">
      <contour>
        <pt x="963" y="536" on="1"/>
        <pt x="1078" y="536" on="0"/>
        <pt x="1213" y="412" on="0"/>
        <pt x="1213" y="310" on="1"/>
        <pt x="1213" y="0" on="1"/>
        <pt x="1110" y="0" on="1"/>
        <pt x="1110" y="293" on="1"/>
        <pt x="1110" y="356" on="0"/>
        <pt x="1012" y="440" on="0"/>
        <pt x="939" y="440" on="1"/>
        <pt x="861" y="440" on="0"/>
        <pt x="741" y="336" on="0"/>
        <pt x="741" y="278" on="1"/>
        <pt x="741" y="0" on="1"/>
        <pt x="715" y="0" on="0"/>
        <pt x="664" y="0" on="0"/>
        <pt x="638" y="0" on="1"/>
        <pt x="638" y="525" on="1"/>
        <pt x="741" y="525" on="1"/>
        <pt x="741" y="377" on="1"/>
        <pt x="703" y="375" on="1"/>
        <pt x="748" y="450" on="0"/>
        <pt x="884" y="536" on="0"/>
      </contour>
      <contour>
        <pt x="347" y="536" on="1"/>
        <pt x="437" y="536" on="0"/>
        <pt x="527" y="429" on="0"/>
        <pt x="527" y="320" on="1"/>
        <pt x="527" y="0" on="1"/>
        <pt x="424" y="0" on="1"/>
        <pt x="424" y="313" on="1"/>
        <pt x="424" y="381" on="0"/>
        <pt x="369" y="445" on="0"/>
        <pt x="313" y="442" on="1"/>
        <pt x="254" y="442" on="0"/>
        <pt x="175" y="370" on="0"/>
        <pt x="175" y="318" on="1"/>
        <pt x="175" y="0" on="1"/>
        <pt x="149" y="0" on="0"/>
        <pt x="98" y="0" on="0"/>
        <pt x="72" y="0" on="1"/>
        <pt x="72" y="525" on="1"/>
        <pt x="175" y="525" on="1"/>
        <pt x="175" y="417" on="1"/>
        <pt x="157" y="405" on="1"/>
        <pt x="172" y="457" on="0"/>
        <pt x="284" y="536" on="0"/>
      </contour>
    </TTGlyph>
    <TTGlyph name="_spacingBehDotless" xMin="0" yMin="0" xMax="161" yMax="221">
      <contour>
        <pt x="0" y="0" on="1"/>
        <pt x="0" y="221" on="1"/>
        <pt x="161" y="221" on="1"/>
        <pt x="161" y="0" on="1"/>
      </contour>
    </TTGlyph>
    <TTGlyph name="_spacingDal" xMin="0" yMin="0" xMax="161" yMax="221">
      <contour>
        <pt x="0" y="0" on="1"/>
        <pt x="0" y="221" on="1"/>
        <pt x="161" y="221" on="1"/>
        <pt x="161" y="0" on="1"/>
      </contour>
    </TTGlyph>
    <TTGlyph name="a" xMin="35" yMin="-10" xMax="548" yMax="534">
      <contour>
        <pt x="472" y="522" on="1"/>
        <pt x="548" y="522" on="1"/>
        <pt x="548" y="0" on="1"/>
        <pt x="470" y="0" on="1"/>
        <pt x="470" y="128" on="1"/>
        <pt x="491" y="140" on="1"/>
        <pt x="476" y="80" on="0"/>
        <pt x="355" y="-10" on="0"/>
        <pt x="277" y="-10" on="1"/>
        <pt x="175" y="-10" on="0"/>
        <pt x="35" y="145" on="0"/>
        <pt x="35" y="262" on="1"/>
        <pt x="35" y="380" on="0"/>
        <pt x="178" y="534" on="0"/>
        <pt x="282" y="534" on="1"/>
        <pt x="362" y="534" on="0"/>
        <pt x="476" y="442" on="0"/>
        <pt x="490" y="376" on="1"/>
        <pt x="469" y="387" on="1"/>
      </contour>
      <contour>
        <pt x="114" y="262" on="1"/>
        <pt x="114" y="176" on="0"/>
        <pt x="214" y="62" on="0"/>
        <pt x="294" y="62" on="1"/>
        <pt x="372" y="62" on="0"/>
        <pt x="474" y="175" on="0"/>
        <pt x="474" y="262" on="1"/>
        <pt x="474" y="349" on="0"/>
        <pt x="372" y="461" on="0"/>
        <pt x="294" y="461" on="1"/>
        <pt x="215" y="461" on="0"/>
        <pt x="114" y="349" on="0"/>
      </contour>
    </TTGlyph>
    <TTGlyph name="a.ss01" xMin="43" yMin="-10" xMax="471" yMax="534">
      <contour>
        <pt x="275" y="534" on="1"/>
        <pt x="365" y="534" on="0"/>
        <pt x="471" y="445" on="0"/>
        <pt x="471" y="364" on="1"/>
        <pt x="471" y="0" on="1"/>
        <pt x="400" y="0" on="1"/>
        <pt x="400" y="353" on="1"/>
        <pt x="400" y="401" on="0"/>
        <pt x="332" y="461" on="0"/>
        <pt x="270" y="461" on="1"/>
        <pt x="221" y="461" on="0"/>
        <pt x="143" y="421" on="0"/>
        <pt x="110" y="382" on="1"/>
        <pt x="58" y="432" on="1"/>
        <pt x="106" y="484" on="0"/>
        <pt x="212" y="534" on="0"/>
      </contour>
      <contour>
        <pt x="279" y="319" on="1"/>
        <pt x="434" y="319" on="1"/>
        <pt x="426" y="254" on="1"/>
        <pt x="266" y="254" on="1"/>
        <pt x="194" y="254" on="0"/>
        <pt x="118" y="200" on="0"/>
        <pt x="118" y="151" on="1"/>
        <pt x="118" y="110" on="0"/>
        <pt x="178" y="59" on="0"/>
        <pt x="225" y="59" on="1"/>
        <pt x="286" y="59" on="0"/>
        <pt x="386" y="121" on="0"/>
        <pt x="411" y="169" on="1"/>
        <pt x="434" y="118" on="1"/>
        <pt x="400" y="61" on="0"/>
        <pt x="284" y="-10" on="0"/>
        <pt x="221" y="-10" on="1"/>
        <pt x="145" y="-10" on="0"/>
        <pt x="43" y="77" on="0"/>
        <pt x="43" y="149" on="1"/>
        <pt x="43" y="233" on="0"/>
        <pt x="162" y="319" on="0"/>
      </contour>
    </TTGlyph>
    <TTGlyph name="aabreve.ss01" xMin="43" yMin="-10" xMax="471" yMax="764">
      <contour>
        <pt x="275" y="534" on="1"/>
        <pt x="365" y="534" on="0"/>
        <pt x="471" y="445" on="0"/>
        <pt x="471" y="364" on="1"/>
        <pt x="471" y="0" on="1"/>
        <pt x="400" y="0" on="1"/>
        <pt x="400" y="353" on="1"/>
        <pt x="400" y="401" on="0"/>
        <pt x="332" y="461" on="0"/>
        <pt x="270" y="461" on="1"/>
        <pt x="221" y="461" on="0"/>
        <pt x="143" y="421" on="0"/>
        <pt x="110" y="382" on="1"/>
        <pt x="58" y="432" on="1"/>
        <pt x="106" y="484" on="0"/>
        <pt x="212" y="534" on="0"/>
      </contour>
      <contour>
        <pt x="279" y="319" on="1"/>
        <pt x="434" y="319" on="1"/>
        <pt x="426" y="254" on="1"/>
        <pt x="266" y="254" on="1"/>
        <pt x="194" y="254" on="0"/>
        <pt x="118" y="200" on="0"/>
        <pt x="118" y="151" on="1"/>
        <pt x="118" y="110" on="0"/>
        <pt x="178" y="59" on="0"/>
        <pt x="225" y="59" on="1"/>
        <pt x="286" y="59" on="0"/>
        <pt x="386" y="121" on="0"/>
        <pt x="411" y="169" on="1"/>
        <pt x="434" y="118" on="1"/>
        <pt x="400" y="61" on="0"/>
        <pt x="284" y="-10" on="0"/>
        <pt x="221" y="-10" on="1"/>
        <pt x="145" y="-10" on="0"/>
        <pt x="43" y="77" on="0"/>
        <pt x="43" y="149" on="1"/>
        <pt x="43" y="233" on="0"/>
        <pt x="162" y="319" on="0"/>
      </contour>
      <contour>
        <pt x="266" y="612" on="1"/>
        <pt x="208" y="612" on="0"/>
        <pt x="126" y="690" on="0"/>
        <pt x="114" y="756" on="1"/>
        <pt x="172" y="764" on="1"/>
        <pt x="184" y="722" on="0"/>
        <pt x="235" y="674" on="0"/>
        <pt x="266" y="674" on="1"/>
        <pt x="296" y="674" on="0"/>
        <pt x="348" y="722" on="0"/>
        <pt x="359" y="764" on="1"/>
        <pt x="418" y="756" on="1"/>
        <pt x="404" y="690" on="0"/>
        <pt x="323" y="612" on="0"/>
      </contour>
    </TTGlyph>
    <TTGlyph name="aacute" xMin="35" yMin="-10" xMax="548" yMax="774">
      <contour>
        <pt x="472" y="522" on="1"/>
        <pt x="548" y="522" on="1"/>
        <pt x="548" y="0" on="1"/>
        <pt x="470" y="0" on="1"/>
        <pt x="470" y="128" on="1"/>
        <pt x="491" y="140" on="1"/>
        <pt x="476" y="80" on="0"/>
        <pt x="355" y="-10" on="0"/>
        <pt x="277" y="-10" on="1"/>
        <pt x="175" y="-10" on="0"/>
        <pt x="35" y="145" on="0"/>
        <pt x="35" y="262" on="1"/>
        <pt x="35" y="380" on="0"/>
        <pt x="178" y="534" on="0"/>
        <pt x="282" y="534" on="1"/>
        <pt x="362" y="534" on="0"/>
        <pt x="476" y="442" on="0"/>
        <pt x="490" y="376" on="1"/>
        <pt x="469" y="387" on="1"/>
      </contour>
      <contour>
        <pt x="114" y="262" on="1"/>
        <pt x="114" y="176" on="0"/>
        <pt x="214" y="62" on="0"/>
        <pt x="294" y="62" on="1"/>
        <pt x="372" y="62" on="0"/>
        <pt x="474" y="175" on="0"/>
        <pt x="474" y="262" on="1"/>
        <pt x="474" y="349" on="0"/>
        <pt x="372" y="461" on="0"/>
        <pt x="294" y="461" on="1"/>
        <pt x="215" y="461" on="0"/>
        <pt x="114" y="349" on="0"/>
      </contour>
      <contour>
        <pt x="434" y="710" on="1"/>
        <pt x="270" y="613" on="1"/>
        <pt x="243" y="654" on="1"/>
        <pt x="385" y="774" on="1"/>
      </contour>
    </TTGlyph>
    <TTGlyph name="aacute.ss01" xMin="43" yMin="-10" xMax="471" yMax="774">
      <contour>
        <pt x="275" y="534" on="1"/>
        <pt x="365" y="534" on="0"/>
        <pt x="471" y="445" on="0"/>
        <pt x="471" y="364" on="1"/>
        <pt x="471" y="0" on="1"/>
        <pt x="400" y="0" on="1"/>
        <pt x="400" y="353" on="1"/>
        <pt x="400" y="401" on="0"/>
        <pt x="332" y="461" on="0"/>
        <pt x="270" y="461" on="1"/>
        <pt x="221" y="461" on="0"/>
        <pt x="143" y="421" on="0"/>
        <pt x="110" y="382" on="1"/>
        <pt x="58" y="432" on="1"/>
        <pt x="106" y="484" on="0"/>
        <pt x="212" y="534" on="0"/>
      </contour>
      <contour>
        <pt x="279" y="319" on="1"/>
        <pt x="434" y="319" on="1"/>
        <pt x="426" y="254" on="1"/>
        <pt x="266" y="254" on="1"/>
        <pt x="194" y="254" on="0"/>
        <pt x="118" y="200" on="0"/>
        <pt x="118" y="151" on="1"/>
        <pt x="118" y="110" on="0"/>
        <pt x="178" y="59" on="0"/>
        <pt x="225" y="59" on="1"/>
        <pt x="286" y="59" on="0"/>
        <pt x="386" y="121" on="0"/>
        <pt x="411" y="169" on="1"/>
        <pt x="434" y="118" on="1"/>
        <pt x="400" y="61" on="0"/>
        <pt x="284" y="-10" on="0"/>
        <pt x="221" y="-10" on="1"/>
        <pt x="145" y="-10" on="0"/>
        <pt x="43" y="77" on="0"/>
        <pt x="43" y="149" on="1"/>
        <pt x="43" y="233" on="0"/>
        <pt x="162" y="319" on="0"/>
      </contour>
      <contour>
        <pt x="397" y="710" on="1"/>
        <pt x="233" y="613" on="1"/>
        <pt x="205" y="654" on="1"/>
        <pt x="348" y="774" on="1"/>
      </contour>
    </TTGlyph>
    <TTGlyph name="abreve" xMin="35" yMin="-10" xMax="548" yMax="766">
      <contour>
        <pt x="472" y="522" on="1"/>
        <pt x="548" y="522" on="1"/>
        <pt x="548" y="0" on="1"/>
        <pt x="470" y="0" on="1"/>
        <pt x="470" y="128" on="1"/>
        <pt x="491" y="140" on="1"/>
        <pt x="476" y="80" on="0"/>
        <pt x="355" y="-10" on="0"/>
        <pt x="277" y="-10" on="1"/>
        <pt x="175" y="-10" on="0"/>
        <pt x="35" y="145" on="0"/>
        <pt x="35" y="262" on="1"/>
        <pt x="35" y="380" on="0"/>
        <pt x="178" y="534" on="0"/>
        <pt x="282" y="534" on="1"/>
        <pt x="362" y="534" on="0"/>
        <pt x="476" y="442" on="0"/>
        <pt x="490" y="376" on="1"/>
        <pt x="469" y="387" on="1"/>
      </contour>
      <contour>
        <pt x="114" y="262" on="1"/>
        <pt x="114" y="176" on="0"/>
        <pt x="214" y="62" on="0"/>
        <pt x="294" y="62" on="1"/>
        <pt x="372" y="62" on="0"/>
        <pt x="474" y="175" on="0"/>
        <pt x="474" y="262" on="1"/>
        <pt x="474" y="349" on="0"/>
        <pt x="372" y="461" on="0"/>
        <pt x="294" y="461" on="1"/>
        <pt x="215" y="461" on="0"/>
        <pt x="114" y="349" on="0"/>
      </contour>
      <contour>
        <pt x="301" y="614" on="1"/>
        <pt x="244" y="614" on="0"/>
        <pt x="162" y="692" on="0"/>
        <pt x="149" y="758" on="1"/>
        <pt x="208" y="766" on="1"/>
        <pt x="219" y="724" on="0"/>
        <pt x="271" y="676" on="0"/>
        <pt x="301" y="676" on="1"/>
        <pt x="332" y="676" on="0"/>
        <pt x="383" y="724" on="0"/>
        <pt x="395" y="766" on="1"/>
        <pt x="453" y="758" on="1"/>
        <pt x="440" y="692" on="0"/>
        <pt x="359" y="614" on="0"/>
      </contour>
    </TTGlyph>
    <TTGlyph name="abreve.ss01" xMin="43" yMin="-10" xMax="471" yMax="766">
      <contour>
        <pt x="275" y="534" on="1"/>
        <pt x="365" y="534" on="0"/>
        <pt x="471" y="445" on="0"/>
        <pt x="471" y="364" on="1"/>
        <pt x="471" y="0" on="1"/>
        <pt x="400" y="0" on="1"/>
        <pt x="400" y="353" on="1"/>
        <pt x="400" y="401" on="0"/>
        <pt x="332" y="461" on="0"/>
        <pt x="270" y="461" on="1"/>
        <pt x="221" y="461" on="0"/>
        <pt x="143" y="421" on="0"/>
        <pt x="110" y="382" on="1"/>
        <pt x="58" y="432" on="1"/>
        <pt x="106" y="484" on="0"/>
        <pt x="212" y="534" on="0"/>
      </contour>
      <contour>
        <pt x="279" y="319" on="1"/>
        <pt x="434" y="319" on="1"/>
        <pt x="426" y="254" on="1"/>
        <pt x="266" y="254" on="1"/>
        <pt x="194" y="254" on="0"/>
        <pt x="118" y="200" on="0"/>
        <pt x="118" y="151" on="1"/>
        <pt x="118" y="110" on="0"/>
        <pt x="178" y="59" on="0"/>
        <pt x="225" y="59" on="1"/>
        <pt x="286" y="59" on="0"/>
        <pt x="386" y="121" on="0"/>
        <pt x="411" y="169" on="1"/>
        <pt x="434" y="118" on="1"/>
        <pt x="400" y="61" on="0"/>
        <pt x="284" y="-10" on="0"/>
        <pt x="221" y="-10" on="1"/>
        <pt x="145" y="-10" on="0"/>
        <pt x="43" y="77" on="0"/>
        <pt x="43" y="149" on="1"/>
        <pt x="43" y="233" on="0"/>
        <pt x="162" y="319" on="0"/>
      </contour>
      <contour>
        <pt x="271" y="614" on="1"/>
        <pt x="214" y="614" on="0"/>
        <pt x="132" y="692" on="0"/>
        <pt x="119" y="758" on="1"/>
        <pt x="178" y="766" on="1"/>
        <pt x="189" y="724" on="0"/>
        <pt x="241" y="676" on="0"/>
        <pt x="271" y="676" on="1"/>
        <pt x="302" y="676" on="0"/>
        <pt x="353" y="724" on="0"/>
        <pt x="365" y="766" on="1"/>
        <pt x="423" y="758" on="1"/>
        <pt x="410" y="692" on="0"/>
        <pt x="329" y="614" on="0"/>
      </contour>
    </TTGlyph>
    <TTGlyph name="acircumflex" xMin="35" yMin="-10" xMax="548" yMax="750">
      <contour>
        <pt x="472" y="522" on="1"/>
        <pt x="548" y="522" on="1"/>
        <pt x="548" y="0" on="1"/>
        <pt x="470" y="0" on="1"/>
        <pt x="470" y="128" on="1"/>
        <pt x="491" y="140" on="1"/>
        <pt x="476" y="80" on="0"/>
        <pt x="355" y="-10" on="0"/>
        <pt x="277" y="-10" on="1"/>
        <pt x="175" y="-10" on="0"/>
        <pt x="35" y="145" on="0"/>
        <pt x="35" y="262" on="1"/>
        <pt x="35" y="380" on="0"/>
        <pt x="178" y="534" on="0"/>
        <pt x="282" y="534" on="1"/>
        <pt x="362" y="534" on="0"/>
        <pt x="476" y="442" on="0"/>
        <pt x="490" y="376" on="1"/>
        <pt x="469" y="387" on="1"/>
      </contour>
      <contour>
        <pt x="114" y="262" on="1"/>
        <pt x="114" y="176" on="0"/>
        <pt x="214" y="62" on="0"/>
        <pt x="294" y="62" on="1"/>
        <pt x="372" y="62" on="0"/>
        <pt x="474" y="175" on="0"/>
        <pt x="474" y="262" on="1"/>
        <pt x="474" y="349" on="0"/>
        <pt x="372" y="461" on="0"/>
        <pt x="294" y="461" on="1"/>
        <pt x="215" y="461" on="0"/>
        <pt x="114" y="349" on="0"/>
      </contour>
      <contour>
        <pt x="421" y="614" on="1"/>
        <pt x="290" y="699" on="1"/>
        <pt x="320" y="699" on="1"/>
        <pt x="189" y="614" on="1"/>
        <pt x="156" y="643" on="1"/>
        <pt x="268" y="750" on="1"/>
        <pt x="342" y="750" on="1"/>
        <pt x="454" y="643" on="1"/>
      </contour>
    </TTGlyph>
    <TTGlyph name="acircumflex.ss01" xMin="43" yMin="-10" xMax="471" yMax="750">
      <contour>
        <pt x="275" y="534" on="1"/>
        <pt x="365" y="534" on="0"/>
        <pt x="471" y="445" on="0"/>
        <pt x="471" y="364" on="1"/>
        <pt x="471" y="0" on="1"/>
        <pt x="400" y="0" on="1"/>
        <pt x="400" y="353" on="1"/>
        <pt x="400" y="401" on="0"/>
        <pt x="332" y="461" on="0"/>
        <pt x="270" y="461" on="1"/>
        <pt x="221" y="461" on="0"/>
        <pt x="143" y="421" on="0"/>
        <pt x="110" y="382" on="1"/>
        <pt x="58" y="432" on="1"/>
        <pt x="106" y="484" on="0"/>
        <pt x="212" y="534" on="0"/>
      </contour>
      <contour>
        <pt x="279" y="319" on="1"/>
        <pt x="434" y="319" on="1"/>
        <pt x="426" y="254" on="1"/>
        <pt x="266" y="254" on="1"/>
        <pt x="194" y="254" on="0"/>
        <pt x="118" y="200" on="0"/>
        <pt x="118" y="151" on="1"/>
        <pt x="118" y="110" on="0"/>
        <pt x="178" y="59" on="0"/>
        <pt x="225" y="59" on="1"/>
        <pt x="286" y="59" on="0"/>
        <pt x="386" y="121" on="0"/>
        <pt x="411" y="169" on="1"/>
        <pt x="434" y="118" on="1"/>
        <pt x="400" y="61" on="0"/>
        <pt x="284" y="-10" on="0"/>
        <pt x="221" y="-10" on="1"/>
        <pt x="145" y="-10" on="0"/>
        <pt x="43" y="77" on="0"/>
        <pt x="43" y="149" on="1"/>
        <pt x="43" y="233" on="0"/>
        <pt x="162" y="319" on="0"/>
      </contour>
      <contour>
        <pt x="390" y="614" on="1"/>
        <pt x="259" y="699" on="1"/>
        <pt x="289" y="699" on="1"/>
        <pt x="158" y="614" on="1"/>
        <pt x="125" y="643" on="1"/>
        <pt x="237" y="750" on="1"/>
        <pt x="311" y="750" on="1"/>
        <pt x="423" y="643" on="1"/>
      </contour>
    </TTGlyph>
    <TTGlyph name="acute" xMin="42" yMin="581" xMax="234" yMax="742">
      <contour>
        <pt x="234" y="678" on="1"/>
        <pt x="70" y="581" on="1"/>
        <pt x="42" y="622" on="1"/>
        <pt x="184" y="742" on="1"/>
      </contour>
    </TTGlyph>
    <TTGlyph name="acute.case" xMin="28" yMin="578" xMax="222" yMax="736">
      <contour>
        <pt x="222" y="671" on="1"/>
        <pt x="56" y="578" on="1"/>
        <pt x="28" y="618" on="1"/>
        <pt x="171" y="736" on="1"/>
      </contour>
    </TTGlyph>
    <TTGlyph name="acutecomb" xMin="42" yMin="611" xMax="234" yMax="772">
      <contour>
        <pt x="234" y="708" on="1"/>
        <pt x="70" y="611" on="1"/>
        <pt x="42" y="652" on="1"/>
        <pt x="185" y="772" on="1"/>
      </contour>
    </TTGlyph>
    <TTGlyph name="acutecomb.case" xMin="28" yMin="578" xMax="222" yMax="736">
      <contour>
        <pt x="222" y="671" on="1"/>
        <pt x="56" y="578" on="1"/>
        <pt x="28" y="618" on="1"/>
        <pt x="171" y="736" on="1"/>
      </contour>
    </TTGlyph>
    <TTGlyph name="acutecomb_dotaccentcomb" xMin="-2" yMin="621" xMax="189" yMax="920">
      <contour>
        <pt x="189" y="718" on="1"/>
        <pt x="25" y="621" on="1"/>
        <pt x="-2" y="662" on="1"/>
        <pt x="140" y="782" on="1"/>
      </contour>
      <contour>
        <pt x="131" y="866" on="1"/>
        <pt x="131" y="841" on="0"/>
        <pt x="100" y="810" on="0"/>
        <pt x="74" y="810" on="1"/>
        <pt x="46" y="810" on="0"/>
        <pt x="16" y="840" on="0"/>
        <pt x="16" y="866" on="1"/>
        <pt x="16" y="890" on="0"/>
        <pt x="46" y="920" on="0"/>
        <pt x="74" y="920" on="1"/>
        <pt x="101" y="920" on="0"/>
        <pt x="131" y="892" on="0"/>
      </contour>
    </TTGlyph>
    <TTGlyph name="adieresis" xMin="35" yMin="-10" xMax="548" yMax="728">
      <contour>
        <pt x="472" y="522" on="1"/>
        <pt x="548" y="522" on="1"/>
        <pt x="548" y="0" on="1"/>
        <pt x="470" y="0" on="1"/>
        <pt x="470" y="128" on="1"/>
        <pt x="491" y="140" on="1"/>
        <pt x="476" y="80" on="0"/>
        <pt x="355" y="-10" on="0"/>
        <pt x="277" y="-10" on="1"/>
        <pt x="175" y="-10" on="0"/>
        <pt x="35" y="145" on="0"/>
        <pt x="35" y="262" on="1"/>
        <pt x="35" y="380" on="0"/>
        <pt x="178" y="534" on="0"/>
        <pt x="282" y="534" on="1"/>
        <pt x="362" y="534" on="0"/>
        <pt x="476" y="442" on="0"/>
        <pt x="490" y="376" on="1"/>
        <pt x="469" y="387" on="1"/>
      </contour>
      <contour>
        <pt x="114" y="262" on="1"/>
        <pt x="114" y="176" on="0"/>
        <pt x="214" y="62" on="0"/>
        <pt x="294" y="62" on="1"/>
        <pt x="372" y="62" on="0"/>
        <pt x="474" y="175" on="0"/>
        <pt x="474" y="262" on="1"/>
        <pt x="474" y="349" on="0"/>
        <pt x="372" y="461" on="0"/>
        <pt x="294" y="461" on="1"/>
        <pt x="215" y="461" on="0"/>
        <pt x="114" y="349" on="0"/>
      </contour>
      <contour>
        <pt x="253" y="673" on="1"/>
        <pt x="253" y="648" on="0"/>
        <pt x="222" y="618" on="0"/>
        <pt x="196" y="618" on="1"/>
        <pt x="168" y="618" on="0"/>
        <pt x="138" y="647" on="0"/>
        <pt x="138" y="673" on="1"/>
        <pt x="138" y="698" on="0"/>
        <pt x="168" y="728" on="0"/>
        <pt x="196" y="728" on="1"/>
        <pt x="223" y="728" on="0"/>
        <pt x="253" y="699" on="0"/>
      </contour>
      <contour>
        <pt x="448" y="673" on="1"/>
        <pt x="448" y="648" on="0"/>
        <pt x="418" y="618" on="0"/>
        <pt x="390" y="618" on="1"/>
        <pt x="363" y="618" on="0"/>
        <pt x="333" y="647" on="0"/>
        <pt x="333" y="673" on="1"/>
        <pt x="333" y="698" on="0"/>
        <pt x="364" y="728" on="0"/>
        <pt x="390" y="728" on="1"/>
        <pt x="418" y="728" on="0"/>
        <pt x="448" y="699" on="0"/>
      </contour>
    </TTGlyph>
    <TTGlyph name="adieresis.ss01" xMin="43" yMin="-10" xMax="471" yMax="744">
      <contour>
        <pt x="275" y="534" on="1"/>
        <pt x="365" y="534" on="0"/>
        <pt x="471" y="445" on="0"/>
        <pt x="471" y="364" on="1"/>
        <pt x="471" y="0" on="1"/>
        <pt x="400" y="0" on="1"/>
        <pt x="400" y="353" on="1"/>
        <pt x="400" y="401" on="0"/>
        <pt x="332" y="461" on="0"/>
        <pt x="270" y="461" on="1"/>
        <pt x="221" y="461" on="0"/>
        <pt x="143" y="421" on="0"/>
        <pt x="110" y="382" on="1"/>
        <pt x="58" y="432" on="1"/>
        <pt x="106" y="484" on="0"/>
        <pt x="212" y="534" on="0"/>
      </contour>
      <contour>
        <pt x="279" y="319" on="1"/>
        <pt x="434" y="319" on="1"/>
        <pt x="426" y="254" on="1"/>
        <pt x="266" y="254" on="1"/>
        <pt x="194" y="254" on="0"/>
        <pt x="118" y="200" on="0"/>
        <pt x="118" y="151" on="1"/>
        <pt x="118" y="110" on="0"/>
        <pt x="178" y="59" on="0"/>
        <pt x="225" y="59" on="1"/>
        <pt x="286" y="59" on="0"/>
        <pt x="386" y="121" on="0"/>
        <pt x="411" y="169" on="1"/>
        <pt x="434" y="118" on="1"/>
        <pt x="400" y="61" on="0"/>
        <pt x="284" y="-10" on="0"/>
        <pt x="221" y="-10" on="1"/>
        <pt x="145" y="-10" on="0"/>
        <pt x="43" y="77" on="0"/>
        <pt x="43" y="149" on="1"/>
        <pt x="43" y="233" on="0"/>
        <pt x="162" y="319" on="0"/>
      </contour>
      <contour>
        <pt x="224" y="690" on="1"/>
        <pt x="224" y="665" on="0"/>
        <pt x="193" y="634" on="0"/>
        <pt x="166" y="634" on="1"/>
        <pt x="138" y="634" on="0"/>
        <pt x="108" y="664" on="0"/>
        <pt x="108" y="690" on="1"/>
        <pt x="108" y="714" on="0"/>
        <pt x="139" y="744" on="0"/>
        <pt x="166" y="744" on="1"/>
        <pt x="194" y="744" on="0"/>
        <pt x="224" y="716" on="0"/>
      </contour>
      <contour>
        <pt x="418" y="690" on="1"/>
        <pt x="418" y="665" on="0"/>
        <pt x="388" y="634" on="0"/>
        <pt x="361" y="634" on="1"/>
        <pt x="334" y="634" on="0"/>
        <pt x="304" y="664" on="0"/>
        <pt x="304" y="690" on="1"/>
        <pt x="304" y="714" on="0"/>
        <pt x="334" y="744" on="0"/>
        <pt x="361" y="744" on="1"/>
        <pt x="388" y="744" on="0"/>
        <pt x="418" y="716" on="0"/>
      </contour>
    </TTGlyph>
    <TTGlyph name="ae" xMin="38" yMin="-10" xMax="860" yMax="534">
      <contour>
        <pt x="259" y="534" on="1"/>
        <pt x="349" y="534" on="0"/>
        <pt x="455" y="454" on="0"/>
        <pt x="455" y="381" on="1"/>
        <pt x="455" y="276" on="1"/>
        <pt x="386" y="273" on="1"/>
        <pt x="386" y="360" on="1"/>
        <pt x="386" y="404" on="0"/>
        <pt x="318" y="461" on="0"/>
        <pt x="257" y="461" on="1"/>
        <pt x="208" y="461" on="0"/>
        <pt x="130" y="421" on="0"/>
        <pt x="97" y="382" on="1"/>
        <pt x="46" y="432" on="1"/>
        <pt x="90" y="482" on="0"/>
        <pt x="197" y="534" on="0"/>
      </contour>
      <contour>
        <pt x="460" y="264" on="1"/>
        <pt x="460" y="174" on="0"/>
        <pt x="568" y="62" on="0"/>
        <pt x="658" y="62" on="1"/>
        <pt x="696" y="62" on="0"/>
        <pt x="766" y="88" on="0"/>
        <pt x="810" y="124" on="1"/>
        <pt x="848" y="68" on="1"/>
        <pt x="814" y="34" on="0"/>
        <pt x="708" y="-10" on="0"/>
        <pt x="648" y="-10" on="1"/>
        <pt x="532" y="-10" on="0"/>
        <pt x="386" y="139" on="0"/>
        <pt x="386" y="259" on="1"/>
        <pt x="386" y="384" on="0"/>
        <pt x="524" y="534" on="0"/>
        <pt x="631" y="534" on="1"/>
        <pt x="734" y="533" on="0"/>
        <pt x="860" y="392" on="0"/>
        <pt x="860" y="282" on="1"/>
        <pt x="858" y="247" on="1"/>
        <pt x="261" y="247" on="1"/>
        <pt x="190" y="247" on="0"/>
        <pt x="113" y="196" on="0"/>
        <pt x="113" y="151" on="1"/>
        <pt x="113" y="110" on="0"/>
        <pt x="174" y="59" on="0"/>
        <pt x="220" y="59" on="1"/>
        <pt x="280" y="59" on="0"/>
        <pt x="379" y="120" on="0"/>
        <pt x="403" y="168" on="1"/>
        <pt x="441" y="116" on="1"/>
        <pt x="406" y="59" on="0"/>
        <pt x="283" y="-10" on="0"/>
        <pt x="216" y="-10" on="1"/>
        <pt x="140" y="-10" on="0"/>
        <pt x="38" y="77" on="0"/>
        <pt x="38" y="149" on="1"/>
        <pt x="38" y="230" on="0"/>
        <pt x="158" y="312" on="0"/>
        <pt x="274" y="312" on="1"/>
        <pt x="800" y="312" on="1"/>
        <pt x="782" y="293" on="1"/>
        <pt x="782" y="316" on="1"/>
        <pt x="780" y="371" on="0"/>
        <pt x="700" y="461" on="0"/>
        <pt x="630" y="461" on="1"/>
        <pt x="552" y="461" on="0"/>
        <pt x="460" y="360" on="0"/>
      </contour>
    </TTGlyph>
</ttFont>
